<?xml version="1.0" standalone="no"?>
<!DOCTYPE svg PUBLIC "-//W3C//DTD SVG 1.1//EN" "http://www.w3.org/Graphics/SVG/1.1/DTD/svg11.dtd" >
<svg xmlns="http://www.w3.org/2000/svg" xmlns:xlink="http://www.w3.org/1999/xlink" version="1.1">
<metadata>
Created by FontForge 20170924 at Thu Mar 21 16:43:37 2019
 By www-data

</metadata>
<defs>
<font id="HelveticaNowDisplay-XBlk" horiz-adv-x="0" >
  <font-face 
    font-family="HelveticaNowDisplay"
    font-weight="950"
    font-stretch="normal"
    units-per-em="1000"
    panose-1="2 11 11 4 3 2 2 2 2 4"
    ascent="875"
    descent="-125"
    x-height="516"
    cap-height="712"
    bbox="-403 -358 1337 1068"
    underline-thickness="50"
    underline-position="-100"
    stemh="200"
    stemv="208"
    unicode-range="U+000D-FEFF"
  />
<missing-glyph horiz-adv-x="737" 
d="M40 0v712h657v-712h-657zM266 200h205v312h-205v-312z" />
    <glyph glyph-name="fi" unicode="fi" horiz-adv-x="709" 
d="M92 541c0 142 77 182 216 182c31 0 67 -2 101 -5v-152c-21 2 -39 3 -53 3c-46 0 -56 -11 -56 -53h109v-143h-109v-373h-208v373h-82v143h82v25zM465 714h208v-156h-208v156zM465 0v516h208v-516h-208z" />
    <glyph glyph-name="fl" unicode="fl" horiz-adv-x="704" 
d="M92 541c0 142 77 182 216 182c31 0 67 -2 101 -5v-152c-21 2 -39 3 -53 3c-46 0 -56 -11 -56 -53h109v-143h-109v-373h-208v373h-82v143h82v25zM460 712h208v-712h-208v712z" />
    <glyph glyph-name=".notdef" horiz-adv-x="737" 
d="M40 0v712h657v-712h-657zM266 200h205v312h-205v-312z" />
    <glyph glyph-name="NULL" 
 />
    <glyph glyph-name="NULL" 
 />
    <glyph glyph-name="CR" unicode="&#xd;" horiz-adv-x="225" 
 />
    <glyph glyph-name="space" unicode=" " horiz-adv-x="225" 
 />
    <glyph glyph-name="exclam" unicode="!" horiz-adv-x="299" 
d="M103 257l-66 255v200h226v-200l-65 -255h-95zM36 0v220h227v-220h-227z" />
    <glyph glyph-name="quotedbl" unicode="&#x22;" horiz-adv-x="570" 
d="M78 322l-38 390h227l-37 -390h-152zM341 322l-38 390h227l-37 -390h-152z" />
    <glyph glyph-name="numbersign" unicode="#" horiz-adv-x="763" 
d="M711 410h-81l-21 -106h80l-34 -167h-80l-28 -137h-180l28 137h-116l-28 -137h-180l28 137h-81l34 167h81l21 106h-80l34 167h81l27 135h180l-27 -135h116l27 135h180l-27 -135h80zM429 304l21 106h-116l-21 -106h116z" />
    <glyph glyph-name="dollar" unicode="$" horiz-adv-x="673" 
d="M661 236c0 -138 -99 -237 -278 -251v-101h-84v100c-188 12 -280 116 -287 257h223c4 -52 28 -74 64 -81v111l-53 7c-129 18 -221 84 -221 222c0 105 57 218 274 227v101h84v-102c154 -12 246 -81 259 -226h-209c-4 30 -18 50 -50 59v-98l20 -3c178 -25 258 -97 258 -222z
M250 516c0 -24 17 -36 49 -43v88c-35 -7 -49 -24 -49 -45zM383 160c35 7 50 23 50 47c0 23 -14 38 -50 49v-96z" />
    <glyph glyph-name="percent" unicode="%" horiz-adv-x="944" 
d="M206 290c-125 0 -186 72 -186 215c0 145 61 216 186 216s187 -71 187 -216c0 -143 -62 -215 -187 -215zM223 0l380 712h119l-380 -712h-119zM207 402c29 0 46 12 46 103c0 93 -17 104 -46 104s-47 -11 -47 -104c0 -91 18 -103 47 -103zM737 -9c-125 0 -186 72 -186 215
c0 145 61 216 186 216s187 -71 187 -216c0 -143 -62 -215 -187 -215zM738 103c29 0 46 12 46 103c0 93 -17 104 -46 104s-47 -11 -47 -104c0 -91 18 -103 47 -103z" />
    <glyph glyph-name="ampersand" unicode="&#x26;" horiz-adv-x="755" 
d="M757 0h-249l-21 24c-59 -26 -123 -39 -185 -39c-151 0 -285 77 -285 225c0 80 47 157 137 187l-11 13c-34 38 -51 81 -51 125c0 115 99 193 243 193c158 0 245 -84 245 -185c0 -75 -46 -146 -149 -183l85 -94c12 28 19 61 21 99h180c-3 -95 -35 -171 -82 -230zM349 574
c-36 0 -52 -21 -52 -44c0 -14 6 -28 16 -40l28 -31c42 17 61 46 61 71c0 24 -19 44 -53 44zM340 150c11 0 22 1 32 3l-119 134c-13 -18 -19 -37 -19 -56c0 -44 34 -81 106 -81z" />
    <glyph glyph-name="quotesingle" unicode="'" horiz-adv-x="307" 
d="M78 322l-38 390h227l-37 -390h-152z" />
    <glyph glyph-name="parenleft" unicode="(" horiz-adv-x="326" 
d="M132 -196c-71 169 -101 293 -101 489c0 203 30 329 101 496h189c-57 -146 -81 -302 -81 -496c0 -178 23 -330 81 -489h-189z" />
    <glyph glyph-name="parenright" unicode=")" horiz-adv-x="326" 
d="M5 -196c58 159 81 311 81 489c0 194 -24 350 -81 496h189c71 -167 101 -293 101 -496c0 -196 -30 -320 -101 -489h-189z" />
    <glyph glyph-name="asterisk" unicode="*" horiz-adv-x="448" 
d="M156 300l-99 79l72 91l-119 38l42 118l108 -35v121h128v-121l108 35l42 -118l-119 -38l72 -91l-99 -79l-68 90z" />
    <glyph glyph-name="plus" unicode="+" horiz-adv-x="528" 
d="M507 443v-172h-149v-152h-188v152h-149v172h149v151h188v-151h149z" />
    <glyph glyph-name="comma" unicode="," horiz-adv-x="299" 
d="M36 220h227v-225c0 -127 -71 -185 -196 -185h-31v106h32c42 0 65 20 65 73v11h-97v220z" />
    <glyph glyph-name="hyphen" unicode="-" horiz-adv-x="355" 
d="M21 193v172h313v-172h-313z" />
    <glyph glyph-name="period" unicode="." horiz-adv-x="299" 
d="M36 0v220h227v-220h-227z" />
    <glyph glyph-name="slash" unicode="/" horiz-adv-x="445" 
d="M-5 0l255 712h200l-255 -712h-200z" />
    <glyph glyph-name="zero" unicode="0" horiz-adv-x="717" 
d="M359 -16c-224 0 -333 136 -333 372s109 372 333 372c223 0 333 -136 333 -372s-109 -372 -333 -372zM359 164c63 0 99 46 99 192s-37 192 -99 192s-99 -46 -99 -192s37 -192 99 -192z" />
    <glyph glyph-name="one" unicode="1" horiz-adv-x="449" 
d="M409 712v-712h-226v388h-168v148h24c94 0 166 42 194 176h176z" />
    <glyph glyph-name="two" unicode="2" horiz-adv-x="686" 
d="M283 183h367v-183h-624v77c0 148 70 220 222 277l74 28c71 27 93 48 93 87c0 46 -33 69 -90 69c-60 0 -86 -27 -90 -88h-211c10 179 122 278 320 278c205 0 302 -106 302 -240c0 -129 -90 -194 -196 -233l-102 -38c-25 -9 -49 -19 -65 -34z" />
    <glyph glyph-name="three" unicode="3" horiz-adv-x="691" 
d="M526 382c90 -24 139 -86 139 -171c0 -128 -115 -227 -315 -227c-203 0 -314 99 -323 280h222c4 -70 32 -101 95 -101c58 0 87 22 87 63s-30 63 -86 63h-50v150h50c56 0 86 17 86 57c0 38 -29 56 -77 56c-55 0 -79 -24 -82 -71h-221c9 164 113 247 307 247
c185 0 289 -77 289 -195c0 -72 -46 -126 -121 -151z" />
    <glyph glyph-name="four" unicode="4" horiz-adv-x="705" 
d="M673 304v-179h-78v-125h-221v125h-337v207l334 380h224v-408h78zM381 492l-166 -188h166v188z" />
    <glyph glyph-name="five" unicode="5" horiz-adv-x="648" 
d="M375 475c180 0 250 -121 250 -231c0 -170 -137 -260 -301 -260c-154 0 -282 80 -299 230h211c10 -36 40 -61 88 -61c62 0 93 39 93 91c0 51 -31 90 -93 90c-42 0 -71 -23 -83 -46h-209l76 424h489v-184h-319l-19 -82c32 17 70 29 116 29z" />
    <glyph glyph-name="six" unicode="6" horiz-adv-x="662" 
d="M399 480c146 0 243 -99 243 -241c0 -161 -122 -255 -300 -255c-101 0 -178 31 -231 89c-57 63 -85 158 -85 279c0 244 113 376 321 376c162 0 260 -80 276 -218h-191c-11 43 -40 63 -85 63c-72 0 -107 -50 -116 -160c38 43 95 67 168 67zM342 135c57 0 91 36 91 97
s-34 97 -91 97s-90 -36 -90 -97s33 -97 90 -97z" />
    <glyph glyph-name="seven" unicode="7" horiz-adv-x="570" 
d="M15 712h540v-183c-126 -115 -192 -233 -193 -529h-234c0 218 99 423 210 528h-323v184z" />
    <glyph glyph-name="eight" unicode="8" horiz-adv-x="655" 
d="M535 372c75 -30 109 -85 109 -170c0 -130 -120 -218 -312 -218s-317 88 -317 218c0 85 35 140 112 170c-55 33 -82 85 -82 156c0 125 110 200 287 200s282 -75 282 -200c0 -71 -26 -123 -79 -156zM330 576c-55 0 -87 -26 -87 -70s32 -69 87 -69s87 25 87 69
s-32 70 -87 70zM330 151c61 0 95 26 95 75c0 48 -33 74 -95 74s-95 -26 -95 -74c0 -49 34 -75 95 -75z" />
    <glyph glyph-name="nine" unicode="9" horiz-adv-x="662" 
d="M551 639c57 -63 85 -158 85 -279c0 -244 -113 -376 -321 -376c-162 0 -260 80 -276 218h191c11 -43 40 -63 85 -63c72 0 107 50 116 160c-38 -43 -95 -67 -168 -67c-146 0 -243 99 -243 241c0 161 122 255 300 255c101 0 178 -31 231 -89zM320 383c57 0 90 36 90 97
s-33 97 -90 97s-91 -36 -91 -97s34 -97 91 -97z" />
    <glyph glyph-name="colon" unicode=":" horiz-adv-x="299" 
d="M36 308v220h227v-220h-227zM36 0v220h227v-220h-227z" />
    <glyph glyph-name="semicolon" unicode=";" horiz-adv-x="299" 
d="M36 528h227v-220h-227v220zM36 0v220h227v-225c0 -127 -71 -185 -196 -185h-31v106h32c42 0 65 20 65 73v11h-97z" />
    <glyph glyph-name="less" unicode="&#x3c;" horiz-adv-x="522" 
d="M506 434l-61 -18c-70 -21 -137 -40 -214 -60c77 -20 144 -39 214 -60l61 -18v-195l-486 173v200l486 173v-195z" />
    <glyph glyph-name="equal" unicode="=" horiz-adv-x="527" 
d="M21 383v161h486v-161h-486zM21 168v161h486v-161h-486z" />
    <glyph glyph-name="greater" unicode="&#x3e;" horiz-adv-x="522" 
d="M16 629l486 -173v-200l-486 -173v195l61 18c70 21 137 40 214 60c-77 20 -144 39 -214 60l-61 18v195z" />
    <glyph glyph-name="question" unicode="?" horiz-adv-x="574" 
d="M178 270c0 78 6 97 28 128c17 24 44 39 69 51c33 16 62 31 62 62s-14 49 -54 49c-59 0 -65 -26 -65 -73h-206c1 160 90 241 281 241c160 0 269 -70 269 -190c0 -64 -29 -125 -103 -170c-28 -17 -56 -34 -66 -43c-16 -14 -16 -28 -16 -55h-199zM164 0v220h227v-220h-227z
" />
    <glyph glyph-name="at" unicode="@" horiz-adv-x="924" 
d="M506 516h171v-248c0 -31 13 -46 35 -46c38 0 54 51 54 118c0 163 -112 260 -305 260c-188 0 -301 -109 -301 -293c0 -207 120 -309 319 -309c69 0 145 12 212 41v-122c-76 -29 -152 -37 -219 -37c-288 0 -453 167 -453 427c0 236 169 421 444 421
c264 0 442 -160 442 -384c0 -155 -83 -270 -220 -270c-78 0 -132 31 -155 84c-29 -51 -78 -75 -127 -75c-98 0 -182 64 -182 223c0 146 84 221 183 221c44 0 75 -17 102 -55v44zM456 223c40 0 52 20 52 85c0 59 -15 79 -53 79c-40 0 -53 -21 -53 -80c0 -61 14 -84 54 -84z
" />
    <glyph glyph-name="A" unicode="A" horiz-adv-x="754" 
d="M529 0l-28 93h-256l-28 -93h-226l241 712h276l255 -712h-234zM293 258h158l-49 164c-10 35 -21 71 -30 106l-30 -106z" />
    <glyph glyph-name="B" unicode="B" horiz-adv-x="709" 
d="M573 382c76 -27 122 -101 122 -172c0 -126 -81 -210 -268 -210h-387v712h380c185 0 246 -90 246 -181c0 -70 -36 -123 -93 -149zM377 538h-111v-100h111c37 0 56 18 56 50s-19 50 -56 50zM405 174c37 0 56 18 56 50s-19 50 -56 50h-139v-100h139z" />
    <glyph glyph-name="C" unicode="C" horiz-adv-x="774" 
d="M388 -18c-217 0 -369 146 -369 375c0 227 147 371 382 371c209 0 326 -115 358 -289h-233c-17 66 -65 97 -130 97c-89 0 -143 -55 -143 -179c0 -127 58 -183 146 -183c61 0 111 28 128 96h231c-29 -167 -172 -288 -370 -288z" />
    <glyph glyph-name="D" unicode="D" horiz-adv-x="744" 
d="M376 712c232 0 349 -120 349 -356s-118 -356 -352 -356h-333v712h336zM362 188c93 0 129 45 129 168s-36 168 -129 168h-96v-336h96z" />
    <glyph glyph-name="E" unicode="E" horiz-adv-x="649" 
d="M624 518h-358v-70h331v-187h-331v-67h358v-194h-584v712h584v-194z" />
    <glyph glyph-name="F" unicode="F" horiz-adv-x="623" 
d="M608 518h-342v-82h327v-187h-327v-249h-226v712h568v-194z" />
    <glyph glyph-name="G" unicode="G" horiz-adv-x="771" 
d="M396 415h345v-415h-146l-16 76c-58 -77 -148 -93 -218 -93c-220 0 -342 163 -342 375c0 216 137 370 371 370c193 0 327 -104 350 -262h-231c-18 49 -62 70 -115 70c-76 0 -141 -44 -141 -182c0 -122 51 -181 142 -181c60 0 107 23 127 85h-126v157z" />
    <glyph glyph-name="H" unicode="H" horiz-adv-x="737" 
d="M471 712h226v-712h-226v262h-205v-262h-226v712h226v-250h205v250z" />
    <glyph glyph-name="I" unicode="I" horiz-adv-x="306" 
d="M40 0v712h226v-712h-226z" />
    <glyph glyph-name="J" unicode="J" horiz-adv-x="595" 
d="M291 -16c-167 0 -274 94 -274 238v70h220v-74c0 -30 19 -49 51 -49s51 19 51 49v494h226v-490c0 -144 -106 -238 -274 -238z" />
    <glyph glyph-name="K" unicode="K" horiz-adv-x="757" 
d="M508 0l-157 267l-85 -100v-167h-226v712h226v-279l221 279h261l-249 -291l267 -421h-258z" />
    <glyph glyph-name="L" unicode="L" horiz-adv-x="587" 
d="M266 194h306v-194h-532v712h226v-518z" />
    <glyph glyph-name="M" unicode="M" horiz-adv-x="919" 
d="M531 712h348v-712h-220v202c0 97 1 182 5 272c-6 -30 -13 -61 -22 -97l-90 -377h-184l-92 377c-8 34 -15 63 -21 91c4 -88 5 -171 5 -266v-202h-220v712h348l56 -270c6 -28 11 -56 17 -85c5 29 10 57 16 85z" />
    <glyph glyph-name="N" unicode="N" horiz-adv-x="748" 
d="M488 712h220v-712h-235l-150 253c-25 42 -47 80 -67 119c3 -84 4 -165 4 -256v-116h-220v712h235l147 -253c22 -38 46 -86 69 -134c-3 89 -3 174 -3 271v116z" />
    <glyph glyph-name="O" unicode="O" horiz-adv-x="792" 
d="M396 -17c-223 0 -377 144 -377 373c0 228 155 372 377 372s377 -144 377 -372c0 -229 -155 -373 -377 -373zM396 175c84 0 143 53 143 181c0 127 -59 180 -143 180s-143 -53 -143 -180c0 -128 59 -181 143 -181z" />
    <glyph glyph-name="P" unicode="P" horiz-adv-x="683" 
d="M387 712c176 0 279 -100 279 -254s-103 -254 -279 -254h-121v-204h-226v712h347zM357 390c48 0 77 23 77 68s-29 68 -77 68h-91v-136h91z" />
    <glyph glyph-name="Q" unicode="Q" horiz-adv-x="792" 
d="M773 356c0 -105 -32 -192 -89 -255l80 -86l-100 -96l-92 100c-51 -24 -111 -36 -176 -36c-223 0 -377 144 -377 373c0 228 155 372 377 372s377 -144 377 -372zM396 175c10 0 20 1 30 2l-68 74l102 91l67 -72c8 23 12 52 12 86c0 127 -59 180 -143 180
s-143 -53 -143 -180c0 -128 59 -181 143 -181z" />
    <glyph glyph-name="R" unicode="R" horiz-adv-x="695" 
d="M666 72c3 -37 6 -54 17 -72h-231c-9 19 -13 41 -14 72l-3 71c-3 68 -24 89 -91 89h-78v-232h-226v712h351c214 0 274 -98 274 -209c0 -85 -36 -142 -107 -170c66 -25 94 -74 100 -156zM356 396c51 0 78 22 78 71s-27 71 -78 71h-90v-142h90z" />
    <glyph glyph-name="S" unicode="S" horiz-adv-x="677" 
d="M340 -17c-218 0 -321 102 -328 251h223c5 -66 46 -82 109 -82c65 0 93 16 93 49c0 31 -24 47 -101 58l-86 12c-129 18 -221 88 -221 224c0 112 59 233 303 233c186 0 300 -70 313 -235h-209c-5 43 -28 68 -96 68c-62 0 -86 -18 -86 -46s24 -42 67 -48l86 -12
c178 -25 258 -93 258 -220c0 -153 -111 -252 -325 -252z" />
    <glyph glyph-name="T" unicode="T" horiz-adv-x="650" 
d="M635 712v-194h-197v-518h-226v518h-197v194h620z" />
    <glyph glyph-name="U" unicode="U" horiz-adv-x="712" 
d="M356 -17c-210 0 -326 102 -326 279v450h226v-444c0 -56 25 -93 100 -93s100 37 100 93v444h226v-450c0 -177 -116 -279 -326 -279z" />
    <glyph glyph-name="V" unicode="V" horiz-adv-x="729" 
d="M512 712h226l-230 -712h-276l-241 712h234l78 -263c21 -71 46 -154 69 -242c22 88 44 171 65 242z" />
    <glyph glyph-name="W" unicode="W" horiz-adv-x="1011" 
d="M789 712h231l-188 -712h-242l-47 217c-14 62 -26 124 -37 185c-12 -61 -24 -123 -38 -185l-47 -217h-242l-188 712h231l40 -211c16 -84 31 -169 46 -251c14 82 31 167 47 251l42 211h217l42 -211c16 -84 33 -169 47 -251c15 82 30 167 46 251z" />
    <glyph glyph-name="X" unicode="X" horiz-adv-x="739" 
d="M493 380l255 -380h-265l-39 65l-76 129c-26 -42 -55 -87 -83 -129l-43 -65h-251l262 365l-234 347h262l39 -62c20 -31 39 -62 57 -92c19 30 37 61 57 92l39 62h244z" />
    <glyph glyph-name="Y" unicode="Y" horiz-adv-x="695" 
d="M463 712h241l-239 -441v-271h-226v271l-248 441h244l46 -90c28 -54 52 -103 74 -153c20 50 41 99 66 153z" />
    <glyph glyph-name="Z" unicode="Z" horiz-adv-x="675" 
d="M499 197h151v-197h-625v174l197 215c40 43 80 87 123 131c-59 -1 -118 -2 -177 -2h-133v194h610v-170l-204 -219c-39 -42 -80 -85 -124 -128c61 1 121 2 182 2z" />
    <glyph glyph-name="bracketleft" unicode="[" horiz-adv-x="401" 
d="M40 -196v985h346v-171h-151v-643h151v-171h-346z" />
    <glyph glyph-name="backslash" unicode="\" horiz-adv-x="445" 
d="M250 0l-255 712h200l255 -712h-200z" />
    <glyph glyph-name="bracketright" unicode="]" horiz-adv-x="401" 
d="M15 -196v171h151v643h-151v171h346v-985h-346z" />
    <glyph glyph-name="asciicircum" unicode="^" horiz-adv-x="425" 
d="M306 712l121 -278h-173l-33 102c-3 9 -6 18 -8 27l-9 -27l-33 -102h-173l121 278h187z" />
    <glyph glyph-name="underscore" unicode="_" horiz-adv-x="539" 
d="M-1 -168v145h541v-145h-541z" />
    <glyph glyph-name="grave" unicode="`" horiz-adv-x="500" 
d="M-204 559l-148 154h247l89 -154h-188z" />
    <glyph glyph-name="a" unicode="a" horiz-adv-x="613" 
d="M595 0h-209c-8 16 -14 38 -15 60c-28 -48 -84 -77 -166 -77c-109 0 -190 50 -190 159c0 90 55 146 197 160l94 9c42 4 62 12 62 39s-20 38 -58 38c-40 0 -59 -12 -62 -51h-208c5 126 82 191 273 191c186 0 263 -60 263 -165v-281c0 -29 6 -55 19 -82zM287 113
c53 0 81 28 81 84v34c-8 -12 -22 -18 -45 -21l-48 -6c-33 -4 -49 -18 -49 -45c0 -31 21 -46 61 -46z" />
    <glyph glyph-name="b" unicode="b" horiz-adv-x="635" 
d="M397 528c137 0 221 -107 221 -270s-84 -270 -221 -270c-78 0 -129 35 -159 89v-77h-202v712h208v-263c31 48 80 79 153 79zM322 149c57 0 88 38 88 110s-31 109 -88 109s-87 -37 -87 -109s30 -110 87 -110z" />
    <glyph glyph-name="c" unicode="c" horiz-adv-x="598" 
d="M303 -12c-179 0 -286 107 -286 270s108 270 290 270c173 0 270 -96 279 -220h-207c-10 43 -35 60 -76 60c-56 0 -78 -34 -78 -110c0 -80 21 -110 77 -110c44 0 69 18 79 69h205c-13 -133 -113 -229 -283 -229z" />
    <glyph glyph-name="d" unicode="d" horiz-adv-x="635" 
d="M391 712h208v-712h-202v77c-30 -54 -81 -89 -159 -89c-137 0 -221 107 -221 270s84 270 221 270c73 0 122 -31 153 -79v263zM313 148c57 0 87 37 87 109s-30 110 -87 110s-88 -38 -88 -110s31 -109 88 -109z" />
    <glyph glyph-name="e" unicode="e" horiz-adv-x="609" 
d="M592 264c0 -14 -1 -33 -4 -58h-376c3 -47 34 -79 99 -79c35 0 60 9 74 28h194c-31 -108 -135 -167 -272 -167c-180 0 -290 101 -290 268c0 163 110 272 289 272c169 0 286 -97 286 -264zM303 390c-52 0 -80 -24 -88 -76h177c-5 51 -35 76 -89 76z" />
    <glyph glyph-name="f" unicode="f" horiz-adv-x="429" 
d="M356 569c-46 0 -56 -11 -56 -53h109v-143h-109v-373h-208v373h-82v143h82v25c0 142 77 182 216 182c31 0 67 -2 101 -5v-152c-21 2 -39 3 -53 3z" />
    <glyph glyph-name="g" unicode="g" horiz-adv-x="645" 
d="M401 516h208v-493c0 -155 -106 -240 -291 -240c-173 0 -278 67 -292 207h210c5 -42 30 -61 80 -61c56 0 81 24 81 77v93c-32 -49 -85 -80 -162 -80c-134 0 -218 101 -218 255c0 153 84 254 218 254c81 0 134 -34 166 -86v74zM313 165c57 0 87 38 87 110
c0 70 -30 108 -87 108s-88 -38 -88 -108c0 -72 31 -110 88 -110z" />
    <glyph glyph-name="h" unicode="h" horiz-adv-x="615" 
d="M403 528c106 0 176 -59 176 -208v-320h-208v286c0 41 -18 68 -59 68c-34 0 -68 -19 -68 -69v-285h-208v712h208v-269c35 61 92 85 159 85z" />
    <glyph glyph-name="i" unicode="i" horiz-adv-x="280" 
d="M36 558v156h208v-156h-208zM36 0v516h208v-516h-208z" />
    <glyph glyph-name="j" unicode="j" horiz-adv-x="280" 
d="M36 558v156h208v-156h-208zM25 -206c-28 0 -45 1 -62 2v160h17c31 0 56 3 56 52v508h208v-538c0 -130 -64 -184 -219 -184z" />
    <glyph glyph-name="k" unicode="k" horiz-adv-x="633" 
d="M635 516l-201 -212l199 -304h-234l-102 171l-53 -54v-117h-208v712h208v-379l160 183h231z" />
    <glyph glyph-name="l" unicode="l" horiz-adv-x="280" 
d="M36 0v712h208v-712h-208z" />
    <glyph glyph-name="m" unicode="m" horiz-adv-x="924" 
d="M715 528c99 0 173 -59 173 -188v-340h-208v286c0 41 -16 68 -53 68c-30 0 -61 -19 -61 -69v-285h-208v286c0 41 -16 68 -53 68c-30 0 -61 -19 -61 -69v-285h-208v516h204v-88h2c35 76 94 100 158 100c65 0 122 -25 149 -87h4c40 56 89 87 162 87z" />
    <glyph glyph-name="n" unicode="n" horiz-adv-x="615" 
d="M403 528c106 0 176 -59 176 -208v-320h-208v286c0 41 -18 68 -59 68c-34 0 -68 -19 -68 -69v-285h-208v516h204v-75h3c35 63 92 87 160 87z" />
    <glyph glyph-name="o" unicode="o" horiz-adv-x="620" 
d="M310 -12c-175 0 -293 106 -293 269c0 162 118 270 293 270s293 -108 293 -270c0 -163 -118 -269 -293 -269zM310 148c47 0 85 27 85 108s-38 111 -85 111c-49 0 -85 -30 -85 -111c0 -80 36 -108 85 -108z" />
    <glyph glyph-name="p" unicode="p" horiz-adv-x="635" 
d="M397 528c137 0 221 -107 221 -270s-84 -270 -221 -270c-73 0 -122 31 -153 79v-271h-208v720h202v-77c30 54 81 89 159 89zM322 149c57 0 88 38 88 110s-31 109 -88 109s-87 -37 -87 -109s30 -110 87 -110z" />
    <glyph glyph-name="q" unicode="q" horiz-adv-x="637" 
d="M399 516h202v-720h-208v275c-31 -51 -80 -83 -155 -83c-137 0 -221 107 -221 270s84 270 221 270c80 0 131 -37 161 -93v81zM313 149c57 0 87 38 87 110s-30 109 -87 109s-88 -37 -88 -109s31 -110 88 -110z" />
    <glyph glyph-name="r" unicode="r" horiz-adv-x="436" 
d="M379 524c14 0 26 -1 37 -3v-187h-48c-81 0 -124 -40 -124 -136v-198h-208v516h204v-102c18 73 64 110 139 110z" />
    <glyph glyph-name="s" unicode="s" horiz-adv-x="548" 
d="M270 -17c-171 0 -255 64 -264 183h198c4 -36 25 -51 73 -51c41 0 63 10 63 30c0 17 -11 26 -44 31l-101 14c-118 16 -183 70 -183 165c0 115 92 173 256 173c192 0 251 -82 257 -176h-187c-3 35 -22 49 -70 49c-41 0 -59 -9 -59 -28c0 -16 11 -26 44 -31l101 -14
c135 -19 187 -76 187 -163c0 -118 -100 -182 -271 -182z" />
    <glyph glyph-name="t" unicode="t" horiz-adv-x="420" 
d="M400 373h-107v-173c0 -43 22 -46 59 -46h38v-154c-27 -3 -56 -5 -88 -5c-155 0 -217 48 -217 163v215h-75v143h75v159h208v-159h107v-143z" />
    <glyph glyph-name="u" unicode="u" horiz-adv-x="615" 
d="M371 516h208v-516h-204v75h-3c-35 -63 -92 -87 -160 -87c-106 0 -176 59 -176 208v320h208v-286c0 -41 18 -68 59 -68c34 0 68 19 68 69v285z" />
    <glyph glyph-name="v" unicode="v" horiz-adv-x="625" 
d="M413 516h214l-193 -516h-243l-193 516h222l43 -148c20 -70 36 -127 54 -199c18 72 34 129 54 199z" />
    <glyph glyph-name="w" unicode="w" horiz-adv-x="913" 
d="M693 516h222l-170 -516h-206l-50 178c-12 41 -23 82 -32 123c-10 -41 -21 -82 -33 -123l-50 -178h-206l-170 516h222l33 -141c12 -50 23 -101 34 -151c12 50 26 101 41 152l41 140h175l41 -140c15 -51 29 -102 41 -152c11 50 22 101 34 151z" />
    <glyph glyph-name="x" unicode="x" horiz-adv-x="583" 
d="M407 269l178 -269h-229l-26 44c-9 15 -23 40 -39 70c-17 -30 -31 -55 -40 -70l-26 -44h-227l181 270l-167 246h228l25 -40c9 -14 20 -32 31 -51c11 19 22 37 31 51l25 40h225z" />
    <glyph glyph-name="y" unicode="y" horiz-adv-x="623" 
d="M412 516h213l-203 -524c-65 -167 -131 -198 -292 -198c-23 0 -50 0 -91 2v160h94c44 0 63 15 63 49c0 11 -3 24 -9 39l-189 472h222l28 -94c23 -79 40 -145 66 -252c30 107 48 173 71 252z" />
    <glyph glyph-name="z" unicode="z" horiz-adv-x="523" 
d="M364 147h136v-147h-477v126l166 198l38 45h-70h-136v147h474v-112l-165 -198c-16 -20 -33 -40 -50 -60c28 1 56 1 84 1z" />
    <glyph glyph-name="braceleft" unicode="{" horiz-adv-x="404" 
d="M310 -196c-135 0 -207 58 -207 200v145c0 36 -18 60 -82 62v171c64 2 82 26 82 62v145c0 142 72 200 207 200h79v-168h-34c-47 0 -64 -17 -64 -64v-153c0 -63 -32 -103 -126 -106v-2c94 -3 126 -44 126 -107v-154c0 -47 17 -64 64 -64h34v-167h-79z" />
    <glyph glyph-name="bar" unicode="|" horiz-adv-x="249" 
d="M40 -205v1002h169v-1002h-169z" />
    <glyph glyph-name="braceright" unicode="}" horiz-adv-x="404" 
d="M15 -196v167h34c47 0 64 17 64 64v154c0 63 32 104 126 107v2c-94 3 -126 43 -126 106v153c0 47 -17 64 -64 64h-34v168h79c135 0 207 -58 207 -200v-145c0 -36 18 -60 82 -62v-171c-64 -2 -82 -26 -82 -62v-145c0 -142 -72 -200 -207 -200h-79z" />
    <glyph glyph-name="asciitilde" unicode="~" horiz-adv-x="528" 
d="M353 252c-42 0 -77 16 -105 29c-20 9 -37 15 -51 15c-25 0 -37 -9 -43 -45h-133c0 123 50 205 155 205c43 0 77 -14 104 -27c21 -10 37 -17 52 -17c26 0 38 10 42 45h134c0 -122 -50 -205 -155 -205z" />
    <glyph glyph-name="Aacute" unicode="&#xc1;" horiz-adv-x="754" 
d="M598 909l-148 -154h-188l89 154h247zM529 0l-28 93h-256l-28 -93h-226l241 712h276l255 -712h-234zM293 258h158l-49 164c-10 35 -21 71 -30 106l-30 -106z" />
    <glyph glyph-name="Abreve" unicode="&#x102;" horiz-adv-x="754" 
d="M377 748c-117 0 -186 55 -197 158h145c2 -29 19 -47 52 -47c31 0 50 18 52 47h145c-11 -103 -80 -158 -197 -158zM529 0l-28 93h-256l-28 -93h-226l241 712h276l255 -712h-234zM293 258h158l-49 164c-10 35 -21 71 -30 106l-30 -106z" />
    <glyph glyph-name="Acircumflex" unicode="&#xc2;" horiz-adv-x="754" 
d="M377 818l-45 -63h-210l130 154h250l130 -154h-210zM529 0l-28 93h-256l-28 -93h-226l241 712h276l255 -712h-234zM293 258h158l-49 164c-10 35 -21 71 -30 106l-30 -106z" />
    <glyph glyph-name="Adieresis" unicode="&#xc4;" horiz-adv-x="754" 
d="M349 909v-154h-196v154h196zM601 909v-154h-196v154h196zM529 0l-28 93h-256l-28 -93h-226l241 712h276l255 -712h-234zM293 258h158l-49 164c-10 35 -21 71 -30 106l-30 -106z" />
    <glyph glyph-name="Agrave" unicode="&#xc0;" horiz-adv-x="754" 
d="M487 755h-188l-148 154h247zM529 0l-28 93h-256l-28 -93h-226l241 712h276l255 -712h-234zM293 258h158l-49 164c-10 35 -21 71 -30 106l-30 -106z" />
    <glyph glyph-name="Amacron" unicode="&#x100;" horiz-adv-x="754" 
d="M564 892v-135h-374v135h374zM529 0l-28 93h-256l-28 -93h-226l241 712h276l255 -712h-234zM293 258h158l-49 164c-10 35 -21 71 -30 106l-30 -106z" />
    <glyph glyph-name="Aogonek" unicode="&#x104;" horiz-adv-x="754" 
d="M660 -91c0 -33 33 -38 55 -38c13 0 30 3 48 7v-98c-21 -5 -51 -9 -80 -9c-110 0 -166 45 -166 109c0 38 26 89 111 120h-99l-28 93h-256l-28 -93h-226l241 712h276l255 -712c-90 -40 -103 -70 -103 -91zM293 258h158l-49 164c-10 35 -21 71 -30 106l-30 -106z" />
    <glyph glyph-name="Aring" unicode="&#xc5;" horiz-adv-x="754" 
d="M529 0l-28 93h-256l-28 -93h-226l231 683c-16 26 -25 56 -25 90c0 100 80 170 180 170s180 -70 180 -170c0 -40 -13 -75 -34 -102l240 -671h-234zM377 835c-35 0 -63 -26 -63 -62c0 -35 28 -61 63 -61s63 26 63 61c0 36 -28 62 -63 62zM293 258h158l-49 164
c-10 35 -21 71 -30 106l-30 -106z" />
    <glyph glyph-name="Aringacute" unicode="&#x1fa;" horiz-adv-x="764" 
d="M533 0l-28 93h-256l-28 -93h-230l233 680c-17 26 -27 58 -27 93c0 61 30 111 77 141l88 153h247l-140 -146c53 -28 88 -82 88 -148c0 -35 -10 -67 -28 -93l244 -680h-240zM314 773c0 -35 28 -61 63 -61s63 26 63 61c0 36 -28 62 -63 62s-63 -26 -63 -62zM297 258h158
l-49 164c-10 35 -21 71 -30 106l-30 -106z" />
    <glyph glyph-name="Atilde" unicode="&#xc3;" horiz-adv-x="754" 
d="M317 799c-19 0 -29 -12 -30 -40h-129c0 130 61 173 124 173c36 0 69 -12 92 -22s43 -18 63 -18c19 0 29 13 30 40h129c0 -125 -61 -173 -124 -173c-35 0 -64 12 -91 23c-22 9 -44 17 -64 17zM529 0l-28 93h-256l-28 -93h-226l241 712h276l255 -712h-234zM293 258h158
l-49 164c-10 35 -21 71 -30 106l-30 -106z" />
    <glyph glyph-name="AE" unicode="&#xc6;" horiz-adv-x="1148" 
d="M1123 518h-358v-70h331v-187h-331v-67h358v-194h-584v133h-250l-60 -133h-238l345 712h787v-194zM364 298h175v249h-61z" />
    <glyph glyph-name="AEacute" unicode="&#x1fc;" horiz-adv-x="1148" 
d="M918 909l-148 -154h-188l89 154h247zM1123 518h-358v-70h331v-187h-331v-67h358v-194h-584v133h-250l-60 -133h-238l345 712h787v-194zM364 298h175v249h-61z" />
    <glyph glyph-name="Cacute" unicode="&#x106;" horiz-adv-x="774" 
d="M286 771l89 154h247l-148 -154h-188zM388 -18c-217 0 -369 146 -369 375c0 227 147 371 382 371c209 0 326 -115 358 -289h-233c-17 66 -65 97 -130 97c-89 0 -143 -55 -143 -179c0 -127 58 -183 146 -183c61 0 111 28 128 96h231c-29 -167 -172 -288 -370 -288z" />
    <glyph glyph-name="Ccaron" unicode="&#x10c;" horiz-adv-x="774" 
d="M526 771h-250l-130 153h210l45 -63l45 63h210zM399 174c61 0 111 28 128 96h231c-29 -167 -172 -288 -370 -288c-217 0 -369 146 -369 375c0 227 147 371 382 371c209 0 326 -115 358 -289h-233c-17 66 -65 97 -130 97c-89 0 -143 -55 -143 -179c0 -127 58 -183 146 -183
z" />
    <glyph glyph-name="Ccedilla" unicode="&#xc7;" horiz-adv-x="774" 
d="M399 174c61 0 111 28 128 96h231c-26 -151 -145 -264 -313 -285l-39 -45h9c78 0 122 -37 122 -93c0 -61 -52 -108 -168 -108c-36 0 -70 5 -90 8v72c17 -3 37 -5 54 -5c38 0 71 10 71 38s-24 36 -56 36c-11 0 -23 -1 -36 -3v47l43 51c-199 14 -336 157 -336 374
c0 227 147 371 382 371c209 0 326 -115 358 -289h-233c-17 66 -65 97 -130 97c-89 0 -143 -55 -143 -179c0 -127 58 -183 146 -183z" />
    <glyph glyph-name="Ccircumflex" unicode="&#x108;" horiz-adv-x="774" 
d="M401 834l-45 -63h-210l130 154h250l130 -154h-210zM399 174c61 0 111 28 128 96h231c-29 -167 -172 -288 -370 -288c-217 0 -369 146 -369 375c0 227 147 371 382 371c209 0 326 -115 358 -289h-233c-17 66 -65 97 -130 97c-89 0 -143 -55 -143 -179
c0 -127 58 -183 146 -183z" />
    <glyph glyph-name="Cdotaccent" unicode="&#x10a;" horiz-adv-x="774" 
d="M303 774v150h196v-150h-196zM388 -18c-217 0 -369 146 -369 375c0 227 147 371 382 371c209 0 326 -115 358 -289h-233c-17 66 -65 97 -130 97c-89 0 -143 -55 -143 -179c0 -127 58 -183 146 -183c61 0 111 28 128 96h231c-29 -167 -172 -288 -370 -288z" />
    <glyph glyph-name="Eth" unicode="&#xd0;" horiz-adv-x="781" 
d="M413 712c232 0 349 -120 349 -356s-118 -356 -352 -356h-333v304h-77v105h77v303h336zM399 188c93 0 129 45 129 168s-36 168 -129 168h-96v-115h127v-105h-127v-116h96z" />
    <glyph glyph-name="Dcaron" unicode="&#x10e;" horiz-adv-x="744" 
d="M501 755h-250l-130 153h210l45 -63l45 63h210zM376 712c232 0 349 -120 349 -356s-118 -356 -352 -356h-333v712h336zM362 188c93 0 129 45 129 168s-36 168 -129 168h-96v-336h96z" />
    <glyph glyph-name="Dcroat" unicode="&#x110;" horiz-adv-x="781" 
d="M413 712c232 0 349 -120 349 -356s-118 -356 -352 -356h-333v304h-77v105h77v303h336zM399 188c93 0 129 45 129 168s-36 168 -129 168h-96v-115h127v-105h-127v-116h96z" />
    <glyph glyph-name="Eacute" unicode="&#xc9;" horiz-adv-x="649" 
d="M558 909l-148 -154h-188l89 154h247zM624 518h-358v-70h331v-187h-331v-67h358v-194h-584v712h584v-194z" />
    <glyph glyph-name="Ebreve" unicode="&#x114;" horiz-adv-x="649" 
d="M337 748c-117 0 -186 55 -197 158h145c2 -29 19 -47 52 -47c31 0 50 18 52 47h145c-11 -103 -80 -158 -197 -158zM624 518h-358v-70h331v-187h-331v-67h358v-194h-584v712h584v-194z" />
    <glyph glyph-name="Ecaron" unicode="&#x11a;" horiz-adv-x="649" 
d="M462 755h-250l-130 153h210l45 -63l45 63h210zM624 518h-358v-70h331v-187h-331v-67h358v-194h-584v712h584v-194z" />
    <glyph glyph-name="Ecircumflex" unicode="&#xca;" horiz-adv-x="649" 
d="M337 818l-45 -63h-210l130 154h250l130 -154h-210zM624 518h-358v-70h331v-187h-331v-67h358v-194h-584v712h584v-194z" />
    <glyph glyph-name="Edieresis" unicode="&#xcb;" horiz-adv-x="649" 
d="M309 909v-154h-196v154h196zM561 909v-154h-196v154h196zM624 518h-358v-70h331v-187h-331v-67h358v-194h-584v712h584v-194z" />
    <glyph glyph-name="Edotaccent" unicode="&#x116;" horiz-adv-x="649" 
d="M435 908v-150h-196v150h196zM624 518h-358v-70h331v-187h-331v-67h358v-194h-584v712h584v-194z" />
    <glyph glyph-name="Egrave" unicode="&#xc8;" horiz-adv-x="649" 
d="M447 755h-188l-148 154h247zM624 518h-358v-70h331v-187h-331v-67h358v-194h-584v712h584v-194z" />
    <glyph glyph-name="Emacron" unicode="&#x112;" horiz-adv-x="649" 
d="M524 892v-135h-374v135h374zM624 518h-358v-70h331v-187h-331v-67h358v-194h-584v712h584v-194z" />
    <glyph glyph-name="Eogonek" unicode="&#x118;" horiz-adv-x="649" 
d="M624 518h-358v-70h331v-187h-331v-67h358v-194c-90 -40 -103 -70 -103 -91c0 -33 33 -38 55 -38c13 0 30 3 48 7v-98c-21 -5 -51 -9 -80 -9c-110 0 -166 45 -166 109c0 38 26 89 111 120h-449v712h584v-194z" />
    <glyph glyph-name="uni01F4" unicode="&#x1f4;" horiz-adv-x="771" 
d="M611 925l-148 -154h-188l89 154h247zM396 415h345v-415h-146l-16 76c-58 -77 -148 -93 -218 -93c-220 0 -342 163 -342 375c0 216 137 370 371 370c193 0 327 -104 350 -262h-231c-18 49 -62 70 -115 70c-76 0 -141 -44 -141 -182c0 -122 51 -181 142 -181
c60 0 107 23 127 85h-126v157z" />
    <glyph glyph-name="Gbreve" unicode="&#x11e;" horiz-adv-x="771" 
d="M390 764c-117 0 -186 55 -197 158h145c2 -29 19 -47 52 -47c31 0 50 18 52 47h145c-11 -103 -80 -158 -197 -158zM396 415h345v-415h-146l-16 76c-58 -77 -148 -93 -218 -93c-220 0 -342 163 -342 375c0 216 137 370 371 370c193 0 327 -104 350 -262h-231
c-18 49 -62 70 -115 70c-76 0 -141 -44 -141 -182c0 -122 51 -181 142 -181c60 0 107 23 127 85h-126v157z" />
    <glyph glyph-name="Gcircumflex" unicode="&#x11c;" horiz-adv-x="771" 
d="M390 834l-45 -63h-210l130 154h250l130 -154h-210zM396 415h345v-415h-146l-16 76c-58 -77 -148 -93 -218 -93c-220 0 -342 163 -342 375c0 216 137 370 371 370c193 0 327 -104 350 -262h-231c-18 49 -62 70 -115 70c-76 0 -141 -44 -141 -182c0 -122 51 -181 142 -181
c60 0 107 23 127 85h-126v157z" />
    <glyph glyph-name="uni0122" unicode="&#x122;" horiz-adv-x="771" 
d="M396 415h345v-415h-146l-16 76c-58 -77 -148 -93 -218 -93c-220 0 -342 163 -342 375c0 216 137 370 371 370c193 0 327 -104 350 -262h-231c-18 49 -62 70 -115 70c-76 0 -141 -44 -141 -182c0 -122 51 -181 142 -181c60 0 107 23 127 85h-126v157zM304 -204v131h172
v-134c0 -76 -47 -107 -137 -107h-35v63h35c25 0 40 10 40 42v5h-75z" />
    <glyph glyph-name="Gdotaccent" unicode="&#x120;" horiz-adv-x="771" 
d="M488 924v-150h-196v150h196zM396 415h345v-415h-146l-16 76c-58 -77 -148 -93 -218 -93c-220 0 -342 163 -342 375c0 216 137 370 371 370c193 0 327 -104 350 -262h-231c-18 49 -62 70 -115 70c-76 0 -141 -44 -141 -182c0 -122 51 -181 142 -181c60 0 107 23 127 85
h-126v157z" />
    <glyph glyph-name="Hbar" unicode="&#x126;" horiz-adv-x="774" 
d="M774 639v-105h-59v-534h-226v262h-205v-262h-226v534h-58v105h58v73h226v-73h205v73h226v-73h59zM489 462v72h-205v-72h205z" />
    <glyph glyph-name="Hcircumflex" unicode="&#x124;" horiz-adv-x="737" 
d="M369 818l-45 -63h-210l130 154h250l130 -154h-210zM471 712h226v-712h-226v262h-205v-262h-226v712h226v-250h205v250z" />
    <glyph glyph-name="IJ" unicode="&#x132;" horiz-adv-x="901" 
d="M40 0v712h226v-712h-226zM597 -16c-167 0 -274 94 -274 238v70h220v-74c0 -30 19 -49 51 -49s51 19 51 49v494h226v-490c0 -144 -106 -238 -274 -238z" />
    <glyph glyph-name="Iacute" unicode="&#xcd;" horiz-adv-x="306" 
d="M226 755h-188l89 154h247zM40 0v712h226v-712h-226z" />
    <glyph glyph-name="Ibreve" unicode="&#x12c;" horiz-adv-x="306" 
d="M153 748c-117 0 -186 55 -197 158h145c2 -29 19 -47 52 -47c31 0 50 18 52 47h145c-11 -103 -80 -158 -197 -158zM40 0v712h226v-712h-226z" />
    <glyph glyph-name="Icircumflex" unicode="&#xce;" horiz-adv-x="306" 
d="M153 818l-45 -63h-210l130 154h250l130 -154h-210zM40 0v712h226v-712h-226z" />
    <glyph glyph-name="Idieresis" unicode="&#xcf;" horiz-adv-x="306" 
d="M-65 755v154h190v-154h-190zM181 755v154h190v-154h-190zM40 0v712h226v-712h-226z" />
    <glyph glyph-name="Idotaccent" unicode="&#x130;" horiz-adv-x="306" 
d="M55 758v150h196v-150h-196zM40 0v712h226v-712h-226z" />
    <glyph glyph-name="Igrave" unicode="&#xcc;" horiz-adv-x="306" 
d="M75 755l-148 154h247l89 -154h-188zM40 0v712h226v-712h-226z" />
    <glyph glyph-name="Imacron" unicode="&#x12a;" horiz-adv-x="306" 
d="M-34 757v135h374v-135h-374zM40 0v712h226v-712h-226z" />
    <glyph glyph-name="Iogonek" unicode="&#x12e;" horiz-adv-x="306" 
d="M266 0c-90 -40 -103 -70 -103 -91c0 -33 33 -38 55 -38c13 0 30 3 48 7v-98c-21 -5 -51 -9 -80 -9c-110 0 -166 45 -166 109c0 38 26 89 111 120h-91v712h226v-712z" />
    <glyph glyph-name="Itilde" unicode="&#x128;" horiz-adv-x="306" 
d="M-66 759c0 130 61 173 124 173c36 0 69 -12 92 -22s43 -18 63 -18c19 0 29 13 30 40h129c0 -125 -61 -173 -124 -173c-35 0 -64 11 -91 23c-22 10 -44 17 -64 17c-19 0 -29 -12 -30 -40h-129zM40 0v712h226v-712h-226z" />
    <glyph glyph-name="Jcircumflex" unicode="&#x134;" horiz-adv-x="595" 
d="M452 818l-45 -63h-210l130 154h250l130 -154h-210zM339 218v494h226v-490c0 -144 -106 -238 -274 -238c-167 0 -274 94 -274 238v70h220v-74c0 -30 19 -49 51 -49s51 19 51 49z" />
    <glyph glyph-name="uni0136" unicode="&#x136;" horiz-adv-x="757" 
d="M499 421l267 -421h-258l-157 267l-85 -100v-167h-226v712h226v-279l221 279h261zM313 -188v131h172v-134c0 -76 -47 -107 -137 -107h-35v63h35c25 0 40 10 40 42v5h-75z" />
    <glyph glyph-name="Lacute" unicode="&#x139;" horiz-adv-x="587" 
d="M374 909l-148 -154h-188l89 154h247zM266 194h306v-194h-532v712h226v-518z" />
    <glyph glyph-name="Lcaron" unicode="&#x13d;" horiz-adv-x="587" 
d="M266 194h306v-194h-532v712h226v-518zM537 712l-87 -183h-129l24 183h192z" />
    <glyph glyph-name="uni013B" unicode="&#x13b;" horiz-adv-x="587" 
d="M266 194h306v-194h-532v712h226v-518zM238 -188v131h172v-134c0 -76 -47 -107 -137 -107h-35v63h35c25 0 40 10 40 42v5h-75z" />
    <glyph glyph-name="Ldot" unicode="&#x13f;" horiz-adv-x="587" 
d="M266 194h306v-194h-532v712h226v-518zM557 504v-220h-227v220h227z" />
    <glyph glyph-name="Lslash" unicode="&#x141;" horiz-adv-x="632" 
d="M311 194h306v-194h-532v285l-85 -34v114l85 34v313h226v-221l178 72v-114l-178 -72v-183z" />
    <glyph glyph-name="Nacute" unicode="&#x143;" horiz-adv-x="748" 
d="M595 909l-148 -154h-188l89 154h247zM488 712h220v-712h-235l-150 253c-25 42 -47 80 -67 119c3 -84 4 -165 4 -256v-116h-220v712h235l147 -253c22 -38 46 -86 69 -134c-3 89 -3 174 -3 271v116z" />
    <glyph glyph-name="Ncaron" unicode="&#x147;" horiz-adv-x="748" 
d="M499 755h-250l-130 153h210l45 -63l45 63h210zM488 712h220v-712h-235l-150 253c-25 42 -47 80 -67 119c3 -84 4 -165 4 -256v-116h-220v712h235l147 -253c22 -38 46 -86 69 -134c-3 89 -3 174 -3 271v116z" />
    <glyph glyph-name="uni0145" unicode="&#x145;" horiz-adv-x="748" 
d="M488 712h220v-712h-235l-150 253c-25 42 -47 80 -67 119c3 -84 4 -165 4 -256v-116h-220v712h235l147 -253c22 -38 46 -86 69 -134c-3 89 -3 174 -3 271v116zM288 -188v131h172v-134c0 -76 -47 -107 -137 -107h-35v63h35c25 0 40 10 40 42v5h-75z" />
    <glyph glyph-name="Eng" unicode="&#x14a;" horiz-adv-x="738" 
d="M483 712h215v-734c0 -145 -82 -184 -233 -184c-19 0 -46 1 -62 2v160c11 -1 21 -1 29 -1c43 0 51 12 51 53v11l-149 234c-31 49 -58 92 -84 138c4 -91 5 -177 5 -275v-116h-215v712h230l156 -248c19 -30 39 -66 59 -104c-2 77 -2 152 -2 236v116z" />
    <glyph glyph-name="Ntilde" unicode="&#xd1;" horiz-adv-x="748" 
d="M314 799c-19 0 -29 -12 -30 -40h-129c0 130 61 173 124 173c36 0 69 -12 92 -22s43 -18 63 -18c19 0 29 13 30 40h129c0 -125 -61 -173 -124 -173c-35 0 -64 12 -91 23c-22 9 -44 17 -64 17zM488 712h220v-712h-235l-150 253c-25 42 -47 80 -67 119c3 -84 4 -165 4 -256
v-116h-220v712h235l147 -253c22 -38 46 -86 69 -134c-3 89 -3 174 -3 271v116z" />
    <glyph glyph-name="Oacute" unicode="&#xd3;" horiz-adv-x="792" 
d="M281 755l89 154h247l-148 -154h-188zM396 -17c-223 0 -377 144 -377 373c0 228 155 372 377 372s377 -144 377 -372c0 -229 -155 -373 -377 -373zM396 175c84 0 143 53 143 181c0 127 -59 180 -143 180s-143 -53 -143 -180c0 -128 59 -181 143 -181z" />
    <glyph glyph-name="Obreve" unicode="&#x14e;" horiz-adv-x="792" 
d="M396 748c-117 0 -186 55 -197 158h145c2 -29 19 -47 52 -47c31 0 50 18 52 47h145c-11 -103 -80 -158 -197 -158zM396 -17c-223 0 -377 144 -377 373c0 228 155 372 377 372s377 -144 377 -372c0 -229 -155 -373 -377 -373zM396 175c84 0 143 53 143 181
c0 127 -59 180 -143 180s-143 -53 -143 -180c0 -128 59 -181 143 -181z" />
    <glyph glyph-name="Ocircumflex" unicode="&#xd4;" horiz-adv-x="792" 
d="M396 818l-45 -63h-210l130 154h250l130 -154h-210zM396 728c222 0 377 -144 377 -372c0 -229 -155 -373 -377 -373c-223 0 -377 144 -377 373c0 228 155 372 377 372zM396 175c84 0 143 53 143 181c0 127 -59 180 -143 180s-143 -53 -143 -180c0 -128 59 -181 143 -181z
" />
    <glyph glyph-name="Odieresis" unicode="&#xd6;" horiz-adv-x="792" 
d="M172 755v154h196v-154h-196zM424 755v154h196v-154h-196zM396 -17c-223 0 -377 144 -377 373c0 228 155 372 377 372s377 -144 377 -372c0 -229 -155 -373 -377 -373zM396 175c84 0 143 53 143 181c0 127 -59 180 -143 180s-143 -53 -143 -180c0 -128 59 -181 143 -181z
" />
    <glyph glyph-name="Ograve" unicode="&#xd2;" horiz-adv-x="792" 
d="M318 755l-148 154h247l89 -154h-188zM396 -17c-223 0 -377 144 -377 373c0 228 155 372 377 372s377 -144 377 -372c0 -229 -155 -373 -377 -373zM396 175c84 0 143 53 143 181c0 127 -59 180 -143 180s-143 -53 -143 -180c0 -128 59 -181 143 -181z" />
    <glyph glyph-name="Ohungarumlaut" unicode="&#x150;" horiz-adv-x="792" 
d="M131 755l90 154h243l-145 -154h-188zM411 755l91 154h241l-143 -154h-189zM396 -17c-223 0 -377 144 -377 373c0 228 155 372 377 372s377 -144 377 -372c0 -229 -155 -373 -377 -373zM396 175c84 0 143 53 143 181c0 127 -59 180 -143 180s-143 -53 -143 -180
c0 -128 59 -181 143 -181z" />
    <glyph glyph-name="Omacron" unicode="&#x14c;" horiz-adv-x="792" 
d="M209 757v135h374v-135h-374zM396 -17c-223 0 -377 144 -377 373c0 228 155 372 377 372s377 -144 377 -372c0 -229 -155 -373 -377 -373zM396 175c84 0 143 53 143 181c0 127 -59 180 -143 180s-143 -53 -143 -180c0 -128 59 -181 143 -181z" />
    <glyph glyph-name="Oslash" unicode="&#xd8;" horiz-adv-x="788" 
d="M687 604c54 -62 84 -147 84 -248c0 -229 -155 -373 -377 -373c-80 0 -152 19 -210 53l-80 -90l-82 73l78 88c-53 63 -83 148 -83 249c0 228 155 372 377 372c80 0 151 -19 209 -53l81 91l82 -73zM251 356c0 -27 3 -50 7 -70l207 233c-20 12 -44 17 -71 17
c-84 0 -143 -53 -143 -180zM394 175c84 0 143 53 143 181c0 27 -3 50 -7 70l-208 -234c21 -12 45 -17 72 -17z" />
    <glyph glyph-name="Oslashacute" unicode="&#x1fe;" horiz-adv-x="788" 
d="M615 909l-148 -154h-188l89 154h247zM687 604c54 -62 84 -147 84 -248c0 -229 -155 -373 -377 -373c-80 0 -152 19 -210 53l-80 -90l-82 73l78 88c-53 63 -83 148 -83 249c0 228 155 372 377 372c80 0 151 -19 209 -53l81 91l82 -73zM251 356c0 -27 3 -50 7 -70l207 233
c-20 12 -44 17 -71 17c-84 0 -143 -53 -143 -180zM394 175c84 0 143 53 143 181c0 27 -3 50 -7 70l-208 -234c21 -12 45 -17 72 -17z" />
    <glyph glyph-name="Otilde" unicode="&#xd5;" horiz-adv-x="792" 
d="M177 759c0 130 61 173 124 173c36 0 69 -12 92 -22s43 -18 63 -18c19 0 29 13 30 40h129c0 -125 -61 -173 -124 -173c-35 0 -64 12 -91 23c-22 9 -44 17 -64 17c-19 0 -29 -12 -30 -40h-129zM396 -17c-223 0 -377 144 -377 373c0 228 155 372 377 372s377 -144 377 -372
c0 -229 -155 -373 -377 -373zM396 175c84 0 143 53 143 181c0 127 -59 180 -143 180s-143 -53 -143 -180c0 -128 59 -181 143 -181z" />
    <glyph glyph-name="OE" unicode="&#x152;" horiz-adv-x="1149" 
d="M1124 518h-358v-70h331v-187h-331v-67h358v-194h-584v43c-48 -40 -110 -60 -185 -60c-202 0 -336 144 -336 373c0 228 135 372 336 372c75 0 137 -20 185 -59v43h584v-194zM396 175c84 0 143 53 143 181c0 127 -59 180 -143 180s-143 -53 -143 -180
c0 -128 59 -181 143 -181z" />
    <glyph glyph-name="Thorn" unicode="&#xde;" horiz-adv-x="683" 
d="M387 611c176 0 279 -100 279 -254s-103 -254 -279 -254h-121v-103h-226v712h226v-101h121zM367 289c48 0 77 23 77 68s-29 68 -77 68h-101v-136h101z" />
    <glyph glyph-name="Racute" unicode="&#x154;" horiz-adv-x="695" 
d="M565 909l-148 -154h-188l89 154h247zM666 72c3 -37 6 -54 17 -72h-231c-9 19 -13 41 -14 72l-3 71c-3 68 -24 89 -91 89h-78v-232h-226v712h351c214 0 274 -98 274 -209c0 -85 -36 -142 -107 -170c66 -25 94 -74 100 -156zM356 396c51 0 78 22 78 71s-27 71 -78 71h-90
v-142h90z" />
    <glyph glyph-name="Rcaron" unicode="&#x158;" horiz-adv-x="695" 
d="M469 755h-250l-130 153h210l45 -63l45 63h210zM666 72c3 -37 6 -54 17 -72h-231c-9 19 -13 41 -14 72l-3 71c-3 68 -24 89 -91 89h-78v-232h-226v712h351c214 0 274 -98 274 -209c0 -85 -36 -142 -107 -170c66 -25 94 -74 100 -156zM356 396c51 0 78 22 78 71
s-27 71 -78 71h-90v-142h90z" />
    <glyph glyph-name="uni0156" unicode="&#x156;" horiz-adv-x="695" 
d="M666 72c3 -37 6 -54 17 -72h-231c-9 19 -13 41 -14 72l-3 71c-3 68 -24 89 -91 89h-78v-232h-226v712h351c214 0 274 -98 274 -209c0 -85 -36 -142 -107 -170c66 -25 94 -74 100 -156zM356 396c51 0 78 22 78 71s-27 71 -78 71h-90v-142h90zM266 -188v131h172v-134
c0 -76 -47 -107 -137 -107h-35v63h35c25 0 40 10 40 42v5h-75z" />
    <glyph glyph-name="Sacute" unicode="&#x15a;" horiz-adv-x="677" 
d="M223 755l89 154h247l-148 -154h-188zM340 -17c-218 0 -321 102 -328 251h223c5 -66 46 -82 109 -82c65 0 93 16 93 49c0 31 -24 47 -101 58l-86 12c-129 18 -221 88 -221 224c0 112 59 233 303 233c186 0 300 -70 313 -235h-209c-5 43 -28 68 -96 68
c-62 0 -86 -18 -86 -46s24 -42 67 -48l86 -12c178 -25 258 -93 258 -220c0 -153 -111 -252 -325 -252z" />
    <glyph glyph-name="Scaron" unicode="&#x160;" horiz-adv-x="677" 
d="M463 755h-250l-130 153h210l45 -63l45 63h210zM407 455c178 -25 258 -93 258 -220c0 -153 -111 -252 -325 -252c-218 0 -321 102 -328 251h223c5 -66 46 -82 109 -82c65 0 93 16 93 49c0 31 -24 47 -101 58l-86 12c-129 18 -221 88 -221 224c0 112 59 233 303 233
c186 0 300 -70 313 -235h-209c-5 43 -28 68 -96 68c-62 0 -86 -18 -86 -46s24 -42 67 -48z" />
    <glyph glyph-name="Scedilla" unicode="&#x15e;" horiz-adv-x="677" 
d="M665 235c0 -144 -98 -240 -287 -251l-22 -26h9c78 0 122 -37 122 -93c0 -61 -52 -108 -168 -108c-36 0 -70 5 -90 8v72c17 -3 37 -5 54 -5c38 0 71 10 71 38s-24 36 -56 36c-11 0 -23 -1 -36 -3v47l29 35c-184 14 -273 112 -279 249h223c5 -66 46 -82 109 -82
c65 0 93 16 93 49c0 31 -24 47 -101 58l-86 12c-129 18 -221 88 -221 224c0 112 59 233 303 233c186 0 300 -70 313 -235h-209c-5 43 -28 68 -96 68c-62 0 -86 -18 -86 -46s24 -42 67 -48l86 -12c178 -25 258 -93 258 -220z" />
    <glyph glyph-name="Scircumflex" unicode="&#x15c;" horiz-adv-x="677" 
d="M338 818l-45 -63h-210l130 154h250l130 -154h-210zM407 455c178 -25 258 -93 258 -220c0 -153 -111 -252 -325 -252c-218 0 -321 102 -328 251h223c5 -66 46 -82 109 -82c65 0 93 16 93 49c0 31 -24 47 -101 58l-86 12c-129 18 -221 88 -221 224c0 112 59 233 303 233
c186 0 300 -70 313 -235h-209c-5 43 -28 68 -96 68c-62 0 -86 -18 -86 -46s24 -42 67 -48z" />
    <glyph glyph-name="uni0218" unicode="&#x218;" horiz-adv-x="677" 
d="M407 455c178 -25 258 -93 258 -220c0 -153 -111 -252 -325 -252c-218 0 -321 102 -328 251h223c5 -66 46 -82 109 -82c65 0 93 16 93 49c0 31 -24 47 -101 58l-86 12c-129 18 -221 88 -221 224c0 112 59 233 303 233c186 0 300 -70 313 -235h-209c-5 43 -28 68 -96 68
c-62 0 -86 -18 -86 -46s24 -42 67 -48zM252 -188v131h172v-134c0 -76 -47 -107 -137 -107h-35v63h35c25 0 40 10 40 42v5h-75z" />
    <glyph glyph-name="uni1E9E" unicode="&#x1e9e;" horiz-adv-x="760" 
d="M593 417c85 -26 153 -89 153 -200c0 -152 -120 -223 -298 -223c-30 0 -75 2 -110 6v160c29 -3 53 -4 71 -4c68 0 111 14 111 65s-43 63 -109 63c-20 0 -41 -1 -60 -3v125l122 151c-22 2 -45 3 -72 3c-117 0 -145 -56 -145 -124v-436h-226v439c0 193 133 289 368 289
c102 0 222 -10 311 -21v-146z" />
    <glyph glyph-name="uni018F" unicode="&#x18f;" horiz-adv-x="792" 
d="M391 728c227 0 382 -144 382 -372c0 -229 -155 -373 -377 -373c-223 0 -377 144 -377 373c0 19 1 39 4 61h511c-16 94 -68 130 -139 130c-49 0 -88 -18 -114 -62h-245c39 152 175 243 355 243zM395 165c68 0 120 28 137 113h-271c18 -88 70 -113 134 -113z" />
    <glyph glyph-name="Tbar" unicode="&#x166;" horiz-adv-x="650" 
d="M635 517h-197v-129h145v-105h-145v-283h-226v283h-145v105h145v129h-197v195h620v-195z" />
    <glyph glyph-name="Tcaron" unicode="&#x164;" horiz-adv-x="650" 
d="M450 755h-250l-130 153h210l45 -63l45 63h210zM635 712v-194h-197v-518h-226v518h-197v194h620z" />
    <glyph glyph-name="uni0162" unicode="&#x162;" horiz-adv-x="650" 
d="M438 0h-59l-36 -42h9c78 0 122 -37 122 -93c0 -61 -52 -108 -168 -108c-36 0 -70 5 -90 8v72c17 -3 37 -5 54 -5c38 0 71 10 71 38s-24 36 -56 36c-11 0 -23 -1 -36 -3v47l42 50h-79v518h-197v194h620v-194h-197v-518z" />
    <glyph glyph-name="uni021A" unicode="&#x21a;" horiz-adv-x="650" 
d="M635 712v-194h-197v-518h-226v518h-197v194h620zM239 -188v131h172v-134c0 -76 -47 -107 -137 -107h-35v63h35c25 0 40 10 40 42v5h-75z" />
    <glyph glyph-name="Uacute" unicode="&#xda;" horiz-adv-x="712" 
d="M241 755l89 154h247l-148 -154h-188zM356 -17c-210 0 -326 102 -326 279v450h226v-444c0 -56 25 -93 100 -93s100 37 100 93v444h226v-450c0 -177 -116 -279 -326 -279z" />
    <glyph glyph-name="Ubreve" unicode="&#x16c;" horiz-adv-x="712" 
d="M356 748c-117 0 -186 55 -197 158h145c2 -29 19 -47 52 -47c31 0 50 18 52 47h145c-11 -103 -80 -158 -197 -158zM356 -17c-210 0 -326 102 -326 279v450h226v-444c0 -56 25 -93 100 -93s100 37 100 93v444h226v-450c0 -177 -116 -279 -326 -279z" />
    <glyph glyph-name="Ucircumflex" unicode="&#xdb;" horiz-adv-x="712" 
d="M356 818l-45 -63h-210l130 154h250l130 -154h-210zM456 712h226v-450c0 -177 -116 -279 -326 -279s-326 102 -326 279v450h226v-444c0 -56 25 -93 100 -93s100 37 100 93v444z" />
    <glyph glyph-name="Udieresis" unicode="&#xdc;" horiz-adv-x="712" 
d="M132 755v154h196v-154h-196zM384 755v154h196v-154h-196zM356 -17c-210 0 -326 102 -326 279v450h226v-444c0 -56 25 -93 100 -93s100 37 100 93v444h226v-450c0 -177 -116 -279 -326 -279z" />
    <glyph glyph-name="Ugrave" unicode="&#xd9;" horiz-adv-x="712" 
d="M278 755l-148 154h247l89 -154h-188zM356 -17c-210 0 -326 102 -326 279v450h226v-444c0 -56 25 -93 100 -93s100 37 100 93v444h226v-450c0 -177 -116 -279 -326 -279z" />
    <glyph glyph-name="Uhungarumlaut" unicode="&#x170;" horiz-adv-x="712" 
d="M91 755l90 154h243l-145 -154h-188zM371 755l91 154h241l-143 -154h-189zM356 -17c-210 0 -326 102 -326 279v450h226v-444c0 -56 25 -93 100 -93s100 37 100 93v444h226v-450c0 -177 -116 -279 -326 -279z" />
    <glyph glyph-name="Umacron" unicode="&#x16a;" horiz-adv-x="712" 
d="M169 757v135h374v-135h-374zM356 -17c-210 0 -326 102 -326 279v450h226v-444c0 -56 25 -93 100 -93s100 37 100 93v444h226v-450c0 -177 -116 -279 -326 -279z" />
    <glyph glyph-name="Uogonek" unicode="&#x172;" horiz-adv-x="712" 
d="M456 712h226v-450c0 -134 -66 -225 -190 -261c-63 -33 -73 -59 -73 -77c0 -33 33 -38 55 -38c13 0 30 3 48 7v-98c-21 -5 -51 -9 -80 -9c-110 0 -166 45 -166 109c0 27 13 60 51 89c-192 9 -297 109 -297 278v450h226v-444c0 -56 25 -93 100 -93s100 37 100 93v444z" />
    <glyph glyph-name="Uring" unicode="&#x16e;" horiz-adv-x="732" 
d="M531 712h161v-450c0 -177 -116 -279 -326 -279s-326 102 -326 279v450h161c-10 21 -15 45 -15 71c0 100 80 170 180 170s180 -70 180 -170c0 -26 -5 -50 -15 -71zM366 845c-35 0 -63 -26 -63 -62c0 -35 28 -61 63 -61s63 26 63 61c0 36 -28 62 -63 62zM366 175
c75 0 100 37 100 93v373c-29 -17 -63 -27 -100 -27s-71 10 -100 27v-373c0 -56 25 -93 100 -93z" />
    <glyph glyph-name="Utilde" unicode="&#x168;" horiz-adv-x="712" 
d="M137 759c0 130 61 173 124 173c36 0 69 -12 92 -22s43 -18 63 -18c19 0 29 13 30 40h129c0 -125 -61 -173 -124 -173c-35 0 -64 12 -91 23c-22 9 -44 17 -64 17c-19 0 -29 -12 -30 -40h-129zM356 -17c-210 0 -326 102 -326 279v450h226v-444c0 -56 25 -93 100 -93
s100 37 100 93v444h226v-450c0 -177 -116 -279 -326 -279z" />
    <glyph glyph-name="Wacute" unicode="&#x1e82;" horiz-adv-x="1011" 
d="M724 909l-148 -154h-188l89 154h247zM789 712h231l-188 -712h-242l-47 217c-14 62 -26 124 -37 185c-12 -61 -24 -123 -38 -185l-47 -217h-242l-188 712h231l40 -211c16 -84 31 -169 46 -251c14 82 31 167 47 251l42 211h217l42 -211c16 -84 33 -169 47 -251
c15 82 30 167 46 251z" />
    <glyph glyph-name="Wcircumflex" unicode="&#x174;" horiz-adv-x="1011" 
d="M503 818l-45 -63h-210l130 154h250l130 -154h-210zM789 712h231l-188 -712h-242l-47 217c-14 62 -26 124 -37 185c-12 -61 -24 -123 -38 -185l-47 -217h-242l-188 712h231l40 -211c16 -84 31 -169 46 -251c14 82 31 167 47 251l42 211h217l42 -211
c16 -84 33 -169 47 -251c15 82 30 167 46 251z" />
    <glyph glyph-name="Wdieresis" unicode="&#x1e84;" horiz-adv-x="1011" 
d="M475 909v-154h-196v154h196zM727 909v-154h-196v154h196zM789 712h231l-188 -712h-242l-47 217c-14 62 -26 124 -37 185c-12 -61 -24 -123 -38 -185l-47 -217h-242l-188 712h231l40 -211c16 -84 31 -169 46 -251c14 82 31 167 47 251l42 211h217l42 -211
c16 -84 33 -169 47 -251c15 82 30 167 46 251z" />
    <glyph glyph-name="Wgrave" unicode="&#x1e80;" horiz-adv-x="1011" 
d="M613 755h-188l-148 154h247zM789 712h231l-188 -712h-242l-47 217c-14 62 -26 124 -37 185c-12 -61 -24 -123 -38 -185l-47 -217h-242l-188 712h231l40 -211c16 -84 31 -169 46 -251c14 82 31 167 47 251l42 211h217l42 -211c16 -84 33 -169 47 -251c15 82 30 167 46 251
z" />
    <glyph glyph-name="Yacute" unicode="&#xdd;" horiz-adv-x="695" 
d="M569 909l-148 -154h-188l89 154h247zM463 712h241l-239 -441v-271h-226v271l-248 441h244l46 -90c28 -54 52 -103 74 -153c20 50 41 99 66 153z" />
    <glyph glyph-name="Ycircumflex" unicode="&#x176;" horiz-adv-x="695" 
d="M348 818l-45 -63h-210l130 154h250l130 -154h-210zM463 712h241l-239 -441v-271h-226v271l-248 441h244l46 -90c28 -54 52 -103 74 -153c20 50 41 99 66 153z" />
    <glyph glyph-name="Ydieresis" unicode="&#x178;" horiz-adv-x="695" 
d="M320 909v-154h-196v154h196zM572 909v-154h-196v154h196zM463 712h241l-239 -441v-271h-226v271l-248 441h244l46 -90c28 -54 52 -103 74 -153c20 50 41 99 66 153z" />
    <glyph glyph-name="Ygrave" unicode="&#x1ef2;" horiz-adv-x="695" 
d="M458 755h-188l-148 154h247zM463 712h241l-239 -441v-271h-226v271l-248 441h244l46 -90c28 -54 52 -103 74 -153c20 50 41 99 66 153z" />
    <glyph glyph-name="Zacute" unicode="&#x179;" horiz-adv-x="675" 
d="M559 909l-148 -154h-188l89 154h247zM499 197h151v-197h-625v174l197 215c40 43 80 87 123 131c-59 -1 -118 -2 -177 -2h-133v194h610v-170l-204 -219c-39 -42 -80 -85 -124 -128c61 1 121 2 182 2z" />
    <glyph glyph-name="Zcaron" unicode="&#x17d;" horiz-adv-x="675" 
d="M463 755h-250l-130 153h210l45 -63l45 63h210zM499 197h151v-197h-625v174l197 215c40 43 80 87 123 131c-59 -1 -118 -2 -177 -2h-133v194h610v-170l-204 -219c-39 -42 -80 -85 -124 -128c61 1 121 2 182 2z" />
    <glyph glyph-name="Zdotaccent" unicode="&#x17b;" horiz-adv-x="675" 
d="M436 908v-150h-196v150h196zM499 197h151v-197h-625v174l197 215c40 43 80 87 123 131c-59 -1 -118 -2 -177 -2h-133v194h610v-170l-204 -219c-39 -42 -80 -85 -124 -128c61 1 121 2 182 2z" />
    <glyph glyph-name="Adieresis.ss01" horiz-adv-x="754" 
d="M268 746c-51 0 -93 42 -93 93c0 50 42 92 93 92c50 0 92 -42 92 -92c0 -51 -42 -93 -92 -93zM487 746c-51 0 -93 42 -93 93c0 49 43 92 93 92s92 -42 92 -92c0 -51 -42 -93 -92 -93zM529 0l-28 93h-256l-28 -93h-226l241 712h276l255 -712h-234zM293 258h158l-49 164
c-10 35 -21 71 -30 106l-30 -106z" />
    <glyph glyph-name="Cdotaccent.ss01" horiz-adv-x="774" 
d="M401 765c-57 0 -103 46 -103 102c0 55 46 101 103 101c55 0 101 -46 101 -101c0 -56 -46 -102 -101 -102zM388 -18c-217 0 -369 146 -369 375c0 227 147 371 382 371c209 0 326 -115 358 -289h-233c-17 66 -65 97 -130 97c-89 0 -143 -55 -143 -179
c0 -127 58 -183 146 -183c61 0 111 28 128 96h231c-29 -167 -172 -288 -370 -288z" />
    <glyph glyph-name="Edieresis.ss01" horiz-adv-x="649" 
d="M228 746c-51 0 -93 42 -93 93c0 50 42 92 93 92c50 0 92 -42 92 -92c0 -51 -42 -93 -92 -93zM447 746c-51 0 -93 42 -93 93c0 49 43 92 93 92s92 -42 92 -92c0 -51 -42 -93 -92 -93zM624 518h-358v-70h331v-187h-331v-67h358v-194h-584v712h584v-194z" />
    <glyph glyph-name="Edotaccent.ss01" horiz-adv-x="649" 
d="M337 749c-57 0 -103 46 -103 102c0 55 46 101 103 101c55 0 101 -46 101 -101c0 -56 -46 -102 -101 -102zM624 518h-358v-70h331v-187h-331v-67h358v-194h-584v712h584v-194z" />
    <glyph glyph-name="uni0122.ss01" horiz-adv-x="771" 
d="M396 415h345v-415h-146l-16 76c-58 -77 -148 -93 -218 -93c-220 0 -342 163 -342 375c0 216 137 370 371 370c193 0 327 -104 350 -262h-231c-18 49 -62 70 -115 70c-76 0 -141 -44 -141 -182c0 -122 51 -181 142 -181c60 0 107 23 127 85h-126v157zM385 -67
c66 0 96 -43 96 -106v-2c0 -72 -41 -139 -153 -139h-18v63h22c35 0 53 12 59 42h-8c-50 0 -82 27 -82 70c0 44 32 72 84 72z" />
    <glyph glyph-name="Gdotaccent.ss01" horiz-adv-x="771" 
d="M390 765c-57 0 -103 46 -103 102c0 55 46 101 103 101c55 0 101 -46 101 -101c0 -56 -46 -102 -101 -102zM396 415h345v-415h-146l-16 76c-58 -77 -148 -93 -218 -93c-220 0 -342 163 -342 375c0 216 137 370 371 370c193 0 327 -104 350 -262h-231
c-18 49 -62 70 -115 70c-76 0 -141 -44 -141 -182c0 -122 51 -181 142 -181c60 0 107 23 127 85h-126v157z" />
    <glyph glyph-name="Idieresis.ss01" horiz-adv-x="306" 
d="M43 746c-51 0 -93 42 -93 93c0 50 42 92 93 92c50 0 92 -42 92 -92c0 -51 -42 -93 -92 -93zM262 746c-51 0 -93 42 -93 93c0 49 43 92 93 92s92 -42 92 -92c0 -51 -42 -93 -92 -93zM39 0v712h226v-712h-226z" />
    <glyph glyph-name="Idotaccent.ss01" horiz-adv-x="306" 
d="M153 749c-56 0 -102 46 -102 102c0 55 46 101 102 101c55 0 101 -46 101 -101c0 -56 -46 -102 -101 -102zM40 0v712h226v-712h-226z" />
    <glyph glyph-name="uni0136.ss01" horiz-adv-x="757" 
d="M499 421l267 -421h-258l-157 267l-85 -100v-167h-226v712h226v-279l221 279h261zM394 -51c66 0 96 -43 96 -106v-2c0 -72 -41 -139 -153 -139h-18v63h22c35 0 53 12 59 42h-8c-50 0 -82 27 -82 70c0 44 32 72 84 72z" />
    <glyph glyph-name="uni013B.ss01" horiz-adv-x="587" 
d="M266 194h306v-194h-532v712h226v-518zM319 -51c66 0 96 -43 96 -106v-2c0 -72 -41 -139 -153 -139h-18v63h22c35 0 53 12 59 42h-8c-50 0 -82 27 -82 70c0 44 32 72 84 72z" />
    <glyph glyph-name="Ldot.ss01" horiz-adv-x="587" 
d="M266 712v-518h306v-194h-532v712h226zM447 271c-69 0 -127 54 -127 124c0 68 58 123 127 123s125 -55 125 -123c0 -70 -56 -124 -125 -124z" />
    <glyph glyph-name="uni0145.ss01" horiz-adv-x="748" 
d="M488 712h220v-712h-235l-150 253c-25 42 -47 80 -67 119c3 -84 4 -165 4 -256v-116h-220v712h235l147 -253c22 -38 46 -86 69 -134c-3 89 -3 174 -3 271v116zM369 -51c66 0 96 -43 96 -106v-2c0 -72 -41 -139 -153 -139h-18v63h22c35 0 53 12 59 42h-8
c-50 0 -82 27 -82 70c0 44 32 72 84 72z" />
    <glyph glyph-name="Odieresis.ss01" horiz-adv-x="792" 
d="M287 746c-51 0 -93 42 -93 93c0 50 42 92 93 92c50 0 92 -42 92 -92c0 -51 -42 -93 -92 -93zM506 746c-51 0 -93 42 -93 93c0 49 43 92 93 92s92 -42 92 -92c0 -51 -42 -93 -92 -93zM396 -17c-223 0 -377 144 -377 373c0 228 155 372 377 372s377 -144 377 -372
c0 -229 -155 -373 -377 -373zM396 175c84 0 143 53 143 181c0 127 -59 180 -143 180s-143 -53 -143 -180c0 -128 59 -181 143 -181z" />
    <glyph glyph-name="uni0156.ss01" horiz-adv-x="695" 
d="M666 72c3 -37 6 -54 17 -72h-231c-9 19 -13 41 -14 72l-3 71c-3 68 -24 89 -91 89h-78v-232h-226v712h351c214 0 274 -98 274 -209c0 -85 -36 -142 -107 -170c66 -25 94 -74 100 -156zM356 396c51 0 78 22 78 71s-27 71 -78 71h-90v-142h90zM347 -51c66 0 96 -43 96 -106
v-2c0 -72 -41 -139 -153 -139h-18v63h22c35 0 53 12 59 42h-8c-50 0 -82 27 -82 70c0 44 32 72 84 72z" />
    <glyph glyph-name="uni0218.ss01" horiz-adv-x="677" 
d="M407 455c178 -25 258 -93 258 -220c0 -153 -111 -252 -325 -252c-218 0 -321 102 -328 251h223c5 -66 46 -82 109 -82c65 0 93 16 93 49c0 31 -24 47 -101 58l-86 12c-129 18 -221 88 -221 224c0 112 59 233 303 233c186 0 300 -70 313 -235h-209c-5 43 -28 68 -96 68
c-62 0 -86 -18 -86 -46s24 -42 67 -48zM333 -51c66 0 96 -43 96 -106v-2c0 -72 -41 -139 -153 -139h-18v63h22c35 0 53 12 59 42h-8c-50 0 -82 27 -82 70c0 44 32 72 84 72z" />
    <glyph glyph-name="uni021A.ss01" horiz-adv-x="650" 
d="M635 712v-194h-197v-518h-226v518h-197v194h620zM320 -51c66 0 96 -43 96 -106v-2c0 -72 -41 -139 -153 -139h-18v63h22c35 0 53 12 59 42h-8c-50 0 -82 27 -82 70c0 44 32 72 84 72z" />
    <glyph glyph-name="Udieresis.ss01" horiz-adv-x="712" 
d="M247 746c-51 0 -93 42 -93 93c0 50 42 92 93 92c50 0 92 -42 92 -92c0 -51 -42 -93 -92 -93zM466 746c-51 0 -93 42 -93 93c0 49 43 92 93 92s92 -42 92 -92c0 -51 -42 -93 -92 -93zM356 -17c-210 0 -326 102 -326 279v450h226v-444c0 -56 25 -93 100 -93s100 37 100 93
v444h226v-450c0 -177 -116 -279 -326 -279z" />
    <glyph glyph-name="Wdieresis.ss01" horiz-adv-x="1011" 
d="M394 746c-51 0 -93 42 -93 93c0 50 42 92 93 92c50 0 92 -42 92 -92c0 -51 -42 -93 -92 -93zM613 746c-51 0 -93 42 -93 93c0 49 43 92 93 92s92 -42 92 -92c0 -51 -42 -93 -92 -93zM789 712h231l-188 -712h-242l-47 217c-14 62 -26 124 -37 185
c-12 -61 -24 -123 -38 -185l-47 -217h-242l-188 712h231l40 -211c16 -84 31 -169 46 -251c14 82 31 167 47 251l42 211h217l42 -211c16 -84 33 -169 47 -251c15 82 30 167 46 251z" />
    <glyph glyph-name="Ydieresis.ss01" horiz-adv-x="695" 
d="M239 746c-51 0 -93 42 -93 93c0 50 42 92 93 92c50 0 92 -42 92 -92c0 -51 -42 -93 -92 -93zM458 746c-51 0 -93 42 -93 93c0 49 43 92 93 92s92 -42 92 -92c0 -51 -42 -93 -92 -93zM463 712h241l-239 -441v-271h-226v271l-248 441h244l46 -90c28 -54 52 -103 74 -153
c20 50 41 99 66 153z" />
    <glyph glyph-name="Zdotaccent.ss01" horiz-adv-x="675" 
d="M338 749c-57 0 -103 46 -103 102c0 55 46 101 103 101c55 0 101 -46 101 -101c0 -56 -46 -102 -101 -102zM499 197h151v-197h-625v174l197 215c40 43 80 87 123 131c-59 -1 -118 -2 -177 -2h-133v194h610v-170l-204 -219c-39 -42 -80 -85 -124 -128c61 1 121 2 182 2z
" />
    <glyph glyph-name="G.ss03" horiz-adv-x="781" 
d="M756 408c4 -24 6 -48 6 -72c0 -210 -151 -354 -371 -354c-217 0 -372 146 -372 375c0 227 144 371 379 371c200 0 318 -101 355 -256h-240c-20 43 -65 64 -117 64c-89 0 -143 -55 -143 -179c0 -130 51 -186 149 -186c72 0 112 29 130 85h-132v152h356z" />
    <glyph glyph-name="uni01F4.ss03" horiz-adv-x="781" 
d="M611 925l-148 -154h-188l89 154h247zM756 408c4 -24 6 -48 6 -72c0 -210 -151 -354 -371 -354c-217 0 -372 146 -372 375c0 227 144 371 379 371c200 0 318 -101 355 -256h-240c-20 43 -65 64 -117 64c-89 0 -143 -55 -143 -179c0 -130 51 -186 149 -186
c72 0 112 29 130 85h-132v152h356z" />
    <glyph glyph-name="Gbreve.ss03" horiz-adv-x="781" 
d="M390 764c-117 0 -186 55 -197 158h145c2 -29 19 -47 52 -47c31 0 50 18 52 47h145c-11 -103 -80 -158 -197 -158zM756 408c4 -24 6 -48 6 -72c0 -210 -151 -354 -371 -354c-217 0 -372 146 -372 375c0 227 144 371 379 371c200 0 318 -101 355 -256h-240
c-20 43 -65 64 -117 64c-89 0 -143 -55 -143 -179c0 -130 51 -186 149 -186c72 0 112 29 130 85h-132v152h356z" />
    <glyph glyph-name="Gcircumflex.ss03" horiz-adv-x="781" 
d="M390 834l-45 -63h-210l130 154h250l130 -154h-210zM756 408c4 -24 6 -48 6 -72c0 -210 -151 -354 -371 -354c-217 0 -372 146 -372 375c0 227 144 371 379 371c200 0 318 -101 355 -256h-240c-20 43 -65 64 -117 64c-89 0 -143 -55 -143 -179c0 -130 51 -186 149 -186
c72 0 112 29 130 85h-132v152h356z" />
    <glyph glyph-name="uni0122.ss03" horiz-adv-x="781" 
d="M756 408c4 -24 6 -48 6 -72c0 -210 -151 -354 -371 -354c-217 0 -372 146 -372 375c0 227 144 371 379 371c200 0 318 -101 355 -256h-240c-20 43 -65 64 -117 64c-89 0 -143 -55 -143 -179c0 -130 51 -186 149 -186c72 0 112 29 130 85h-132v152h356zM304 -206v131h172
v-134c0 -76 -47 -107 -137 -107h-35v63h35c25 0 40 10 40 42v5h-75z" />
    <glyph glyph-name="Gdotaccent.ss03" horiz-adv-x="781" 
d="M488 924v-150h-196v150h196zM756 408c4 -24 6 -48 6 -72c0 -210 -151 -354 -371 -354c-217 0 -372 146 -372 375c0 227 144 371 379 371c200 0 318 -101 355 -256h-240c-20 43 -65 64 -117 64c-89 0 -143 -55 -143 -179c0 -130 51 -186 149 -186c72 0 112 29 130 85h-132
v152h356z" />
    <glyph glyph-name="uni0122.ss01.ss03" horiz-adv-x="781" 
d="M756 408c4 -24 6 -48 6 -72c0 -210 -151 -354 -371 -354c-217 0 -372 146 -372 375c0 227 144 371 379 371c200 0 318 -101 355 -256h-240c-20 43 -65 64 -117 64c-89 0 -143 -55 -143 -179c0 -130 51 -186 149 -186c72 0 112 29 130 85h-132v152h356zM385 -69
c66 0 96 -43 96 -106v-2c0 -72 -41 -139 -153 -139h-18v63h22c35 0 53 12 59 42h-8c-50 0 -82 27 -82 70c0 44 32 72 84 72z" />
    <glyph glyph-name="Gdotaccent.ss01.ss03" horiz-adv-x="781" 
d="M390 765c-57 0 -103 46 -103 102c0 55 46 101 103 101c55 0 101 -46 101 -101c0 -56 -46 -102 -101 -102zM756 408c4 -24 6 -48 6 -72c0 -210 -151 -354 -371 -354c-217 0 -372 146 -372 375c0 227 144 371 379 371c200 0 318 -101 355 -256h-240c-20 43 -65 64 -117 64
c-89 0 -143 -55 -143 -179c0 -130 51 -186 149 -186c72 0 112 29 130 85h-132v152h356z" />
    <glyph glyph-name="R.ss04" horiz-adv-x="695" 
d="M456 0l-110 204h-80v-204h-226v712h332c177 0 294 -90 294 -247c0 -102 -50 -176 -114 -216l147 -249h-243zM266 526v-136h106c46 0 72 28 72 68s-26 68 -72 68h-106z" />
    <glyph glyph-name="Racute.ss04" horiz-adv-x="695" 
d="M587 909l-148 -154h-188l89 154h247zM456 0l-110 204h-80v-204h-226v712h332c177 0 294 -90 294 -247c0 -102 -50 -176 -114 -216l147 -249h-243zM266 526v-136h106c46 0 72 28 72 68s-26 68 -72 68h-106z" />
    <glyph glyph-name="Rcaron.ss04" horiz-adv-x="695" 
d="M491 755h-250l-130 153h210l45 -63l45 63h210zM456 0l-110 204h-80v-204h-226v712h332c177 0 294 -90 294 -247c0 -102 -50 -176 -114 -216l147 -249h-243zM266 526v-136h106c46 0 72 28 72 68s-26 68 -72 68h-106z" />
    <glyph glyph-name="uni0156.ss04" horiz-adv-x="695" 
d="M346 204h-80v-204h-226v712h332c177 0 294 -90 294 -247c0 -102 -50 -176 -114 -216l147 -249h-243zM372 526h-106v-136h106c46 0 72 28 72 68s-26 68 -72 68zM291 -188v131h172v-134c0 -76 -47 -107 -137 -107h-35v63h35c25 0 40 10 40 42v5h-75z" />
    <glyph glyph-name="uni0156.ss01.ss04" horiz-adv-x="695" 
d="M346 204h-80v-204h-226v712h332c177 0 294 -90 294 -247c0 -102 -50 -176 -114 -216l147 -249h-243zM372 526h-106v-136h106c46 0 72 28 72 68s-26 68 -72 68zM372 -51c66 0 96 -43 96 -106v-2c0 -72 -41 -139 -153 -139h-18v63h22c35 0 53 12 59 42h-8
c-50 0 -82 27 -82 70c0 44 32 72 84 72z" />
    <glyph glyph-name="aacute" unicode="&#xe1;" horiz-adv-x="613" 
d="M528 713l-148 -154h-188l89 154h247zM595 0h-209c-8 16 -14 38 -15 60c-28 -48 -84 -77 -166 -77c-109 0 -190 50 -190 159c0 90 55 146 197 160l94 9c42 4 62 12 62 39s-20 38 -58 38c-40 0 -59 -12 -62 -51h-208c5 126 82 191 273 191c186 0 263 -60 263 -165v-281
c0 -29 6 -55 19 -82zM287 113c53 0 81 28 81 84v34c-8 -12 -22 -18 -45 -21l-48 -6c-33 -4 -49 -18 -49 -45c0 -31 21 -46 61 -46z" />
    <glyph glyph-name="abreve" unicode="&#x103;" horiz-adv-x="613" 
d="M307 552c-117 0 -186 55 -197 158h145c2 -29 19 -47 52 -47c31 0 50 18 52 47h145c-11 -103 -80 -158 -197 -158zM595 0h-209c-8 16 -14 38 -15 60c-28 -48 -84 -77 -166 -77c-109 0 -190 50 -190 159c0 90 55 146 197 160l94 9c42 4 62 12 62 39s-20 38 -58 38
c-40 0 -59 -12 -62 -51h-208c5 126 82 191 273 191c186 0 263 -60 263 -165v-281c0 -29 6 -55 19 -82zM287 113c53 0 81 28 81 84v34c-8 -12 -22 -18 -45 -21l-48 -6c-33 -4 -49 -18 -49 -45c0 -31 21 -46 61 -46z" />
    <glyph glyph-name="acircumflex" unicode="&#xe2;" horiz-adv-x="613" 
d="M307 622l-45 -63h-210l130 153h250l130 -153h-210zM595 0h-209c-8 16 -14 38 -15 60c-28 -48 -84 -77 -166 -77c-109 0 -190 50 -190 159c0 90 55 146 197 160l94 9c42 4 62 12 62 39s-20 38 -58 38c-40 0 -59 -12 -62 -51h-208c5 126 82 191 273 191
c186 0 263 -60 263 -165v-281c0 -29 6 -55 19 -82zM287 113c53 0 81 28 81 84v34c-8 -12 -22 -18 -45 -21l-48 -6c-33 -4 -49 -18 -49 -45c0 -31 21 -46 61 -46z" />
    <glyph glyph-name="adieresis" unicode="&#xe4;" horiz-adv-x="613" 
d="M279 714v-156h-196v156h196zM531 714v-156h-196v156h196zM595 0h-209c-8 16 -14 38 -15 60c-28 -48 -84 -77 -166 -77c-109 0 -190 50 -190 159c0 90 55 146 197 160l94 9c42 4 62 12 62 39s-20 38 -58 38c-40 0 -59 -12 -62 -51h-208c5 126 82 191 273 191
c186 0 263 -60 263 -165v-281c0 -29 6 -55 19 -82zM287 113c53 0 81 28 81 84v34c-8 -12 -22 -18 -45 -21l-48 -6c-33 -4 -49 -18 -49 -45c0 -31 21 -46 61 -46z" />
    <glyph glyph-name="agrave" unicode="&#xe0;" horiz-adv-x="613" 
d="M427 559h-188l-148 154h247zM595 0h-209c-8 16 -14 38 -15 60c-28 -48 -84 -77 -166 -77c-109 0 -190 50 -190 159c0 90 55 146 197 160l94 9c42 4 62 12 62 39s-20 38 -58 38c-40 0 -59 -12 -62 -51h-208c5 126 82 191 273 191c186 0 263 -60 263 -165v-281
c0 -29 6 -55 19 -82zM287 113c53 0 81 28 81 84v34c-8 -12 -22 -18 -45 -21l-48 -6c-33 -4 -49 -18 -49 -45c0 -31 21 -46 61 -46z" />
    <glyph glyph-name="amacron" unicode="&#x101;" horiz-adv-x="613" 
d="M494 696v-135h-374v135h374zM595 0h-209c-8 16 -14 38 -15 60c-28 -48 -84 -77 -166 -77c-109 0 -190 50 -190 159c0 90 55 146 197 160l94 9c42 4 62 12 62 39s-20 38 -58 38c-40 0 -59 -12 -62 -51h-208c5 126 82 191 273 191c186 0 263 -60 263 -165v-281
c0 -29 6 -55 19 -82zM287 113c53 0 81 28 81 84v34c-8 -12 -22 -18 -45 -21l-48 -6c-33 -4 -49 -18 -49 -45c0 -31 21 -46 61 -46z" />
    <glyph glyph-name="aogonek" unicode="&#x105;" horiz-adv-x="613" 
d="M492 -91c0 -33 33 -38 55 -38c13 0 30 3 48 7v-98c-21 -5 -51 -9 -80 -9c-110 0 -166 45 -166 109c0 38 26 89 111 120h-74c-8 16 -14 38 -15 60c-28 -48 -84 -77 -166 -77c-109 0 -190 50 -190 159c0 90 55 146 197 160l94 9c42 4 62 12 62 39s-20 38 -58 38
c-40 0 -59 -12 -62 -51h-208c5 126 82 191 273 191c186 0 263 -60 263 -165v-281c0 -29 6 -55 19 -82c-90 -40 -103 -70 -103 -91zM287 113c53 0 81 28 81 84v34c-8 -12 -22 -18 -45 -21l-48 -6c-33 -4 -49 -18 -49 -45c0 -31 21 -46 61 -46z" />
    <glyph glyph-name="aring" unicode="&#xe5;" horiz-adv-x="613" 
d="M307 547c-100 0 -180 69 -180 169s80 170 180 170s180 -70 180 -170s-80 -169 -180 -169zM307 778c-35 0 -63 -26 -63 -62c0 -35 28 -61 63 -61s63 26 63 61c0 36 -28 62 -63 62zM595 0h-209c-8 16 -14 38 -15 60c-28 -48 -84 -77 -166 -77c-109 0 -190 50 -190 159
c0 90 55 146 197 160l94 9c42 4 62 12 62 39s-20 38 -58 38c-40 0 -59 -12 -62 -51h-208c5 126 82 191 273 191c186 0 263 -60 263 -165v-281c0 -29 6 -55 19 -82zM287 113c53 0 81 28 81 84v34c-8 -12 -22 -18 -45 -21l-48 -6c-33 -4 -49 -18 -49 -45c0 -31 21 -46 61 -46z
" />
    <glyph glyph-name="aringacute" unicode="&#x1fb;" horiz-adv-x="613" 
d="M528 1068l-148 -154h-188l89 154h247zM307 547c-100 0 -180 69 -180 169s80 170 180 170s180 -70 180 -170s-80 -169 -180 -169zM307 778c-35 0 -63 -26 -63 -62c0 -35 28 -61 63 -61s63 26 63 61c0 36 -28 62 -63 62zM595 0h-209c-8 16 -14 38 -15 60
c-28 -48 -84 -77 -166 -77c-109 0 -190 50 -190 159c0 90 55 146 197 160l94 9c42 4 62 12 62 39s-20 38 -58 38c-40 0 -59 -12 -62 -51h-208c5 126 82 191 273 191c186 0 263 -60 263 -165v-281c0 -29 6 -55 19 -82zM287 113c53 0 81 28 81 84v34c-8 -12 -22 -18 -45 -21
l-48 -6c-33 -4 -49 -18 -49 -45c0 -31 21 -46 61 -46z" />
    <glyph glyph-name="atilde" unicode="&#xe3;" horiz-adv-x="613" 
d="M247 598c-19 0 -29 -12 -30 -40h-129c0 130 61 173 124 173c36 0 69 -12 92 -22s43 -18 63 -18c19 0 29 13 30 40h129c0 -125 -61 -173 -124 -173c-35 0 -64 11 -91 23c-22 10 -44 17 -64 17zM595 0h-209c-8 16 -14 38 -15 60c-28 -48 -84 -77 -166 -77
c-109 0 -190 50 -190 159c0 90 55 146 197 160l94 9c42 4 62 12 62 39s-20 38 -58 38c-40 0 -59 -12 -62 -51h-208c5 126 82 191 273 191c186 0 263 -60 263 -165v-281c0 -29 6 -55 19 -82zM287 113c53 0 81 28 81 84v34c-8 -12 -22 -18 -45 -21l-48 -6
c-33 -4 -49 -18 -49 -45c0 -31 21 -46 61 -46z" />
    <glyph glyph-name="ae" unicode="&#xe6;" horiz-adv-x="960" 
d="M943 264c0 -14 -1 -33 -4 -58h-376c3 -47 40 -79 99 -79c32 0 57 9 74 28h194c-34 -108 -146 -167 -278 -167c-84 0 -153 24 -203 68c-68 -64 -152 -73 -213 -73c-160 0 -221 62 -221 159c0 92 55 146 197 160l94 9c42 4 62 12 62 39s-20 38 -58 38
c-40 0 -59 -12 -62 -51h-205c5 126 85 191 261 191c86 0 141 -16 179 -45c46 29 105 45 174 45c169 0 286 -97 286 -264zM654 390c-52 0 -80 -24 -88 -76h177c-5 51 -35 76 -89 76zM287 113c53 0 81 28 81 84v34c-8 -12 -22 -18 -45 -21l-48 -6c-33 -4 -49 -18 -49 -45
c0 -31 21 -46 61 -46z" />
    <glyph glyph-name="aeacute" unicode="&#x1fd;" horiz-adv-x="960" 
d="M697 713l-148 -154h-188l89 154h247zM943 264c0 -14 -1 -33 -4 -58h-376c3 -47 40 -79 99 -79c32 0 57 9 74 28h194c-34 -108 -146 -167 -278 -167c-84 0 -153 24 -203 68c-68 -64 -152 -73 -213 -73c-160 0 -221 62 -221 159c0 92 55 146 197 160l94 9c42 4 62 12 62 39
s-20 38 -58 38c-40 0 -59 -12 -62 -51h-205c5 126 85 191 261 191c86 0 141 -16 179 -45c46 29 105 45 174 45c169 0 286 -97 286 -264zM654 390c-52 0 -80 -24 -88 -76h177c-5 51 -35 76 -89 76zM287 113c53 0 81 28 81 84v34c-8 -12 -22 -18 -45 -21l-48 -6
c-33 -4 -49 -18 -49 -45c0 -31 21 -46 61 -46z" />
    <glyph glyph-name="cacute" unicode="&#x107;" horiz-adv-x="598" 
d="M192 559l89 154h247l-148 -154h-188zM303 -12c-179 0 -286 107 -286 270s108 270 290 270c173 0 270 -96 279 -220h-207c-10 43 -35 60 -76 60c-56 0 -78 -34 -78 -110c0 -80 21 -110 77 -110c44 0 69 18 79 69h205c-13 -133 -113 -229 -283 -229z" />
    <glyph glyph-name="ccaron" unicode="&#x10d;" horiz-adv-x="598" 
d="M432 559h-250l-130 153h210l45 -63l45 63h210zM302 148c44 0 69 18 79 69h205c-13 -133 -113 -229 -283 -229c-179 0 -286 107 -286 270s108 270 290 270c173 0 270 -96 279 -220h-207c-10 43 -35 60 -76 60c-56 0 -78 -34 -78 -110c0 -80 21 -110 77 -110z" />
    <glyph glyph-name="ccedilla" unicode="&#xe7;" horiz-adv-x="598" 
d="M302 148c44 0 69 18 79 69h205c-11 -117 -90 -205 -225 -225l-39 -46h9c78 0 122 -37 122 -93c0 -61 -52 -108 -168 -108c-36 0 -70 5 -90 8v72c17 -3 37 -5 54 -5c38 0 71 10 71 38s-24 36 -56 36c-11 0 -23 -1 -36 -3v47l43 51c-160 12 -254 116 -254 269
c0 163 108 270 290 270c173 0 270 -96 279 -220h-207c-10 43 -35 60 -76 60c-56 0 -78 -34 -78 -110c0 -80 21 -110 77 -110z" />
    <glyph glyph-name="ccircumflex" unicode="&#x109;" horiz-adv-x="598" 
d="M307 622l-45 -63h-210l130 153h250l130 -153h-210zM302 148c44 0 69 18 79 69h205c-13 -133 -113 -229 -283 -229c-179 0 -286 107 -286 270s108 270 290 270c173 0 270 -96 279 -220h-207c-10 43 -35 60 -76 60c-56 0 -78 -34 -78 -110c0 -80 21 -110 77 -110z" />
    <glyph glyph-name="cdotaccent" unicode="&#x10b;" horiz-adv-x="598" 
d="M203 558v156h208v-156h-208zM303 -12c-179 0 -286 107 -286 270s108 270 290 270c173 0 270 -96 279 -220h-207c-10 43 -35 60 -76 60c-56 0 -78 -34 -78 -110c0 -80 21 -110 77 -110c44 0 69 18 79 69h205c-13 -133 -113 -229 -283 -229z" />
    <glyph glyph-name="eth" unicode="&#xf0;" horiz-adv-x="622" 
d="M466 602c92 -103 139 -209 139 -330c0 -179 -105 -284 -294 -284c-182 0 -294 104 -294 262c0 167 125 255 264 255c30 0 56 -3 80 -10c-16 22 -35 45 -54 66l-185 -48v100l103 27l-83 72h208l36 -31l161 42v-100zM311 143c48 0 86 27 86 104c0 81 -38 111 -86 111
c-50 0 -86 -30 -86 -111c0 -76 36 -104 86 -104z" />
    <glyph glyph-name="dcaron" unicode="&#x10f;" horiz-adv-x="843" 
d="M391 449v263h208v-712h-202v77c-30 -54 -81 -89 -159 -89c-137 0 -221 107 -221 270s84 270 221 270c73 0 122 -31 153 -79zM661 712h192l-87 -183h-129zM313 148c57 0 87 37 87 109s-30 110 -87 110s-88 -38 -88 -110s31 -109 88 -109z" />
    <glyph glyph-name="dcroat" unicode="&#x111;" horiz-adv-x="681" 
d="M681 672v-105h-82v-567h-202v77c-30 -54 -81 -89 -159 -89c-137 0 -221 107 -221 270s84 270 221 270c73 0 122 -31 153 -79v118h-117v105h117v40h208v-40h82zM313 148c57 0 87 37 87 109s-30 110 -87 110s-88 -38 -88 -110s31 -109 88 -109z" />
    <glyph glyph-name="eacute" unicode="&#xe9;" horiz-adv-x="609" 
d="M526 713l-148 -154h-188l89 154h247zM592 264c0 -14 -1 -33 -4 -58h-376c3 -47 34 -79 99 -79c35 0 60 9 74 28h194c-31 -108 -135 -167 -272 -167c-180 0 -290 101 -290 268c0 163 110 272 289 272c169 0 286 -97 286 -264zM303 390c-52 0 -80 -24 -88 -76h177
c-5 51 -35 76 -89 76z" />
    <glyph glyph-name="ebreve" unicode="&#x115;" horiz-adv-x="609" 
d="M305 552c-117 0 -186 55 -197 158h145c2 -29 19 -47 52 -47c31 0 50 18 52 47h145c-11 -103 -80 -158 -197 -158zM592 264c0 -14 -1 -33 -4 -58h-376c3 -47 34 -79 99 -79c35 0 60 9 74 28h194c-31 -108 -135 -167 -272 -167c-180 0 -290 101 -290 268
c0 163 110 272 289 272c169 0 286 -97 286 -264zM303 390c-52 0 -80 -24 -88 -76h177c-5 51 -35 76 -89 76z" />
    <glyph glyph-name="ecaron" unicode="&#x11b;" horiz-adv-x="609" 
d="M430 559h-250l-130 153h210l45 -63l45 63h210zM592 264c0 -14 -1 -33 -4 -58h-376c3 -47 34 -79 99 -79c35 0 60 9 74 28h194c-31 -108 -135 -167 -272 -167c-180 0 -290 101 -290 268c0 163 110 272 289 272c169 0 286 -97 286 -264zM303 390c-52 0 -80 -24 -88 -76h177
c-5 51 -35 76 -89 76z" />
    <glyph glyph-name="ecircumflex" unicode="&#xea;" horiz-adv-x="609" 
d="M305 622l-45 -63h-210l130 153h250l130 -153h-210zM592 264c0 -14 -1 -33 -4 -58h-376c3 -47 34 -79 99 -79c35 0 60 9 74 28h194c-31 -108 -135 -167 -272 -167c-180 0 -290 101 -290 268c0 163 110 272 289 272c169 0 286 -97 286 -264zM303 390c-52 0 -80 -24 -88 -76
h177c-5 51 -35 76 -89 76z" />
    <glyph glyph-name="edieresis" unicode="&#xeb;" horiz-adv-x="609" 
d="M277 714v-156h-196v156h196zM529 714v-156h-196v156h196zM592 264c0 -14 -1 -33 -4 -58h-376c3 -47 34 -79 99 -79c35 0 60 9 74 28h194c-31 -108 -135 -167 -272 -167c-180 0 -290 101 -290 268c0 163 110 272 289 272c169 0 286 -97 286 -264zM303 390
c-52 0 -80 -24 -88 -76h177c-5 51 -35 76 -89 76z" />
    <glyph glyph-name="edotaccent" unicode="&#x117;" horiz-adv-x="609" 
d="M409 714v-156h-208v156h208zM592 264c0 -14 -1 -33 -4 -58h-376c3 -47 34 -79 99 -79c35 0 60 9 74 28h194c-31 -108 -135 -167 -272 -167c-180 0 -290 101 -290 268c0 163 110 272 289 272c169 0 286 -97 286 -264zM303 390c-52 0 -80 -24 -88 -76h177
c-5 51 -35 76 -89 76z" />
    <glyph glyph-name="egrave" unicode="&#xe8;" horiz-adv-x="609" 
d="M425 559h-188l-148 154h247zM592 264c0 -14 -1 -33 -4 -58h-376c3 -47 34 -79 99 -79c35 0 60 9 74 28h194c-31 -108 -135 -167 -272 -167c-180 0 -290 101 -290 268c0 163 110 272 289 272c169 0 286 -97 286 -264zM303 390c-52 0 -80 -24 -88 -76h177
c-5 51 -35 76 -89 76z" />
    <glyph glyph-name="emacron" unicode="&#x113;" horiz-adv-x="609" 
d="M492 696v-135h-374v135h374zM592 264c0 -14 -1 -33 -4 -58h-376c3 -47 34 -79 99 -79c35 0 60 9 74 28h194c-31 -108 -135 -167 -272 -167c-180 0 -290 101 -290 268c0 163 110 272 289 272c169 0 286 -97 286 -264zM303 390c-52 0 -80 -24 -88 -76h177
c-5 51 -35 76 -89 76z" />
    <glyph glyph-name="eogonek" unicode="&#x119;" horiz-adv-x="609" 
d="M592 264c0 -14 -1 -33 -4 -58h-376c3 -47 34 -79 99 -79c35 0 60 9 74 28h194c-24 -85 -95 -140 -190 -159c-82 -38 -94 -67 -94 -87c0 -33 33 -38 55 -38c13 0 30 3 48 7v-98c-21 -5 -51 -9 -80 -9c-110 0 -166 45 -166 109c0 35 22 81 92 112
c-142 22 -227 117 -227 264c0 163 110 272 289 272c169 0 286 -97 286 -264zM303 390c-52 0 -80 -24 -88 -76h177c-5 51 -35 76 -89 76z" />
    <glyph glyph-name="uni0259" unicode="&#x259;" horiz-adv-x="609" 
d="M308 528c171 0 284 -101 284 -268c0 -163 -110 -272 -289 -272c-169 0 -286 97 -286 264c0 14 1 33 4 58h376c-3 47 -40 79 -99 79c-32 0 -57 -9 -74 -28h-194c34 108 146 167 278 167zM306 126c52 0 80 24 88 76h-177c5 -51 35 -76 89 -76z" />
    <glyph glyph-name="uni01F5" unicode="&#x1f5;" horiz-adv-x="645" 
d="M551 713l-148 -154h-188l89 154h247zM401 516h208v-493c0 -155 -106 -240 -291 -240c-173 0 -278 67 -292 207h210c5 -42 30 -61 80 -61c56 0 81 24 81 77v93c-32 -49 -85 -80 -162 -80c-134 0 -218 101 -218 255c0 153 84 254 218 254c81 0 134 -34 166 -86v74zM313 165
c57 0 87 38 87 110c0 70 -30 108 -87 108s-88 -38 -88 -108c0 -72 31 -110 88 -110z" />
    <glyph glyph-name="gbreve" unicode="&#x11f;" horiz-adv-x="645" 
d="M330 552c-117 0 -186 55 -197 158h145c2 -29 19 -47 52 -47c31 0 50 18 52 47h145c-11 -103 -80 -158 -197 -158zM401 516h208v-493c0 -155 -106 -240 -291 -240c-173 0 -278 67 -292 207h210c5 -42 30 -61 80 -61c56 0 81 24 81 77v93c-32 -49 -85 -80 -162 -80
c-134 0 -218 101 -218 255c0 153 84 254 218 254c81 0 134 -34 166 -86v74zM313 165c57 0 87 38 87 110c0 70 -30 108 -87 108s-88 -38 -88 -108c0 -72 31 -110 88 -110z" />
    <glyph glyph-name="gcircumflex" unicode="&#x11d;" horiz-adv-x="645" 
d="M330 622l-45 -63h-210l130 153h250l130 -153h-210zM401 516h208v-493c0 -155 -106 -240 -291 -240c-173 0 -278 67 -292 207h210c5 -42 30 -61 80 -61c56 0 81 24 81 77v93c-32 -49 -85 -80 -162 -80c-134 0 -218 101 -218 255c0 153 84 254 218 254
c81 0 134 -34 166 -86v74zM313 165c57 0 87 38 87 110c0 70 -30 108 -87 108s-88 -38 -88 -108c0 -72 31 -110 88 -110z" />
    <glyph glyph-name="uni0123" unicode="&#x123;" horiz-adv-x="645" 
d="M416 689v-131h-172v134c0 76 47 107 137 107h35v-63h-35c-25 0 -40 -10 -40 -42v-5h75zM401 516h208v-493c0 -155 -106 -240 -291 -240c-173 0 -278 67 -292 207h210c5 -42 30 -61 80 -61c56 0 81 24 81 77v93c-32 -49 -85 -80 -162 -80c-134 0 -218 101 -218 255
c0 153 84 254 218 254c81 0 134 -34 166 -86v74zM313 165c57 0 87 38 87 110c0 70 -30 108 -87 108s-88 -38 -88 -108c0 -72 31 -110 88 -110z" />
    <glyph glyph-name="gdotaccent" unicode="&#x121;" horiz-adv-x="645" 
d="M434 714v-156h-208v156h208zM401 516h208v-493c0 -155 -106 -240 -291 -240c-173 0 -278 67 -292 207h210c5 -42 30 -61 80 -61c56 0 81 24 81 77v93c-32 -49 -85 -80 -162 -80c-134 0 -218 101 -218 255c0 153 84 254 218 254c81 0 134 -34 166 -86v74zM313 165
c57 0 87 38 87 110c0 70 -30 108 -87 108s-88 -38 -88 -108c0 -72 31 -110 88 -110z" />
    <glyph glyph-name="hbar" unicode="&#x127;" horiz-adv-x="673" 
d="M461 528c106 0 176 -59 176 -208v-320h-208v286c0 41 -18 68 -59 68c-34 0 -68 -19 -68 -69v-285h-208v567h-94v105h94v40h208v-40h128v-105h-128v-124c35 61 92 85 159 85z" />
    <glyph glyph-name="hcircumflex" unicode="&#x125;" horiz-adv-x="615" 
d="M140 818l-45 -63h-210l130 154h250l130 -154h-210zM403 528c106 0 176 -59 176 -208v-320h-208v286c0 41 -18 68 -59 68c-34 0 -68 -19 -68 -69v-285h-208v712h208v-269c35 61 92 85 159 85z" />
    <glyph glyph-name="dotlessi" unicode="&#x131;" horiz-adv-x="280" 
d="M36 0v516h208v-516h-208z" />
    <glyph glyph-name="iacute" unicode="&#xed;" horiz-adv-x="280" 
d="M35 559l89 154h247l-148 -154h-188zM36 0v516h208v-516h-208z" />
    <glyph glyph-name="ibreve" unicode="&#x12d;" horiz-adv-x="280" 
d="M140 552c-117 0 -186 55 -197 158h145c2 -29 19 -47 52 -47c31 0 50 18 52 47h145c-11 -103 -80 -158 -197 -158zM36 0v516h208v-516h-208z" />
    <glyph glyph-name="icircumflex" unicode="&#xee;" horiz-adv-x="280" 
d="M140 628l-45 -69h-200l120 163h250l120 -163h-200zM36 0v516h208v-516h-208z" />
    <glyph glyph-name="idieresis" unicode="&#xef;" horiz-adv-x="280" 
d="M-78 558v156h190v-156h-190zM168 558v156h190v-156h-190zM36 0v516h208v-516h-208z" />
    <glyph glyph-name="i.loclTRK" horiz-adv-x="280" 
d="M36 558v156h208v-156h-208zM36 0v516h208v-516h-208z" />
    <glyph glyph-name="igrave" unicode="&#xec;" horiz-adv-x="280" 
d="M72 559l-148 154h247l89 -154h-188zM36 0v516h208v-516h-208z" />
    <glyph glyph-name="ij" unicode="&#x133;" horiz-adv-x="560" 
d="M36 558v156h208v-156h-208zM316 558v156h208v-156h-208zM36 0v516h208v-516h-208zM305 -206c-28 0 -45 1 -62 2v160h17c31 0 56 3 56 52v508h208v-538c0 -130 -64 -184 -219 -184z" />
    <glyph glyph-name="imacron" unicode="&#x12b;" horiz-adv-x="280" 
d="M-47 561v135h374v-135h-374zM36 0v516h208v-516h-208z" />
    <glyph glyph-name="iogonek" unicode="&#x12f;" horiz-adv-x="280" 
d="M36 714h208v-156h-208v156zM36 0v516h208v-516c-90 -40 -103 -70 -103 -91c0 -33 33 -38 55 -38c13 0 30 3 48 7v-98c-21 -5 -51 -9 -80 -9c-110 0 -166 45 -166 109c0 38 26 89 111 120h-73z" />
    <glyph glyph-name="itilde" unicode="&#x129;" horiz-adv-x="280" 
d="M-79 558c0 130 61 173 124 173c36 0 69 -12 92 -22s43 -18 63 -18c19 0 29 13 30 40h129c0 -125 -61 -173 -124 -173c-35 0 -64 11 -91 23c-22 10 -44 17 -64 17c-19 0 -29 -12 -30 -40h-129zM36 0v516h208v-516h-208z" />
    <glyph glyph-name="uni0237" unicode="&#x237;" horiz-adv-x="280" 
d="M25 -206c-28 0 -45 1 -62 2v160h17c31 0 56 3 56 52v508h208v-538c0 -130 -64 -184 -219 -184z" />
    <glyph glyph-name="jcircumflex" unicode="&#x135;" horiz-adv-x="280" 
d="M140 628l-45 -69h-200l120 163h250l120 -163h-200zM36 8v508h208v-538c0 -130 -64 -184 -219 -184c-28 0 -45 1 -62 2v160h17c31 0 56 3 56 52z" />
    <glyph glyph-name="uni0137" unicode="&#x137;" horiz-adv-x="633" 
d="M635 516l-201 -212l199 -304h-234l-102 171l-53 -54v-117h-208v712h208v-379l160 183h231zM249 -188v131h172v-134c0 -76 -47 -107 -137 -107h-35v63h35c25 0 40 10 40 42v5h-75z" />
    <glyph glyph-name="kgreenlandic" unicode="&#x138;" horiz-adv-x="633" 
d="M635 516l-201 -212l199 -304h-234l-102 171l-53 -54v-117h-208v516h208v-183l160 183h231z" />
    <glyph glyph-name="lacute" unicode="&#x13a;" horiz-adv-x="280" 
d="M213 755h-188l89 154h247zM36 0v712h208v-712h-208z" />
    <glyph glyph-name="lcaron" unicode="&#x13e;" horiz-adv-x="481" 
d="M36 0v712h208v-712h-208zM275 529l24 183h192l-87 -183h-129z" />
    <glyph glyph-name="uni013C" unicode="&#x13c;" horiz-adv-x="280" 
d="M36 712h208v-712h-208v712zM54 -188v131h172v-134c0 -76 -47 -107 -137 -107h-35v63h35c25 0 40 10 40 42v5h-75z" />
    <glyph glyph-name="ldot" unicode="&#x140;" horiz-adv-x="543" 
d="M36 0v712h208v-712h-208zM295 251v206h212v-206h-212z" />
    <glyph glyph-name="lslash" unicode="&#x142;" horiz-adv-x="362" 
d="M362 492v-117l-85 -36v-339h-208v250l-69 -29v117l69 29v345h208v-256z" />
    <glyph glyph-name="nacute" unicode="&#x144;" horiz-adv-x="615" 
d="M543 713l-148 -154h-188l89 154h247zM403 528c106 0 176 -59 176 -208v-320h-208v286c0 41 -18 68 -59 68c-34 0 -68 -19 -68 -69v-285h-208v516h204v-75h3c35 63 92 87 160 87z" />
    <glyph glyph-name="napostrophe" unicode="&#x149;" horiz-adv-x="872" 
d="M36 492v220h227v-225c0 -127 -71 -185 -196 -185h-31v106h32c42 0 65 20 65 73v11h-97zM660 528c106 0 176 -59 176 -208v-320h-208v286c0 41 -18 68 -59 68c-34 0 -68 -19 -68 -69v-285h-208v516h204v-75h3c35 63 92 87 160 87z" />
    <glyph glyph-name="ncaron" unicode="&#x148;" horiz-adv-x="615" 
d="M447 559h-250l-130 153h210l45 -63l45 63h210zM403 528c106 0 176 -59 176 -208v-320h-208v286c0 41 -18 68 -59 68c-34 0 -68 -19 -68 -69v-285h-208v516h204v-75h3c35 63 92 87 160 87z" />
    <glyph glyph-name="uni0146" unicode="&#x146;" horiz-adv-x="615" 
d="M403 528c106 0 176 -59 176 -208v-320h-208v286c0 41 -18 68 -59 68c-34 0 -68 -19 -68 -69v-285h-208v516h204v-75h3c35 63 92 87 160 87zM222 -188v131h172v-134c0 -76 -47 -107 -137 -107h-35v63h35c25 0 40 10 40 42v5h-75z" />
    <glyph glyph-name="eng" unicode="&#x14b;" horiz-adv-x="615" 
d="M403 528c106 0 176 -59 176 -208v-342c0 -130 -65 -184 -219 -184c-28 0 -45 1 -62 2v160h17c31 0 56 3 56 52v278c0 41 -18 68 -59 68c-34 0 -68 -19 -68 -69v-285h-208v516h204v-75h3c35 63 92 87 160 87z" />
    <glyph glyph-name="ntilde" unicode="&#xf1;" horiz-adv-x="615" 
d="M262 598c-19 0 -29 -12 -30 -40h-129c0 130 61 173 124 173c36 0 69 -12 92 -22s43 -18 63 -18c19 0 29 13 30 40h129c0 -125 -61 -173 -124 -173c-35 0 -64 11 -91 23c-22 10 -44 17 -64 17zM403 528c106 0 176 -59 176 -208v-320h-208v286c0 41 -18 68 -59 68
c-34 0 -68 -19 -68 -69v-285h-208v516h204v-75h3c35 63 92 87 160 87z" />
    <glyph glyph-name="oacute" unicode="&#xf3;" horiz-adv-x="620" 
d="M194 559l89 154h247l-148 -154h-188zM310 -12c-175 0 -293 106 -293 269c0 162 118 270 293 270s293 -108 293 -270c0 -163 -118 -269 -293 -269zM310 148c47 0 85 27 85 108s-38 111 -85 111c-49 0 -85 -30 -85 -111c0 -80 36 -108 85 -108z" />
    <glyph glyph-name="obreve" unicode="&#x14f;" horiz-adv-x="620" 
d="M309 552c-117 0 -186 55 -197 158h145c2 -29 19 -47 52 -47c31 0 50 18 52 47h145c-11 -103 -80 -158 -197 -158zM310 -12c-175 0 -293 106 -293 269c0 162 118 270 293 270s293 -108 293 -270c0 -163 -118 -269 -293 -269zM310 148c47 0 85 27 85 108s-38 111 -85 111
c-49 0 -85 -30 -85 -111c0 -80 36 -108 85 -108z" />
    <glyph glyph-name="ocircumflex" unicode="&#xf4;" horiz-adv-x="620" 
d="M309 622l-45 -63h-210l130 153h250l130 -153h-210zM310 527c175 0 293 -108 293 -270c0 -163 -118 -269 -293 -269s-293 106 -293 269c0 162 118 270 293 270zM310 148c47 0 85 27 85 108s-38 111 -85 111c-49 0 -85 -30 -85 -111c0 -80 36 -108 85 -108z" />
    <glyph glyph-name="odieresis" unicode="&#xf6;" horiz-adv-x="620" 
d="M85 558v156h196v-156h-196zM337 558v156h196v-156h-196zM310 -12c-175 0 -293 106 -293 269c0 162 118 270 293 270s293 -108 293 -270c0 -163 -118 -269 -293 -269zM310 148c47 0 85 27 85 108s-38 111 -85 111c-49 0 -85 -30 -85 -111c0 -80 36 -108 85 -108z" />
    <glyph glyph-name="ograve" unicode="&#xf2;" horiz-adv-x="620" 
d="M241 559l-148 154h247l89 -154h-188zM310 -12c-175 0 -293 106 -293 269c0 162 118 270 293 270s293 -108 293 -270c0 -163 -118 -269 -293 -269zM310 148c47 0 85 27 85 108s-38 111 -85 111c-49 0 -85 -30 -85 -111c0 -80 36 -108 85 -108z" />
    <glyph glyph-name="ohungarumlaut" unicode="&#x151;" horiz-adv-x="620" 
d="M43 559l90 154h243l-144 -154h-189zM324 559l90 154h241l-143 -154h-188zM310 -12c-175 0 -293 106 -293 269c0 162 118 270 293 270s293 -108 293 -270c0 -163 -118 -269 -293 -269zM310 148c47 0 85 27 85 108s-38 111 -85 111c-49 0 -85 -30 -85 -111
c0 -80 36 -108 85 -108z" />
    <glyph glyph-name="omacron" unicode="&#x14d;" horiz-adv-x="620" 
d="M122 561v135h374v-135h-374zM310 -12c-175 0 -293 106 -293 269c0 162 118 270 293 270s293 -108 293 -270c0 -163 -118 -269 -293 -269zM310 148c47 0 85 27 85 108s-38 111 -85 111c-49 0 -85 -30 -85 -111c0 -80 36 -108 85 -108z" />
    <glyph glyph-name="oslash" unicode="&#xf8;" horiz-adv-x="618" 
d="M532 442c45 -47 70 -110 70 -185c0 -163 -118 -269 -292 -269c-57 0 -109 11 -152 32l-64 -72l-66 58l59 66c-45 46 -70 110 -70 185c0 162 118 270 293 270c57 0 108 -12 151 -33l65 73l66 -58zM216 256c0 -13 1 -25 3 -35l132 148c-13 6 -27 9 -42 9
c-53 0 -93 -33 -93 -122zM309 137c52 0 94 30 94 119c0 14 -1 26 -3 37l-131 -148c12 -6 25 -8 40 -8z" />
    <glyph glyph-name="oslashacute" unicode="&#x1ff;" horiz-adv-x="618" 
d="M530 713l-148 -154h-188l89 154h247zM532 442c45 -47 70 -110 70 -185c0 -163 -118 -269 -292 -269c-57 0 -109 11 -152 32l-64 -72l-66 58l59 66c-45 46 -70 110 -70 185c0 162 118 270 293 270c57 0 108 -12 151 -33l65 73l66 -58zM216 256c0 -13 1 -25 3 -35l132 148
c-13 6 -27 9 -42 9c-53 0 -93 -33 -93 -122zM309 137c52 0 94 30 94 119c0 14 -1 26 -3 37l-131 -148c12 -6 25 -8 40 -8z" />
    <glyph glyph-name="otilde" unicode="&#xf5;" horiz-adv-x="620" 
d="M90 558c0 130 61 173 124 173c36 0 69 -12 92 -22s43 -18 63 -18c19 0 29 13 30 40h129c0 -125 -61 -173 -124 -173c-35 0 -64 11 -91 23c-22 10 -44 17 -64 17c-19 0 -29 -12 -30 -40h-129zM310 -12c-175 0 -293 106 -293 269c0 162 118 270 293 270s293 -108 293 -270
c0 -163 -118 -269 -293 -269zM310 148c47 0 85 27 85 108s-38 111 -85 111c-49 0 -85 -30 -85 -111c0 -80 36 -108 85 -108z" />
    <glyph glyph-name="oe" unicode="&#x153;" horiz-adv-x="987" 
d="M970 264c0 -14 -1 -33 -4 -58h-376c3 -47 40 -79 99 -79c32 0 57 9 74 28h194c-34 -108 -145 -167 -268 -167c-80 0 -147 25 -195 70c-47 -45 -114 -70 -194 -70c-165 0 -283 106 -283 269c0 162 118 270 283 270c80 0 148 -26 195 -72c48 47 116 73 199 73
c159 0 276 -97 276 -264zM681 390c-52 0 -80 -24 -88 -76h177c-5 51 -35 76 -89 76zM310 148c47 0 85 27 85 108s-38 111 -85 111c-49 0 -85 -30 -85 -111c0 -80 36 -108 85 -108z" />
    <glyph glyph-name="thorn" unicode="&#xfe;" horiz-adv-x="635" 
d="M397 528c137 0 221 -107 221 -270s-84 -270 -221 -270c-73 0 -122 31 -153 79v-271h-208v916h208v-263c31 48 80 79 153 79zM322 149c57 0 88 38 88 110s-31 109 -88 109s-87 -37 -87 -109s30 -110 87 -110z" />
    <glyph glyph-name="racute" unicode="&#x155;" horiz-adv-x="436" 
d="M456 713l-148 -154h-188l89 154h247zM240 414c18 73 64 110 139 110c14 0 26 -1 37 -3v-187h-48c-81 0 -124 -40 -124 -136v-198h-208v516h204v-102z" />
    <glyph glyph-name="rcaron" unicode="&#x159;" horiz-adv-x="436" 
d="M350 559h-250l-130 153h210l45 -63l45 63h210zM240 414c18 73 64 110 139 110c14 0 26 -1 37 -3v-187h-48c-81 0 -124 -40 -124 -136v-198h-208v516h204v-102z" />
    <glyph glyph-name="uni0157" unicode="&#x157;" horiz-adv-x="436" 
d="M379 524c14 0 26 -1 37 -3v-187h-48c-81 0 -124 -40 -124 -136v-198h-208v516h204v-102c18 73 64 110 139 110zM54 -188v131h172v-134c0 -76 -47 -107 -137 -107h-35v63h35c25 0 40 10 40 42v5h-75z" />
    <glyph glyph-name="sacute" unicode="&#x15b;" horiz-adv-x="548" 
d="M153 559l89 154h247l-148 -154h-188zM270 -17c-171 0 -255 64 -264 183h198c4 -36 25 -51 73 -51c41 0 63 10 63 30c0 17 -11 26 -44 31l-101 14c-118 16 -183 70 -183 165c0 115 92 173 256 173c192 0 251 -82 257 -176h-187c-3 35 -22 49 -70 49c-41 0 -59 -9 -59 -28
c0 -16 11 -26 44 -31l101 -14c135 -19 187 -76 187 -163c0 -118 -100 -182 -271 -182z" />
    <glyph glyph-name="scaron" unicode="&#x161;" horiz-adv-x="548" 
d="M393 559h-250l-130 153h210l45 -63l45 63h210zM354 328c135 -19 187 -76 187 -163c0 -118 -100 -182 -271 -182s-255 64 -264 183h198c4 -36 25 -51 73 -51c41 0 63 10 63 30c0 17 -11 26 -44 31l-101 14c-118 16 -183 70 -183 165c0 115 92 173 256 173
c192 0 251 -82 257 -176h-187c-3 35 -22 49 -70 49c-41 0 -59 -9 -59 -28c0 -16 11 -26 44 -31z" />
    <glyph glyph-name="scedilla" unicode="&#x15f;" horiz-adv-x="548" 
d="M541 165c0 -104 -77 -166 -212 -179l-38 -45h9c78 0 122 -37 122 -93c0 -61 -52 -108 -168 -108c-36 0 -70 5 -90 8v72c17 -3 37 -5 54 -5c38 0 71 10 71 38s-24 36 -56 36c-11 0 -23 -1 -36 -3v47l42 51c-150 7 -225 70 -233 182h198c4 -36 25 -51 73 -51
c41 0 63 10 63 30c0 17 -11 26 -44 31l-101 14c-118 16 -183 70 -183 165c0 115 92 173 256 173c192 0 251 -82 257 -176h-187c-3 35 -22 49 -70 49c-41 0 -59 -9 -59 -28c0 -16 11 -26 44 -31l101 -14c135 -19 187 -76 187 -163z" />
    <glyph glyph-name="scircumflex" unicode="&#x15d;" horiz-adv-x="548" 
d="M268 622l-45 -63h-210l130 153h250l130 -153h-210zM354 328c135 -19 187 -76 187 -163c0 -118 -100 -182 -271 -182s-255 64 -264 183h198c4 -36 25 -51 73 -51c41 0 63 10 63 30c0 17 -11 26 -44 31l-101 14c-118 16 -183 70 -183 165c0 115 92 173 256 173
c192 0 251 -82 257 -176h-187c-3 35 -22 49 -70 49c-41 0 -59 -9 -59 -28c0 -16 11 -26 44 -31z" />
    <glyph glyph-name="uni0219" unicode="&#x219;" horiz-adv-x="548" 
d="M354 328c135 -19 187 -76 187 -163c0 -118 -100 -182 -271 -182s-255 64 -264 183h198c4 -36 25 -51 73 -51c41 0 63 10 63 30c0 17 -11 26 -44 31l-101 14c-118 16 -183 70 -183 165c0 115 92 173 256 173c192 0 251 -82 257 -176h-187c-3 35 -22 49 -70 49
c-41 0 -59 -9 -59 -28c0 -16 11 -26 44 -31zM187 -205v131h172v-134c0 -76 -47 -107 -137 -107h-35v63h35c25 0 40 10 40 42v5h-75z" />
    <glyph glyph-name="germandbls" unicode="&#xdf;" horiz-adv-x="647" 
d="M510 399c77 -26 120 -83 120 -177c0 -137 -94 -224 -279 -224c-19 0 -38 0 -58 2v154c9 -1 21 -2 34 -2c56 0 95 19 95 77c0 53 -34 74 -103 74h-26v135h26c49 0 74 21 74 61c0 42 -28 64 -74 64c-48 0 -75 -25 -75 -67v-496h-208v479c0 163 90 249 276 249
c171 0 270 -73 270 -195c0 -60 -24 -105 -72 -134z" />
    <glyph glyph-name="tbar" unicode="&#x167;" horiz-adv-x="420" 
d="M400 373h-107v-56h107v-105h-107v-12c0 -43 22 -46 59 -46h38v-154c-27 -3 -56 -5 -88 -5c-155 0 -217 48 -217 163v54h-74v105h74v56h-75v143h75v159h208v-159h107v-143z" />
    <glyph glyph-name="tcaron" unicode="&#x165;" horiz-adv-x="418" 
d="M359 739h192l-87 -183h-129zM293 675v-159h107v-143h-107v-173c0 -43 22 -46 59 -46h38v-154c-27 -3 -56 -5 -88 -5c-155 0 -217 48 -217 163v215h-75v143h75v159h208z" />
    <glyph glyph-name="uni0163" unicode="&#x163;" horiz-adv-x="420" 
d="M400 373h-107v-173c0 -43 22 -46 59 -46h38v-154c-27 -3 -56 -5 -88 -5h-5l-31 -37h9c78 0 122 -37 122 -93c0 -61 -52 -108 -168 -108c-36 0 -70 5 -90 8v72c17 -3 37 -5 54 -5c38 0 71 10 71 38s-24 36 -56 36c-11 0 -23 -1 -36 -3v47l43 52c-92 17 -130 66 -130 156
v215h-75v143h75v159h208v-159h107v-143z" />
    <glyph glyph-name="uni021B" unicode="&#x21b;" horiz-adv-x="420" 
d="M400 373h-107v-173c0 -43 22 -46 59 -46h38v-154c-27 -3 -56 -5 -88 -5c-155 0 -217 48 -217 163v215h-75v143h75v159h208v-159h107v-143zM162 -188v131h172v-134c0 -76 -47 -107 -137 -107h-35v63h35c25 0 40 10 40 42v5h-75z" />
    <glyph glyph-name="uacute" unicode="&#xfa;" horiz-adv-x="615" 
d="M529 713l-148 -154h-188l89 154h247zM371 516h208v-516h-204v75h-3c-35 -63 -92 -87 -160 -87c-106 0 -176 59 -176 208v320h208v-286c0 -41 18 -68 59 -68c34 0 68 19 68 69v285z" />
    <glyph glyph-name="ubreve" unicode="&#x16d;" horiz-adv-x="615" 
d="M308 552c-117 0 -186 55 -197 158h145c2 -29 19 -47 52 -47c31 0 50 18 52 47h145c-11 -103 -80 -158 -197 -158zM371 516h208v-516h-204v75h-3c-35 -63 -92 -87 -160 -87c-106 0 -176 59 -176 208v320h208v-286c0 -41 18 -68 59 -68c34 0 68 19 68 69v285z" />
    <glyph glyph-name="ucircumflex" unicode="&#xfb;" horiz-adv-x="615" 
d="M308 622l-45 -63h-210l130 153h250l130 -153h-210zM371 516h208v-516h-204v75h-3c-35 -63 -92 -87 -160 -87c-106 0 -176 59 -176 208v320h208v-286c0 -41 18 -68 59 -68c34 0 68 19 68 69v285z" />
    <glyph glyph-name="udieresis" unicode="&#xfc;" horiz-adv-x="615" 
d="M280 714v-156h-196v156h196zM532 714v-156h-196v156h196zM371 516h208v-516h-204v75h-3c-35 -63 -92 -87 -160 -87c-106 0 -176 59 -176 208v320h208v-286c0 -41 18 -68 59 -68c34 0 68 19 68 69v285z" />
    <glyph glyph-name="ugrave" unicode="&#xf9;" horiz-adv-x="615" 
d="M428 559h-188l-148 154h247zM371 516h208v-516h-204v75h-3c-35 -63 -92 -87 -160 -87c-106 0 -176 59 -176 208v320h208v-286c0 -41 18 -68 59 -68c34 0 68 19 68 69v285z" />
    <glyph glyph-name="uhungarumlaut" unicode="&#x171;" horiz-adv-x="615" 
d="M375 713l-144 -154h-189l90 154h243zM511 559h-188l90 154h241zM371 231v285h208v-516h-204v75h-3c-35 -63 -92 -87 -160 -87c-106 0 -176 59 -176 208v320h208v-286c0 -41 18 -68 59 -68c34 0 68 19 68 69z" />
    <glyph glyph-name="umacron" unicode="&#x16b;" horiz-adv-x="615" 
d="M495 696v-135h-374v135h374zM371 516h208v-516h-204v75h-3c-35 -63 -92 -87 -160 -87c-106 0 -176 59 -176 208v320h208v-286c0 -41 18 -68 59 -68c34 0 68 19 68 69v285z" />
    <glyph glyph-name="uogonek" unicode="&#x173;" horiz-adv-x="615" 
d="M579 0c-90 -40 -103 -70 -103 -91c0 -33 33 -38 55 -38c13 0 30 3 48 7v-98c-21 -5 -51 -9 -80 -9c-110 0 -166 45 -166 109c0 38 26 89 111 120h-69v75h-3c-35 -63 -92 -87 -160 -87c-106 0 -176 59 -176 208v320h208v-286c0 -41 18 -68 59 -68c34 0 68 19 68 69v285
h208v-516z" />
    <glyph glyph-name="uring" unicode="&#x16f;" horiz-adv-x="615" 
d="M308 547c-100 0 -180 69 -180 169s80 170 180 170s180 -70 180 -170s-80 -169 -180 -169zM308 778c-35 0 -63 -26 -63 -62c0 -35 28 -61 63 -61s63 26 63 61c0 36 -28 62 -63 62zM371 516h208v-516h-204v75h-3c-35 -63 -92 -87 -160 -87c-106 0 -176 59 -176 208v320h208
v-286c0 -41 18 -68 59 -68c34 0 68 19 68 69v285z" />
    <glyph glyph-name="utilde" unicode="&#x169;" horiz-adv-x="615" 
d="M248 598c-19 0 -29 -12 -30 -40h-129c0 130 61 173 124 173c36 0 69 -12 92 -22s43 -18 63 -18c19 0 29 13 30 40h129c0 -125 -61 -173 -124 -173c-35 0 -64 11 -91 23c-22 10 -44 17 -64 17zM371 516h208v-516h-204v75h-3c-35 -63 -92 -87 -160 -87
c-106 0 -176 59 -176 208v320h208v-286c0 -41 18 -68 59 -68c34 0 68 19 68 69v285z" />
    <glyph glyph-name="wacute" unicode="&#x1e83;" horiz-adv-x="913" 
d="M678 713l-148 -154h-188l89 154h247zM693 516h222l-170 -516h-206l-50 178c-12 41 -23 82 -32 123c-10 -41 -21 -82 -33 -123l-50 -178h-206l-170 516h222l33 -141c12 -50 23 -101 34 -151c12 50 26 101 41 152l41 140h175l41 -140c15 -51 29 -102 41 -152
c11 50 22 101 34 151z" />
    <glyph glyph-name="wcircumflex" unicode="&#x175;" horiz-adv-x="913" 
d="M457 622l-45 -63h-210l130 153h250l130 -153h-210zM693 516h222l-170 -516h-206l-50 178c-12 41 -23 82 -32 123c-10 -41 -21 -82 -33 -123l-50 -178h-206l-170 516h222l33 -141c12 -50 23 -101 34 -151c12 50 26 101 41 152l41 140h175l41 -140c15 -51 29 -102 41 -152
c11 50 22 101 34 151z" />
    <glyph glyph-name="wdieresis" unicode="&#x1e85;" horiz-adv-x="913" 
d="M429 714v-156h-196v156h196zM681 714v-156h-196v156h196zM693 516h222l-170 -516h-206l-50 178c-12 41 -23 82 -32 123c-10 -41 -21 -82 -33 -123l-50 -178h-206l-170 516h222l33 -141c12 -50 23 -101 34 -151c12 50 26 101 41 152l41 140h175l41 -140
c15 -51 29 -102 41 -152c11 50 22 101 34 151z" />
    <glyph glyph-name="wgrave" unicode="&#x1e81;" horiz-adv-x="913" 
d="M577 559h-188l-148 154h247zM693 516h222l-170 -516h-206l-50 178c-12 41 -23 82 -32 123c-10 -41 -21 -82 -33 -123l-50 -178h-206l-170 516h222l33 -141c12 -50 23 -101 34 -151c12 50 26 101 41 152l41 140h175l41 -140c15 -51 29 -102 41 -152c11 50 22 101 34 151z
" />
    <glyph glyph-name="yacute" unicode="&#xfd;" horiz-adv-x="623" 
d="M523 713l-148 -154h-188l89 154h247zM412 516h213l-203 -524c-65 -167 -131 -198 -292 -198c-23 0 -50 0 -91 2v160h94c44 0 63 15 63 49c0 11 -3 24 -9 39l-189 472h222l28 -94c23 -79 40 -145 66 -252c30 107 48 173 71 252z" />
    <glyph glyph-name="ycircumflex" unicode="&#x177;" horiz-adv-x="623" 
d="M302 622l-45 -63h-210l130 153h250l130 -153h-210zM412 516h213l-203 -524c-65 -167 -131 -198 -292 -198c-23 0 -50 0 -91 2v160h94c44 0 63 15 63 49c0 11 -3 24 -9 39l-189 472h222l28 -94c23 -79 40 -145 66 -252c30 107 48 173 71 252z" />
    <glyph glyph-name="ydieresis" unicode="&#xff;" horiz-adv-x="623" 
d="M274 714v-156h-196v156h196zM526 714v-156h-196v156h196zM412 516h213l-203 -524c-65 -167 -131 -198 -292 -198c-23 0 -50 0 -91 2v160h94c44 0 63 15 63 49c0 11 -3 24 -9 39l-189 472h222l28 -94c23 -79 40 -145 66 -252c30 107 48 173 71 252z" />
    <glyph glyph-name="ygrave" unicode="&#x1ef3;" horiz-adv-x="623" 
d="M422 559h-188l-148 154h247zM412 516h213l-203 -524c-65 -167 -131 -198 -292 -198c-23 0 -50 0 -91 2v160h94c44 0 63 15 63 49c0 11 -3 24 -9 39l-189 472h222l28 -94c23 -79 40 -145 66 -252c30 107 48 173 71 252z" />
    <glyph glyph-name="zacute" unicode="&#x17a;" horiz-adv-x="523" 
d="M482 713l-148 -154h-188l89 154h247zM364 147h136v-147h-477v126l166 198l38 45h-70h-136v147h474v-112l-165 -198c-16 -20 -33 -40 -50 -60c28 1 56 1 84 1z" />
    <glyph glyph-name="zcaron" unicode="&#x17e;" horiz-adv-x="523" 
d="M386 559h-250l-130 153h210l45 -63l45 63h210zM280 146c28 1 56 1 84 1h136v-147h-477v126l166 198l38 45h-70h-136v147h474v-112l-165 -198c-16 -20 -33 -40 -50 -60z" />
    <glyph glyph-name="zdotaccent" unicode="&#x17c;" horiz-adv-x="523" 
d="M365 714v-156h-208v156h208zM364 147h136v-147h-477v126l166 198l38 45h-70h-136v147h474v-112l-165 -198c-16 -20 -33 -40 -50 -60c28 1 56 1 84 1z" />
    <glyph glyph-name="adieresis.ss01" horiz-adv-x="613" 
d="M198 553c-51 0 -93 42 -93 93c0 50 42 92 93 92c50 0 92 -42 92 -92c0 -51 -42 -93 -92 -93zM417 553c-51 0 -93 42 -93 93c0 49 43 92 93 92s92 -42 92 -92c0 -51 -42 -93 -92 -93zM595 0h-209c-8 16 -14 38 -15 60c-28 -48 -84 -77 -166 -77c-109 0 -190 50 -190 159
c0 90 55 146 197 160l94 9c42 4 62 12 62 39s-20 38 -58 38c-40 0 -59 -12 -62 -51h-208c5 126 82 191 273 191c186 0 263 -60 263 -165v-281c0 -29 6 -55 19 -82zM287 113c53 0 81 28 81 84v34c-8 -12 -22 -18 -45 -21l-48 -6c-33 -4 -49 -18 -49 -45c0 -31 21 -46 61 -46z
" />
    <glyph glyph-name="cdotaccent.ss01" horiz-adv-x="598" 
d="M307 553c-57 0 -103 46 -103 102c0 55 46 101 103 101c55 0 101 -46 101 -101c0 -56 -46 -102 -101 -102zM303 -12c-179 0 -286 107 -286 270s108 270 290 270c173 0 270 -96 279 -220h-207c-10 43 -35 60 -76 60c-56 0 -78 -34 -78 -110c0 -80 21 -110 77 -110
c44 0 69 18 79 69h205c-13 -133 -113 -229 -283 -229z" />
    <glyph glyph-name="edieresis.ss01" horiz-adv-x="609" 
d="M196 553c-51 0 -93 42 -93 93c0 50 42 92 93 92c50 0 92 -42 92 -92c0 -51 -42 -93 -92 -93zM415 553c-51 0 -93 42 -93 93c0 49 43 92 93 92s92 -42 92 -92c0 -51 -42 -93 -92 -93zM592 264c0 -14 -1 -33 -4 -58h-376c3 -47 34 -79 99 -79c35 0 60 9 74 28h194
c-31 -108 -135 -167 -272 -167c-180 0 -290 101 -290 268c0 163 110 272 289 272c169 0 286 -97 286 -264zM303 390c-52 0 -80 -24 -88 -76h177c-5 51 -35 76 -89 76z" />
    <glyph glyph-name="edotaccent.ss01" horiz-adv-x="609" 
d="M305 553c-57 0 -103 46 -103 102c0 55 46 101 103 101c55 0 101 -46 101 -101c0 -56 -46 -102 -101 -102zM592 264c0 -14 -1 -33 -4 -58h-376c3 -47 34 -79 99 -79c35 0 60 9 74 28h194c-31 -108 -135 -167 -272 -167c-180 0 -290 101 -290 268c0 163 110 272 289 272
c169 0 286 -97 286 -264zM303 390c-52 0 -80 -24 -88 -76h177c-5 51 -35 76 -89 76z" />
    <glyph glyph-name="uni0123.ss01" horiz-adv-x="645" 
d="M337 553c-66 0 -96 43 -96 106v2c0 72 41 139 153 139h18v-63h-22c-35 0 -53 -12 -59 -42h8c50 0 82 -27 82 -70c0 -44 -32 -72 -84 -72zM401 516h208v-493c0 -155 -106 -240 -291 -240c-173 0 -278 67 -292 207h210c5 -42 30 -61 80 -61c56 0 81 24 81 77v93
c-32 -49 -85 -80 -162 -80c-134 0 -218 101 -218 255c0 153 84 254 218 254c81 0 134 -34 166 -86v74zM313 165c57 0 87 38 87 110c0 70 -30 108 -87 108s-88 -38 -88 -108c0 -72 31 -110 88 -110z" />
    <glyph glyph-name="gdotaccent.ss01" horiz-adv-x="645" 
d="M330 553c-57 0 -103 46 -103 102c0 55 46 101 103 101c55 0 101 -46 101 -101c0 -56 -46 -102 -101 -102zM401 516h208v-493c0 -155 -106 -240 -291 -240c-173 0 -278 67 -292 207h210c5 -42 30 -61 80 -61c56 0 81 24 81 77v93c-32 -49 -85 -80 -162 -80
c-134 0 -218 101 -218 255c0 153 84 254 218 254c81 0 134 -34 166 -86v74zM313 165c57 0 87 38 87 110c0 70 -30 108 -87 108s-88 -38 -88 -108c0 -72 31 -110 88 -110z" />
    <glyph glyph-name="i.ss01" horiz-adv-x="280" 
d="M140 552c-56 0 -102 46 -102 102c0 55 46 101 102 101c55 0 101 -46 101 -101c0 -56 -46 -102 -101 -102zM36 0v516h208v-516h-208z" />
    <glyph glyph-name="idieresis.ss01" horiz-adv-x="280" 
d="M31 550c-51 0 -93 42 -93 93c0 50 42 92 93 92c50 0 92 -42 92 -92c0 -51 -42 -93 -92 -93zM250 550c-51 0 -93 42 -93 93c0 49 43 92 93 92s92 -42 92 -92c0 -51 -42 -93 -92 -93zM36 0v516h208v-516h-208z" />
    <glyph glyph-name="i.loclTRK.ss01" horiz-adv-x="280" 
d="M140 553c-56 0 -102 46 -102 102c0 55 46 101 102 101c55 0 101 -46 101 -101c0 -56 -46 -102 -101 -102zM36 0v516h208v-516h-208z" />
    <glyph glyph-name="ij.ss01" horiz-adv-x="560" 
d="M140 552c-56 0 -102 46 -102 102c0 55 46 101 102 101c55 0 101 -46 101 -101c0 -56 -46 -102 -101 -102zM420 552c-56 0 -102 46 -102 102c0 55 46 101 102 101c55 0 101 -46 101 -101c0 -56 -46 -102 -101 -102zM36 0v516h208v-516h-208zM305 -206c-28 0 -45 1 -62 2
v160h17c31 0 56 3 56 52v508h208v-538c0 -130 -64 -184 -219 -184z" />
    <glyph glyph-name="iogonek.ss01" horiz-adv-x="280" 
d="M140 552c-56 0 -102 46 -102 102c0 55 46 101 102 101c55 0 101 -46 101 -101c0 -56 -46 -102 -101 -102zM244 0c-90 -40 -103 -70 -103 -91c0 -33 33 -38 55 -38c13 0 30 3 48 7v-98c-21 -5 -51 -9 -80 -9c-110 0 -166 45 -166 109c0 38 26 89 111 120h-73v516h208v-516
z" />
    <glyph glyph-name="j.ss01" horiz-adv-x="280" 
d="M140 552c-56 0 -102 46 -102 102c0 55 46 101 102 101c55 0 101 -46 101 -101c0 -56 -46 -102 -101 -102zM25 -206c-28 0 -45 1 -62 2v160h17c31 0 56 3 56 52v508h208v-538c0 -130 -64 -184 -219 -184z" />
    <glyph glyph-name="uni0137.ss01" horiz-adv-x="633" 
d="M635 516l-201 -212l199 -304h-234l-102 171l-53 -54v-117h-208v712h208v-379l160 183h231zM330 -51c66 0 96 -43 96 -106v-2c0 -72 -41 -139 -153 -139h-18v63h22c35 0 53 12 59 42h-8c-50 0 -82 27 -82 70c0 44 32 72 84 72z" />
    <glyph glyph-name="uni013C.ss01" horiz-adv-x="280" 
d="M36 712h208v-712h-208v712zM135 -51c66 0 96 -43 96 -106v-2c0 -72 -41 -139 -153 -139h-18v63h22c35 0 53 12 59 42h-8c-50 0 -82 27 -82 70c0 44 32 72 84 72z" />
    <glyph glyph-name="ldot.ss01" horiz-adv-x="558" 
d="M36 0v712h208v-712h-208zM397 231c-69 0 -127 54 -127 124c0 68 58 123 127 123s125 -55 125 -123c0 -70 -56 -124 -125 -124z" />
    <glyph glyph-name="napostrophe.ss01" horiz-adv-x="903" 
d="M153 733c96 0 142 -74 142 -172c0 -144 -61 -248 -224 -258l-18 -1v106l21 1c53 2 77 28 84 82h-3c-69 0 -124 45 -124 119s55 123 122 123zM691 528c106 0 176 -59 176 -208v-320h-208v286c0 41 -18 68 -59 68c-34 0 -68 -19 -68 -69v-285h-208v516h204v-75h3
c35 63 92 87 160 87z" />
    <glyph glyph-name="uni0146.ss01" horiz-adv-x="615" 
d="M403 528c106 0 176 -59 176 -208v-320h-208v286c0 41 -18 68 -59 68c-34 0 -68 -19 -68 -69v-285h-208v516h204v-75h3c35 63 92 87 160 87zM303 -51c66 0 96 -43 96 -106v-2c0 -72 -41 -139 -153 -139h-18v63h22c35 0 53 12 59 42h-8c-50 0 -82 27 -82 70
c0 44 32 72 84 72z" />
    <glyph glyph-name="odieresis.ss01" horiz-adv-x="620" 
d="M200 553c-51 0 -93 42 -93 93c0 50 42 92 93 92c50 0 92 -42 92 -92c0 -51 -42 -93 -92 -93zM419 553c-51 0 -93 42 -93 93c0 49 43 92 93 92s92 -42 92 -92c0 -51 -42 -93 -92 -93zM310 -12c-175 0 -293 106 -293 269c0 162 118 270 293 270s293 -108 293 -270
c0 -163 -118 -269 -293 -269zM310 148c47 0 85 27 85 108s-38 111 -85 111c-49 0 -85 -30 -85 -111c0 -80 36 -108 85 -108z" />
    <glyph glyph-name="uni0157.ss01" horiz-adv-x="436" 
d="M379 524c14 0 26 -1 37 -3v-187h-48c-81 0 -124 -40 -124 -136v-198h-208v516h204v-102c18 73 64 110 139 110zM135 -51c66 0 96 -43 96 -106v-2c0 -72 -41 -139 -153 -139h-18v63h22c35 0 53 12 59 42h-8c-50 0 -82 27 -82 70c0 44 32 72 84 72z" />
    <glyph glyph-name="uni0219.ss01" horiz-adv-x="548" 
d="M354 328c135 -19 187 -76 187 -163c0 -118 -100 -182 -271 -182s-255 64 -264 183h198c4 -36 25 -51 73 -51c41 0 63 10 63 30c0 17 -11 26 -44 31l-101 14c-118 16 -183 70 -183 165c0 115 92 173 256 173c192 0 251 -82 257 -176h-187c-3 35 -22 49 -70 49
c-41 0 -59 -9 -59 -28c0 -16 11 -26 44 -31zM268 -68c66 0 96 -43 96 -106v-2c0 -72 -41 -139 -153 -139h-18v63h22c35 0 53 12 59 42h-8c-50 0 -82 27 -82 70c0 44 32 72 84 72z" />
    <glyph glyph-name="uni021B.ss01" horiz-adv-x="420" 
d="M400 373h-107v-173c0 -43 22 -46 59 -46h38v-154c-27 -3 -56 -5 -88 -5c-155 0 -217 48 -217 163v215h-75v143h75v159h208v-159h107v-143zM243 -51c66 0 96 -43 96 -106v-2c0 -72 -41 -139 -153 -139h-18v63h22c35 0 53 12 59 42h-8c-50 0 -82 27 -82 70
c0 44 32 72 84 72z" />
    <glyph glyph-name="udieresis.ss01" horiz-adv-x="615" 
d="M199 553c-51 0 -93 42 -93 93c0 50 42 92 93 92c50 0 92 -42 92 -92c0 -51 -42 -93 -92 -93zM418 553c-51 0 -93 42 -93 93c0 49 43 92 93 92s92 -42 92 -92c0 -51 -42 -93 -92 -93zM371 516h208v-516h-204v75h-3c-35 -63 -92 -87 -160 -87c-106 0 -176 59 -176 208v320
h208v-286c0 -41 18 -68 59 -68c34 0 68 19 68 69v285z" />
    <glyph glyph-name="wdieresis.ss01" horiz-adv-x="913" 
d="M348 553c-51 0 -93 42 -93 93c0 50 42 92 93 92c50 0 92 -42 92 -92c0 -51 -42 -93 -92 -93zM567 553c-51 0 -93 42 -93 93c0 49 43 92 93 92s92 -42 92 -92c0 -51 -42 -93 -92 -93zM693 516h222l-170 -516h-206l-50 178c-12 41 -23 82 -32 123c-10 -41 -21 -82 -33 -123
l-50 -178h-206l-170 516h222l33 -141c12 -50 23 -101 34 -151c12 50 26 101 41 152l41 140h175l41 -140c15 -51 29 -102 41 -152c11 50 22 101 34 151z" />
    <glyph glyph-name="ydieresis.ss01" horiz-adv-x="623" 
d="M193 553c-51 0 -93 42 -93 93c0 50 42 92 93 92c50 0 92 -42 92 -92c0 -51 -42 -93 -92 -93zM412 553c-51 0 -93 42 -93 93c0 49 43 92 93 92s92 -42 92 -92c0 -51 -42 -93 -92 -93zM412 516h213l-203 -524c-65 -167 -131 -198 -292 -198c-23 0 -50 0 -91 2v160h94
c44 0 63 15 63 49c0 11 -3 24 -9 39l-189 472h222l28 -94c23 -79 40 -145 66 -252c30 107 48 173 71 252z" />
    <glyph glyph-name="zdotaccent.ss01" horiz-adv-x="523" 
d="M261 553c-57 0 -103 46 -103 102c0 55 46 101 103 101c55 0 101 -46 101 -101c0 -56 -46 -102 -101 -102zM364 147h136v-147h-477v126l166 198l38 45h-70h-136v147h474v-112l-165 -198c-16 -20 -33 -40 -50 -60c28 1 56 1 84 1z" />
    <glyph glyph-name="a.ss02" horiz-adv-x="641" 
d="M397 516h208v-516h-208v77c-30 -54 -81 -89 -159 -89c-137 0 -221 107 -221 270s84 270 221 270c78 0 129 -35 159 -89v77zM313 149c57 0 87 38 87 110s-30 109 -87 109s-88 -37 -88 -109s31 -110 88 -110z" />
    <glyph glyph-name="aacute.ss02" horiz-adv-x="641" 
d="M544 713l-148 -154h-188l89 154h247zM397 516h208v-516h-208v77c-30 -54 -81 -89 -159 -89c-137 0 -221 107 -221 270s84 270 221 270c78 0 129 -35 159 -89v77zM313 149c57 0 87 38 87 110s-30 109 -87 109s-88 -37 -88 -109s31 -110 88 -110z" />
    <glyph glyph-name="abreve.ss02" horiz-adv-x="641" 
d="M323 552c-117 0 -186 55 -197 158h145c2 -29 19 -47 52 -47c31 0 50 18 52 47h145c-11 -103 -80 -158 -197 -158zM397 516h208v-516h-208v77c-30 -54 -81 -89 -159 -89c-137 0 -221 107 -221 270s84 270 221 270c78 0 129 -35 159 -89v77zM313 149c57 0 87 38 87 110
s-30 109 -87 109s-88 -37 -88 -109s31 -110 88 -110z" />
    <glyph glyph-name="acircumflex.ss02" horiz-adv-x="641" 
d="M323 622l-45 -63h-210l130 153h250l130 -153h-210zM397 516h208v-516h-208v77c-30 -54 -81 -89 -159 -89c-137 0 -221 107 -221 270s84 270 221 270c78 0 129 -35 159 -89v77zM313 149c57 0 87 38 87 110s-30 109 -87 109s-88 -37 -88 -109s31 -110 88 -110z" />
    <glyph glyph-name="adieresis.ss02" horiz-adv-x="641" 
d="M295 714v-156h-196v156h196zM547 714v-156h-196v156h196zM397 516h208v-516h-208v77c-30 -54 -81 -89 -159 -89c-137 0 -221 107 -221 270s84 270 221 270c78 0 129 -35 159 -89v77zM313 149c57 0 87 38 87 110s-30 109 -87 109s-88 -37 -88 -109s31 -110 88 -110z" />
    <glyph glyph-name="agrave.ss02" horiz-adv-x="641" 
d="M443 559h-188l-148 154h247zM397 516h208v-516h-208v77c-30 -54 -81 -89 -159 -89c-137 0 -221 107 -221 270s84 270 221 270c78 0 129 -35 159 -89v77zM313 149c57 0 87 38 87 110s-30 109 -87 109s-88 -37 -88 -109s31 -110 88 -110z" />
    <glyph glyph-name="amacron.ss02" horiz-adv-x="641" 
d="M510 696v-135h-374v135h374zM397 516h208v-516h-208v77c-30 -54 -81 -89 -159 -89c-137 0 -221 107 -221 270s84 270 221 270c78 0 129 -35 159 -89v77zM313 149c57 0 87 38 87 110s-30 109 -87 109s-88 -37 -88 -109s31 -110 88 -110z" />
    <glyph glyph-name="aogonek.ss02" horiz-adv-x="641" 
d="M605 0c-90 -40 -103 -70 -103 -91c0 -33 33 -38 55 -38c13 0 30 3 48 7v-98c-21 -5 -51 -9 -80 -9c-110 0 -166 45 -166 109c0 38 26 89 111 120h-73v77c-30 -54 -81 -89 -159 -89c-137 0 -221 107 -221 270s84 270 221 270c78 0 129 -35 159 -89v77h208v-516zM313 149
c57 0 87 38 87 110s-30 109 -87 109s-88 -37 -88 -109s31 -110 88 -110z" />
    <glyph glyph-name="aring.ss02" horiz-adv-x="641" 
d="M323 547c-100 0 -180 69 -180 169s80 170 180 170s180 -70 180 -170s-80 -169 -180 -169zM323 778c-35 0 -63 -26 -63 -62c0 -35 28 -61 63 -61s63 26 63 61c0 36 -28 62 -63 62zM397 516h208v-516h-208v77c-30 -54 -81 -89 -159 -89c-137 0 -221 107 -221 270
s84 270 221 270c78 0 129 -35 159 -89v77zM313 149c57 0 87 38 87 110s-30 109 -87 109s-88 -37 -88 -109s31 -110 88 -110z" />
    <glyph glyph-name="aringacute.ss02" horiz-adv-x="641" 
d="M544 1068l-148 -154h-188l89 154h247zM323 547c-100 0 -180 69 -180 169s80 170 180 170s180 -70 180 -170s-80 -169 -180 -169zM323 778c-35 0 -63 -26 -63 -62c0 -35 28 -61 63 -61s63 26 63 61c0 36 -28 62 -63 62zM397 516h208v-516h-208v77
c-30 -54 -81 -89 -159 -89c-137 0 -221 107 -221 270s84 270 221 270c78 0 129 -35 159 -89v77zM313 149c57 0 87 38 87 110s-30 109 -87 109s-88 -37 -88 -109s31 -110 88 -110z" />
    <glyph glyph-name="atilde.ss02" horiz-adv-x="641" 
d="M263 598c-19 0 -29 -12 -30 -40h-129c0 130 61 173 124 173c36 0 69 -12 92 -22s43 -18 63 -18c19 0 29 13 30 40h129c0 -125 -61 -173 -124 -173c-35 0 -64 11 -91 23c-22 10 -44 17 -64 17zM397 516h208v-516h-208v77c-30 -54 -81 -89 -159 -89
c-137 0 -221 107 -221 270s84 270 221 270c78 0 129 -35 159 -89v77zM313 149c57 0 87 38 87 110s-30 109 -87 109s-88 -37 -88 -109s31 -110 88 -110z" />
    <glyph glyph-name="adieresis.ss01.ss02" horiz-adv-x="641" 
d="M214 553c-51 0 -93 42 -93 93c0 50 42 92 93 92c50 0 92 -42 92 -92c0 -51 -42 -93 -92 -93zM433 553c-51 0 -93 42 -93 93c0 49 43 92 93 92s92 -42 92 -92c0 -51 -42 -93 -92 -93zM397 516h208v-516h-208v77c-30 -54 -81 -89 -159 -89c-137 0 -221 107 -221 270
s84 270 221 270c78 0 129 -35 159 -89v77zM313 149c57 0 87 38 87 110s-30 109 -87 109s-88 -37 -88 -109s31 -110 88 -110z" />
    <glyph glyph-name="uni021B.ss01.ss05" horiz-adv-x="388" 
d="M368 516v-143h-77v-373h-208v373h-73v143h73v159h208v-159h77zM182 -51c66 0 96 -43 96 -106v-2c0 -72 -41 -139 -153 -139h-18v63h22c35 0 53 12 59 42h-8c-50 0 -82 27 -82 70c0 44 32 72 84 72z" />
    <glyph glyph-name="udieresis.ss01.ss05" horiz-adv-x="615" 
d="M199 553c-51 0 -93 42 -93 93c0 50 42 92 93 92c50 0 92 -42 92 -92c0 -51 -42 -93 -92 -93zM418 553c-51 0 -93 42 -93 93c0 49 43 92 93 92s92 -42 92 -92c0 -51 -42 -93 -92 -93zM371 516h208v-516h-204v75h-3c-35 -63 -92 -87 -160 -87c-106 0 -176 59 -176 208v320
h208v-286c0 -41 18 -68 59 -68c34 0 68 19 68 69v285z" />
    <glyph glyph-name="t.ss05" horiz-adv-x="388" 
d="M368 516v-143h-77v-373h-208v373h-73v143h73v159h208v-159h77z" />
    <glyph glyph-name="tbar.ss05" horiz-adv-x="389" 
d="M369 373h-77v-56h75v-105h-75v-212h-208v212h-74v105h74v56h-73v143h73v159h208v-159h77v-143z" />
    <glyph glyph-name="tcaron.ss05" horiz-adv-x="388" 
d="M352 739h192l-87 -183h-129zM291 675v-159h77v-143h-77v-373h-208v373h-73v143h73v159h208z" />
    <glyph glyph-name="uni0163.ss05" horiz-adv-x="388" 
d="M291 0h-50l-36 -42h9c78 0 122 -37 122 -93c0 -61 -52 -108 -168 -108c-36 0 -70 5 -90 8v72c17 -3 37 -5 54 -5c38 0 71 10 71 38s-24 36 -56 36c-11 0 -23 -1 -36 -3v47l42 50h-70v373h-73v143h73v159h208v-159h77v-143h-77v-373z" />
    <glyph glyph-name="uni021B.ss05" horiz-adv-x="388" 
d="M368 516v-143h-77v-373h-208v373h-73v143h73v159h208v-159h77zM101 -188v131h172v-134c0 -76 -47 -107 -137 -107h-35v63h35c25 0 40 10 40 42v5h-75z" />
    <glyph glyph-name="udieresis.ss01.ss06" horiz-adv-x="615" 
d="M199 553c-51 0 -93 42 -93 93c0 50 42 92 93 92c50 0 92 -42 92 -92c0 -51 -42 -93 -92 -93zM418 553c-51 0 -93 42 -93 93c0 49 43 92 93 92s92 -42 92 -92c0 -51 -42 -93 -92 -93zM308 -12c-175 0 -272 87 -272 233v295h208v-289c0 -45 22 -69 64 -69s63 24 63 69v289
h208v-295c0 -146 -97 -233 -271 -233z" />
    <glyph glyph-name="u.ss06" horiz-adv-x="615" 
d="M308 -12c-175 0 -272 87 -272 233v295h208v-289c0 -45 22 -69 64 -69s63 24 63 69v289h208v-295c0 -146 -97 -233 -271 -233z" />
    <glyph glyph-name="uacute.ss06" horiz-adv-x="615" 
d="M193 559l89 154h247l-148 -154h-188zM308 -12c-175 0 -272 87 -272 233v295h208v-289c0 -45 22 -69 64 -69s63 24 63 69v289h208v-295c0 -146 -97 -233 -271 -233z" />
    <glyph glyph-name="ubreve.ss06" horiz-adv-x="615" 
d="M308 552c-117 0 -186 55 -197 158h145c2 -29 19 -47 52 -47c31 0 50 18 52 47h145c-11 -103 -80 -158 -197 -158zM308 -12c-175 0 -272 87 -272 233v295h208v-289c0 -45 22 -69 64 -69s63 24 63 69v289h208v-295c0 -146 -97 -233 -271 -233z" />
    <glyph glyph-name="ucircumflex.ss06" horiz-adv-x="615" 
d="M308 622l-45 -63h-210l130 153h250l130 -153h-210zM371 516h208v-295c0 -146 -97 -233 -271 -233c-175 0 -272 87 -272 233v295h208v-289c0 -45 22 -69 64 -69s63 24 63 69v289z" />
    <glyph glyph-name="udieresis.ss06" horiz-adv-x="615" 
d="M84 558v156h196v-156h-196zM336 558v156h196v-156h-196zM308 -12c-175 0 -272 87 -272 233v295h208v-289c0 -45 22 -69 64 -69s63 24 63 69v289h208v-295c0 -146 -97 -233 -271 -233z" />
    <glyph glyph-name="ugrave.ss06" horiz-adv-x="615" 
d="M240 559l-148 154h247l89 -154h-188zM308 -12c-175 0 -272 87 -272 233v295h208v-289c0 -45 22 -69 64 -69s63 24 63 69v289h208v-295c0 -146 -97 -233 -271 -233z" />
    <glyph glyph-name="uhungarumlaut.ss06" horiz-adv-x="615" 
d="M42 559l90 154h243l-144 -154h-189zM323 559l90 154h241l-143 -154h-188zM308 -12c-175 0 -272 87 -272 233v295h208v-289c0 -45 22 -69 64 -69s63 24 63 69v289h208v-295c0 -146 -97 -233 -271 -233z" />
    <glyph glyph-name="umacron.ss06" horiz-adv-x="615" 
d="M121 561v135h374v-135h-374zM308 -12c-175 0 -272 87 -272 233v295h208v-289c0 -45 22 -69 64 -69s63 24 63 69v289h208v-295c0 -146 -97 -233 -271 -233z" />
    <glyph glyph-name="uogonek.ss06" horiz-adv-x="615" 
d="M371 516h208v-295c0 -120 -65 -200 -185 -225c-64 -33 -74 -58 -74 -77c0 -33 33 -38 55 -38c13 0 30 3 48 7v-98c-21 -5 -51 -9 -80 -9c-110 0 -166 45 -166 109c0 31 18 71 71 102c-137 18 -212 101 -212 229v295h208v-289c0 -45 22 -69 64 -69s63 24 63 69v289z" />
    <glyph glyph-name="uring.ss06" horiz-adv-x="615" 
d="M308 547c-100 0 -180 69 -180 169s80 170 180 170s180 -70 180 -170s-80 -169 -180 -169zM308 655c35 0 63 26 63 61c0 36 -28 62 -63 62s-63 -26 -63 -62c0 -35 28 -61 63 -61zM308 -12c-175 0 -272 87 -272 233v295h208v-289c0 -45 22 -69 64 -69s63 24 63 69v289h208
v-295c0 -146 -97 -233 -271 -233z" />
    <glyph glyph-name="utilde.ss06" horiz-adv-x="615" 
d="M89 558c0 130 61 173 124 173c36 0 69 -12 92 -22s43 -18 63 -18c19 0 29 13 30 40h129c0 -125 -61 -173 -124 -173c-35 0 -64 11 -91 23c-22 10 -44 17 -64 17c-19 0 -29 -12 -30 -40h-129zM308 -12c-175 0 -272 87 -272 233v295h208v-289c0 -45 22 -69 64 -69
s63 24 63 69v289h208v-295c0 -146 -97 -233 -271 -233z" />
    <glyph glyph-name="ydieresis.ss01.ss07" horiz-adv-x="625" 
d="M208 553c-51 0 -93 42 -93 93c0 50 42 92 93 92c50 0 92 -42 92 -92c0 -51 -42 -93 -92 -93zM427 553c-51 0 -93 42 -93 93c0 49 43 92 93 92s92 -42 92 -92c0 -51 -42 -93 -92 -93zM413 516h214l-184 -474l-96 -246h-214l81 180l-216 540h222l20 -67
c26 -86 47 -162 74 -263c28 100 51 176 78 262z" />
    <glyph glyph-name="y.ss07" horiz-adv-x="625" 
d="M413 516h214l-184 -474l-96 -246h-214l81 180l-216 540h222l20 -67c26 -86 47 -162 74 -263c28 100 51 176 78 262z" />
    <glyph glyph-name="yacute.ss07" horiz-adv-x="625" 
d="M538 713l-148 -154h-188l89 154h247zM413 516h214l-184 -474l-96 -246h-214l81 180l-216 540h222l20 -67c26 -86 47 -162 74 -263c28 100 51 176 78 262z" />
    <glyph glyph-name="ycircumflex.ss07" horiz-adv-x="625" 
d="M317 622l-45 -63h-210l130 153h250l130 -153h-210zM413 516h214l-184 -474l-96 -246h-214l81 180l-216 540h222l20 -67c26 -86 47 -162 74 -263c28 100 51 176 78 262z" />
    <glyph glyph-name="ydieresis.ss07" horiz-adv-x="625" 
d="M289 714v-156h-196v156h196zM541 714v-156h-196v156h196zM413 516h214l-184 -474l-96 -246h-214l81 180l-216 540h222l20 -67c26 -86 47 -162 74 -263c28 100 51 176 78 262z" />
    <glyph glyph-name="ygrave.ss07" horiz-adv-x="625" 
d="M437 559h-188l-148 154h247zM413 516h214l-184 -474l-96 -246h-214l81 180l-216 540h222l20 -67c26 -86 47 -162 74 -263c28 100 51 176 78 262z" />
    <glyph glyph-name="l.ss08" horiz-adv-x="331" 
d="M235 -5c-142 0 -199 48 -199 163v554h208v-512c0 -43 16 -46 44 -46h28v-154c-25 -3 -52 -5 -81 -5z" />
    <glyph glyph-name="lacute.ss08" horiz-adv-x="331" 
d="M25 755l89 154h247l-148 -154h-188zM235 -5c-142 0 -199 48 -199 163v554h208v-512c0 -43 16 -46 44 -46h28v-154c-25 -3 -52 -5 -81 -5z" />
    <glyph glyph-name="lcaron.ss08" horiz-adv-x="481" 
d="M235 -5c-142 0 -199 48 -199 163v554h208v-512c0 -43 16 -46 44 -46h28v-154c-25 -3 -52 -5 -81 -5zM275 529l24 183h192l-87 -183h-129z" />
    <glyph glyph-name="uni013C.ss08" horiz-adv-x="331" 
d="M288 154h28v-154c-25 -3 -52 -5 -81 -5c-142 0 -199 48 -199 163v554h208v-512c0 -43 16 -46 44 -46zM54 -188v131h172v-134c0 -76 -47 -107 -137 -107h-35v63h35c25 0 40 10 40 42v5h-75z" />
    <glyph glyph-name="ldot.ss08" horiz-adv-x="543" 
d="M253 -5c-155 0 -217 48 -217 163v554h208v-512c0 -43 22 -46 59 -46h38v-154c-27 -3 -56 -5 -88 -5zM295 251v206h212v-206h-212z" />
    <glyph glyph-name="lslash.ss08" horiz-adv-x="377" 
d="M362 375l-85 -36v-139c0 -36 11 -46 52 -46h33v-154c-26 -3 -54 -5 -85 -5c-148 0 -208 48 -208 163v92l-69 -29v117l69 29v345h208v-256l85 36v-117z" />
    <glyph glyph-name="uni013C.ss01.ss08" horiz-adv-x="331" 
d="M288 154h28v-154c-25 -3 -52 -5 -81 -5c-142 0 -199 48 -199 163v554h208v-512c0 -43 16 -46 44 -46zM135 -51c66 0 96 -43 96 -106v-2c0 -72 -41 -139 -153 -139h-18v63h22c35 0 53 12 59 42h-8c-50 0 -82 27 -82 70c0 44 32 72 84 72z" />
    <glyph glyph-name="ldot.ss01.ss08" horiz-adv-x="558" 
d="M253 -5c-155 0 -217 48 -217 163v554h208v-512c0 -43 22 -46 59 -46h38v-154c-27 -3 -56 -5 -88 -5zM397 231c-69 0 -127 54 -127 124c0 68 58 123 127 123s125 -55 125 -123c0 -70 -56 -124 -125 -124z" />
    <glyph glyph-name="fi.ss01" horiz-adv-x="709" 
d="M569 552c-56 0 -102 46 -102 102c0 55 46 101 102 101c55 0 101 -46 101 -101c0 -56 -46 -102 -101 -102zM92 541c0 142 77 182 216 182c31 0 67 -2 101 -5v-152c-21 2 -39 3 -53 3c-46 0 -56 -11 -56 -53h109v-143h-109v-373h-208v373h-82v143h82v25zM465 516h208v-516
h-208v516z" />
    <glyph glyph-name="fl.ss08" horiz-adv-x="755" 
d="M92 541c0 142 77 182 216 182c31 0 67 -2 101 -5v-152c-21 2 -39 3 -53 3c-46 0 -56 -11 -56 -53h109v-143h-109v-373h-208v373h-82v143h82v25zM712 154h28v-154c-25 -3 -52 -5 -81 -5c-142 0 -199 48 -199 163v554h208v-512c0 -43 16 -46 44 -46z" />
    <glyph glyph-name="ordfeminine" unicode="&#xaa;" horiz-adv-x="525" 
d="M495 262h-174c-5 14 -8 27 -9 41c-25 -31 -67 -51 -132 -51c-93 0 -170 44 -170 142c0 89 57 132 183 142l72 6c30 2 41 9 41 28c0 20 -13 27 -51 27c-32 0 -42 -10 -45 -41h-177c5 103 66 165 231 165c155 0 218 -53 218 -141v-232c0 -23 2 -57 13 -86zM240 371
c44 0 66 24 66 70v13c-7 -8 -18 -11 -31 -12l-43 -4c-28 -3 -39 -15 -39 -33c0 -21 15 -34 47 -34z" />
    <glyph glyph-name="ordmasculine" unicode="&#xba;" horiz-adv-x="516" 
d="M257 252c-153 0 -247 92 -247 234c0 144 94 235 247 235s249 -91 249 -235c0 -142 -96 -234 -249 -234zM257 393c42 0 69 25 69 94s-27 93 -69 93s-67 -24 -67 -93s25 -94 67 -94z" />
    <glyph glyph-name="ordfeminine.ss02" horiz-adv-x="508" 
d="M318 712h180v-450h-175v54c-26 -39 -65 -64 -123 -64c-119 0 -190 92 -190 234s71 235 190 235c54 0 92 -22 118 -57v48zM255 393c45 0 65 28 65 94c0 65 -20 93 -65 93c-44 0 -65 -28 -65 -93c0 -66 21 -94 65 -94z" />
    <glyph glyph-name="h.sups" unicode="&#x2b0;" horiz-adv-x="486" 
d="M319 721c94 0 157 -62 157 -173v-286h-180v246c0 34 -10 61 -50 61c-27 0 -56 -19 -56 -69v-238h-180v619h180v-217c28 29 69 57 129 57z" />
    <glyph glyph-name="n.sups" unicode="&#x207f;" horiz-adv-x="486" 
d="M319 721c94 0 157 -62 157 -173v-286h-180v246c0 34 -10 61 -50 61c-27 0 -56 -19 -56 -69v-238h-180v450h176v-53c28 31 70 62 133 62z" />
    <glyph glyph-name="r.sups" unicode="&#x2b3;" horiz-adv-x="343" 
d="M296 719c12 0 26 -1 37 -2v-162h-40c-75 0 -103 -30 -103 -113v-180h-180v450h176v-80c17 58 54 87 110 87z" />
    <glyph glyph-name="s.sups" unicode="&#x2e2;" horiz-adv-x="486" 
d="M235 247c-146 0 -218 48 -225 159h174c4 -34 18 -43 60 -43c38 0 52 6 52 22c0 17 -14 24 -56 30l-71 10c-108 15 -154 62 -154 142c0 104 78 154 223 154c143 0 219 -54 224 -160h-166c-3 31 -22 46 -59 46c-30 0 -47 -9 -47 -25s11 -23 43 -27l74 -10
c117 -16 169 -59 169 -141c0 -102 -78 -157 -241 -157z" />
    <glyph glyph-name="uni0394" unicode="&#x394;" horiz-adv-x="715" 
d="M490 712l200 -526v-186h-665v186l192 526h273zM352 498c-7 -25 -15 -50 -22 -72l-77 -228h200l-79 228c-7 22 -15 47 -22 72z" />
    <glyph glyph-name="uni03A9" unicode="&#x3a9;" horiz-adv-x="813" 
d="M19 0v194h124v4c-78 59 -118 127 -118 228c0 176 135 304 376 304c246 0 387 -128 387 -304c0 -101 -41 -169 -118 -228v-4h124v-194h-353v173c75 30 118 104 118 197c0 113 -62 164 -151 164c-91 0 -152 -51 -152 -164c0 -93 43 -167 118 -197v-173h-355z" />
    <glyph glyph-name="uni03BC" unicode="&#x3bc;" horiz-adv-x="612" 
d="M368 516h208v-516h-204v59c-39 -45 -81 -68 -133 -70v-185h-203v712h208v-293c0 -37 15 -59 57 -59c34 0 67 18 67 66v286z" />
    <glyph glyph-name="pi" unicode="&#x3c0;" horiz-adv-x="701" 
d="M681 373h-70v-196c0 -28 10 -35 33 -35c7 0 15 0 24 1v-142c-39 -4 -73 -6 -102 -6c-124 0 -163 39 -163 166v212h-114v-373h-208v373h-71v143h671v-143z" />
    <glyph glyph-name="d.sups" unicode="&#x1d48;" horiz-adv-x="507" 
d="M317 881h180v-619h-174v54c-26 -39 -65 -64 -123 -64c-119 0 -190 92 -190 234s71 235 190 235c54 0 91 -21 117 -56v216zM255 393c45 0 65 28 65 94c0 65 -20 93 -65 93c-44 0 -65 -28 -65 -93c0 -66 21 -94 65 -94z" />
    <glyph glyph-name="n.subs" unicode="&#x2099;" horiz-adv-x="486" 
d="M319 263c94 0 157 -62 157 -173v-286h-180v246c0 34 -10 61 -50 61c-27 0 -56 -19 -56 -69v-238h-180v450h176v-53c28 31 70 62 133 62z" />
    <glyph glyph-name="t.sups.ss05" horiz-adv-x="354" 
d="M344 712v-127h-77v-323h-180v323h-77v127h77v136h180v-136h77z" />
    <glyph glyph-name="t.sups" unicode="&#x1d57;" horiz-adv-x="339" 
d="M329 585h-77v-156c0 -26 6 -33 38 -33h39v-132c-18 -2 -44 -4 -72 -4c-145 0 -185 51 -185 149v176h-62v127h62v136h180v-136h77v-127z" />
    <glyph glyph-name="uni24FF" unicode="&#x24ff;" horiz-adv-x="956" 
d="M478 -107c-268 0 -478 205 -478 463s210 463 478 463s478 -205 478 -463s-210 -463 -478 -463zM478 123c129 0 196 79 196 233c0 155 -66 234 -196 234s-196 -79 -196 -234s66 -233 196 -233zM479 227c-48 0 -66 37 -66 129c0 93 18 130 66 130c47 0 64 -37 64 -130
s-17 -129 -64 -129z" />
    <glyph glyph-name="uni2776" unicode="&#x2776;" horiz-adv-x="956" 
d="M478 -107c-268 0 -478 205 -478 463s210 463 478 463s478 -205 478 -463s-210 -463 -478 -463zM433 133h125v447h-97c-25 -74 -81 -85 -124 -85v-84h96v-278z" />
    <glyph glyph-name="uni2777" unicode="&#x2777;" horiz-adv-x="956" 
d="M478 -107c-268 0 -478 205 -478 463s210 463 478 463s478 -205 478 -463s-210 -463 -478 -463zM299 154h359v103h-209c7 25 30 38 55 50l21 10c90 42 135 79 135 159c0 82 -68 135 -172 135s-165 -55 -179 -164h122c3 40 22 61 57 61c30 0 46 -15 46 -43
c0 -24 -20 -40 -63 -60l-36 -17c-99 -47 -129 -121 -133 -187z" />
    <glyph glyph-name="uni2778" unicode="&#x2778;" horiz-adv-x="956" 
d="M478 -107c-268 0 -478 205 -478 463s210 463 478 463s478 -205 478 -463s-210 -463 -478 -463zM485 123c110 0 181 57 181 143c0 48 -27 87 -74 105c39 21 62 55 62 93c0 78 -64 126 -171 126c-117 0 -175 -48 -181 -149h120c5 37 22 51 60 51c33 0 52 -14 52 -40
c0 -32 -16 -44 -56 -44h-35v-88h34c40 0 60 -16 60 -49c0 -27 -22 -44 -57 -44c-49 0 -68 19 -69 70h-120c2 -114 67 -174 194 -174z" />
    <glyph glyph-name="uni2779" unicode="&#x2779;" horiz-adv-x="956" 
d="M478 -107c-268 0 -478 205 -478 463s210 463 478 463s478 -205 478 -463s-210 -463 -478 -463zM473 133h125v87h53v99h-53v261h-129l-194 -238v-122h198v-87zM362 319l114 140v-140h-114z" />
    <glyph glyph-name="uni277A" unicode="&#x277a;" horiz-adv-x="956" 
d="M478 -107c-268 0 -478 205 -478 463s210 463 478 463s478 -205 478 -463s-210 -463 -478 -463zM478 114c110 0 183 64 183 159c0 74 -45 147 -159 147c-26 0 -48 -6 -68 -16l12 63h193v103h-290l-42 -263h116c11 19 30 29 55 29c38 0 65 -26 65 -63
c0 -38 -26 -63 -65 -63c-30 0 -53 17 -59 44h-120c7 -85 77 -140 179 -140z" />
    <glyph glyph-name="uni277B" unicode="&#x277b;" horiz-adv-x="956" 
d="M478 -107c-268 0 -478 205 -478 463s210 463 478 463s478 -205 478 -463s-210 -463 -478 -463zM478 123c109 0 181 64 181 160c0 74 -49 147 -156 147c-43 0 -76 -12 -99 -35v5c7 74 26 99 74 99c28 0 48 -13 57 -36h117c-13 81 -75 127 -172 127
c-125 0 -192 -82 -192 -236c0 -98 25 -164 76 -199c29 -20 70 -32 114 -32zM478 220c-37 0 -62 24 -62 60s25 60 62 60c38 0 63 -24 63 -60s-25 -60 -63 -60z" />
    <glyph glyph-name="uni277C" unicode="&#x277c;" horiz-adv-x="956" 
d="M478 -107c-268 0 -478 205 -478 463s210 463 478 463s478 -205 478 -463s-210 -463 -478 -463zM383 121h136c1 176 43 261 121 346v101h-324v-103h205c-70 -77 -136 -196 -138 -344z" />
    <glyph glyph-name="uni277D" unicode="&#x277d;" horiz-adv-x="956" 
d="M478 -107c-268 0 -478 205 -478 463s210 463 478 463s478 -205 478 -463s-210 -463 -478 -463zM478 123c116 0 191 55 191 139c0 53 -24 87 -74 106c36 21 54 53 54 95c0 80 -63 127 -171 127c-107 0 -170 -47 -170 -127c0 -41 18 -74 54 -95c-50 -19 -74 -53 -74 -106
c0 -84 75 -139 190 -139zM478 405c-37 0 -58 17 -58 48s21 48 58 48s58 -17 58 -48s-21 -48 -58 -48zM478 219c-43 0 -66 18 -66 53c0 36 24 56 66 56c43 0 67 -20 67 -56c0 -35 -23 -53 -67 -53z" />
    <glyph glyph-name="uni277E" unicode="&#x277e;" horiz-adv-x="956" 
d="M478 -107c-268 0 -478 205 -478 463s210 463 478 463s478 -205 478 -463s-210 -463 -478 -463zM482 119c120 0 196 75 196 240c0 91 -22 162 -79 202c-29 21 -71 33 -116 33c-107 0 -185 -62 -185 -164c0 -75 52 -151 161 -151c37 0 67 10 90 27l4 3l-1 -10
c-8 -64 -30 -81 -69 -81c-21 0 -45 7 -53 36h-125c12 -90 81 -135 177 -135zM483 377c-36 0 -58 24 -58 56s22 56 58 56s58 -24 58 -56s-22 -56 -58 -56z" />
    <glyph glyph-name="uni24EA" unicode="&#x24ea;" horiz-adv-x="956" 
d="M478 -107c-268 0 -478 205 -478 463s210 463 478 463s478 -205 478 -463s-210 -463 -478 -463zM479 30c187 0 330 141 330 326s-143 326 -330 326s-330 -141 -330 -326s143 -326 330 -326zM478 120c-138 0 -205 79 -205 236c0 160 67 238 205 238c137 0 205 -78 205 -238
c0 -157 -68 -236 -205 -236zM479 243c32 0 50 13 50 113c0 102 -18 114 -50 114s-52 -12 -52 -114c0 -100 20 -113 52 -113z" />
    <glyph glyph-name="uni2460" unicode="&#x2460;" horiz-adv-x="956" 
d="M478 819c268 0 478 -205 478 -463s-210 -463 -478 -463s-478 205 -478 463s210 463 478 463zM479 30c187 0 330 141 330 326s-143 326 -330 326s-330 -141 -330 -326s143 -326 330 -326zM569 584v-455h-147v267h-93v101c69 0 106 26 125 87h115z" />
    <glyph glyph-name="uni2461" unicode="&#x2461;" horiz-adv-x="956" 
d="M478 819c268 0 478 -205 478 -463s-210 -463 -478 -463s-478 205 -478 463s210 463 478 463zM479 30c187 0 330 141 330 326s-143 326 -330 326s-330 -141 -330 -326s143 -326 330 -326zM513 299c-17 -8 -33 -16 -43 -29h194v-124h-376v29c0 95 41 176 141 219l37 16
c44 19 53 31 53 49c0 15 -9 28 -35 28c-27 0 -38 -15 -41 -48h-143c7 114 75 172 184 172c117 0 183 -52 183 -139c0 -82 -40 -119 -133 -163z" />
    <glyph glyph-name="uni2462" unicode="&#x2462;" horiz-adv-x="956" 
d="M478 819c268 0 478 -205 478 -463s-210 -463 -478 -463s-478 205 -478 463s210 463 478 463zM479 30c187 0 330 141 330 326s-143 326 -330 326s-330 -141 -330 -326s143 -326 330 -326zM608 371c47 -21 68 -60 68 -106c0 -85 -70 -145 -197 -145
c-125 0 -189 59 -196 174h142c3 -39 17 -51 51 -51c32 0 47 12 47 34s-14 34 -46 34h-37v106h36c33 0 46 9 46 30c0 20 -15 30 -43 30c-30 0 -41 -15 -44 -42h-142c4 94 54 159 187 159c120 0 185 -53 185 -127c0 -44 -23 -77 -57 -96z" />
    <glyph glyph-name="uni2463" unicode="&#x2463;" horiz-adv-x="956" 
d="M478 819c268 0 478 -205 478 -463s-210 -463 -478 -463s-478 205 -478 463s210 463 478 463zM479 30c187 0 330 141 330 326s-143 326 -330 326s-330 -141 -330 -326s143 -326 330 -326zM606 588v-255h51v-119h-51v-81h-147v81h-190v141l188 233h149zM462 439l-85 -106
h85v106z" />
    <glyph glyph-name="uni2464" unicode="&#x2464;" horiz-adv-x="956" 
d="M478 819c268 0 478 -205 478 -463s-210 -463 -478 -463s-478 205 -478 463s210 463 478 463zM479 30c187 0 330 141 330 326s-143 326 -330 326s-330 -141 -330 -326s143 -326 330 -326zM506 429c111 0 161 -73 161 -152c0 -102 -82 -163 -192 -163
c-97 0 -181 50 -186 151h139c5 -26 26 -36 47 -36c30 0 52 20 52 50c0 29 -22 49 -52 49c-20 0 -35 -9 -44 -23h-135l43 273h306v-123h-192l-7 -35c17 6 37 9 60 9z" />
    <glyph glyph-name="uni2465" unicode="&#x2465;" horiz-adv-x="956" 
d="M478 819c268 0 478 -205 478 -463s-210 -463 -478 -463s-478 205 -478 463s210 463 478 463zM479 30c187 0 330 141 330 326s-143 326 -330 326s-330 -141 -330 -326s143 -326 330 -326zM511 435c108 0 161 -72 161 -153c0 -100 -82 -162 -188 -162c-49 0 -91 14 -123 36
c-54 37 -77 108 -77 198c0 165 72 240 201 240c101 0 165 -47 180 -138h-137c-5 17 -19 29 -49 29c-31 0 -52 -12 -58 -74c23 15 53 24 90 24zM483 235c30 0 49 20 49 46c0 27 -19 46 -49 46c-31 0 -50 -19 -50 -46c0 -26 19 -46 50 -46z" />
    <glyph glyph-name="uni2466" unicode="&#x2466;" horiz-adv-x="956" 
d="M478 819c268 0 478 -205 478 -463s-210 -463 -478 -463s-478 205 -478 463s210 463 478 463zM479 30c187 0 330 141 330 326s-143 326 -330 326s-330 -141 -330 -326s143 -326 330 -326zM313 445v123h337v-118c-71 -79 -111 -156 -111 -337h-159c0 146 63 260 124 332
h-191z" />
    <glyph glyph-name="uni2467" unicode="&#x2467;" horiz-adv-x="956" 
d="M478 819c268 0 478 -205 478 -463s-210 -463 -478 -463s-478 205 -478 463s210 463 478 463zM479 30c187 0 330 141 330 326s-143 326 -330 326s-330 -141 -330 -326s143 -326 330 -326zM609 370c47 -21 68 -57 68 -106c0 -86 -75 -143 -199 -143s-198 57 -198 143
c0 49 21 85 68 106c-33 22 -49 55 -49 94c0 82 64 131 179 131c116 0 180 -49 180 -131c0 -40 -16 -72 -49 -94zM479 488c-31 0 -47 -12 -47 -36c0 -26 16 -38 47 -38c29 0 45 12 45 38c0 24 -16 36 -45 36zM478 235c35 0 52 14 52 42c0 29 -17 44 -52 44s-52 -15 -52 -44
c0 -28 17 -42 52 -42z" />
    <glyph glyph-name="uni2468" unicode="&#x2468;" horiz-adv-x="956" 
d="M478 819c268 0 478 -205 478 -463s-210 -463 -478 -463s-478 205 -478 463s210 463 478 463zM479 30c187 0 330 141 330 326s-143 326 -330 326s-330 -141 -330 -326s143 -326 330 -326zM609 557c54 -39 77 -107 77 -198c0 -165 -72 -239 -201 -239
c-101 0 -165 46 -180 137h137c5 -18 20 -29 49 -29c31 0 52 12 58 74c-23 -15 -54 -24 -90 -24c-108 0 -161 73 -161 153c0 100 81 163 188 163c49 0 91 -14 123 -37zM487 386c31 0 50 20 50 46s-19 46 -50 46s-49 -20 -49 -46s18 -46 49 -46z" />
    <glyph glyph-name="zero.ss09" horiz-adv-x="958" 
d="M25 -88v888h908v-888h-908zM479 126c134 0 200 77 200 230c0 155 -66 231 -200 231s-200 -76 -200 -231c0 -153 66 -230 200 -230zM480 246c-31 0 -51 13 -51 110c0 99 20 111 51 111s49 -12 49 -111c0 -97 -18 -110 -49 -110z" />
    <glyph glyph-name="one.ss09" horiz-adv-x="958" 
d="M25 -88v888h908v-888h-908zM431 136h129v441h-101c-24 -74 -80 -82 -122 -82v-90h94v-269z" />
    <glyph glyph-name="two.ss09" horiz-adv-x="958" 
d="M25 -88v888h908v-888h-908zM299 156h358v108h-202c8 20 28 30 50 41l20 10c87 43 134 78 134 158c0 81 -68 135 -171 135c-109 0 -167 -61 -178 -167h127c0 53 31 59 51 59s40 -8 40 -38c0 -21 -17 -34 -59 -54l-35 -17c-95 -46 -128 -120 -132 -186z" />
    <glyph glyph-name="three.ss09" horiz-adv-x="958" 
d="M25 -88v888h908v-888h-908zM483 126c116 0 181 61 181 142c0 46 -24 84 -67 104c31 19 55 51 55 89c0 78 -63 126 -170 126c-128 0 -175 -57 -181 -152h126c3 36 19 49 54 49c29 0 46 -11 46 -35c0 -33 -19 -38 -50 -38h-37v-94h36c33 0 54 -10 54 -43
c0 -24 -18 -40 -51 -40c-46 0 -62 16 -64 68h-124c0 -108 56 -176 192 -176z" />
    <glyph glyph-name="four.ss09" horiz-adv-x="958" 
d="M25 -88v888h908v-888h-908zM469 136h130v84h51v104h-51v253h-132l-190 -234v-123h192v-84zM372 324l100 122v-122h-100z" />
    <glyph glyph-name="five.ss09" horiz-adv-x="958" 
d="M25 -88v888h908v-888h-908zM477 116c107 0 186 60 186 160c0 76 -48 147 -156 147c-23 0 -42 -3 -59 -9l7 34h187v120h-298l-42 -266h132c7 14 23 23 43 23c29 0 50 -19 50 -48s-21 -48 -50 -48c-21 0 -42 10 -46 35h-135c4 -98 85 -148 181 -148z" />
    <glyph glyph-name="six.ss09" horiz-adv-x="958" 
d="M25 -88v888h908v-888h-908zM479 126c104 0 183 61 183 158c0 78 -51 149 -156 149c-36 0 -65 -9 -88 -24v3c0 58 28 69 57 69c28 0 42 -11 47 -28h134c-15 89 -77 134 -176 134c-125 0 -195 -73 -195 -233c0 -88 22 -155 75 -193c31 -22 72 -35 119 -35zM478 238
c-30 0 -48 20 -48 45c0 26 18 45 48 45s48 -19 48 -45c0 -25 -18 -45 -48 -45z" />
    <glyph glyph-name="seven.ss09" horiz-adv-x="958" 
d="M25 -88v888h908v-888h-908zM380 124h155c0 175 38 250 108 327v114h-329v-119h186c-59 -71 -120 -181 -120 -322z" />
    <glyph glyph-name="eight.ss09" horiz-adv-x="958" 
d="M25 -88v888h908v-888h-908zM479 126c121 0 194 56 194 139c0 48 -21 82 -67 104c32 20 48 52 48 91c0 80 -62 127 -175 127c-111 0 -173 -47 -173 -127c0 -39 15 -70 47 -91c-46 -21 -67 -56 -67 -104c0 -83 73 -139 193 -139zM480 412c-30 0 -45 11 -45 36
c0 24 15 35 45 35c29 0 44 -11 44 -35c0 -25 -15 -36 -44 -36zM479 237c-33 0 -50 14 -50 41c0 29 17 43 50 43c34 0 51 -14 51 -43c0 -27 -17 -41 -51 -41z" />
    <glyph glyph-name="nine.ss09" horiz-adv-x="958" 
d="M25 -88v888h908v-888h-908zM481 126c125 0 195 73 195 233c0 88 -22 155 -75 193c-31 22 -72 35 -119 35c-104 0 -183 -61 -183 -158c0 -78 51 -149 156 -149c36 0 64 9 87 25l1 -1v-3c0 -58 -28 -69 -57 -69c-28 0 -42 11 -47 28h-134c15 -89 77 -134 176 -134zM483 385
c-30 0 -48 19 -48 45c0 25 18 45 48 45s48 -20 48 -45c0 -26 -18 -45 -48 -45z" />
    <glyph glyph-name="zero.ss10" horiz-adv-x="958" 
d="M25 -88v888h908v-888h-908zM173 45h612v622h-612v-622zM479 120c-138 0 -205 79 -205 236c0 160 67 238 205 238c137 0 205 -78 205 -238c0 -157 -68 -236 -205 -236zM480 243c32 0 50 13 50 113c0 102 -18 114 -50 114s-52 -12 -52 -114c0 -100 20 -113 52 -113z" />
    <glyph glyph-name="one.ss10" horiz-adv-x="958" 
d="M25 800h908v-888h-908v888zM785 45v622h-612v-622h612zM434 129v267h-93v101c69 0 106 26 125 87h115v-455h-147z" />
    <glyph glyph-name="two.ss10" horiz-adv-x="958" 
d="M25 800h908v-888h-908v888zM785 45v622h-612v-622h612zM666 253v-124h-376v29c0 95 41 176 141 219l37 16c44 19 53 31 53 49c0 15 -9 28 -35 28c-27 0 -38 -15 -41 -48h-143c7 114 75 172 184 172c117 0 183 -52 183 -139c0 -82 -40 -119 -133 -163l-21 -10
c-17 -8 -33 -16 -43 -29h194z" />
    <glyph glyph-name="three.ss10" horiz-adv-x="958" 
d="M25 800h908v-888h-908v888zM785 45v622h-612v-622h612zM475 243c32 0 47 12 47 34s-14 34 -46 34h-37v106h36c33 0 46 9 46 30c0 20 -15 30 -43 30c-30 0 -41 -15 -44 -42h-142c4 94 54 159 187 159c120 0 185 -53 185 -127c0 -44 -23 -77 -57 -96c47 -21 68 -60 68 -106
c0 -85 -70 -145 -197 -145c-125 0 -189 59 -196 174h142c3 -39 17 -51 51 -51z" />
    <glyph glyph-name="four.ss10" horiz-adv-x="958" 
d="M25 800h908v-888h-908v888zM785 45v622h-612v-622h612zM475 129v81h-190v141l188 233h149v-255h51v-119h-51v-81h-147zM478 435l-85 -106h85v106z" />
    <glyph glyph-name="five.ss10" horiz-adv-x="958" 
d="M25 800h908v-888h-908v888zM785 45v622h-612v-622h612zM476 235c30 0 52 20 52 50c0 29 -22 49 -52 49c-20 0 -35 -9 -44 -23h-135l43 273h306v-123h-192l-7 -35c17 6 37 9 60 9c111 0 161 -73 161 -152c0 -102 -82 -163 -192 -163c-97 0 -181 50 -186 151h139
c5 -26 26 -36 47 -36z" />
    <glyph glyph-name="six.ss10" horiz-adv-x="958" 
d="M25 800h908v-888h-908v888zM785 45v622h-612v-622h612zM362 156c-54 37 -77 108 -77 198c0 165 72 240 201 240c101 0 165 -47 180 -138h-137c-5 17 -19 29 -49 29c-31 0 -52 -12 -58 -74c23 15 53 24 90 24c108 0 161 -72 161 -153c0 -100 -82 -162 -188 -162
c-49 0 -91 14 -123 36zM484 327c-31 0 -50 -19 -50 -46c0 -26 19 -46 50 -46c30 0 49 20 49 46c0 27 -19 46 -49 46z" />
    <glyph glyph-name="seven.ss10" horiz-adv-x="958" 
d="M25 800h908v-888h-908v888zM785 45v622h-612v-622h612zM378 129c0 146 63 260 124 332h-191v123h337v-118c-71 -79 -111 -156 -111 -337h-159z" />
    <glyph glyph-name="eight.ss10" horiz-adv-x="958" 
d="M25 800h908v-888h-908v888zM785 45v622h-612v-622h612zM281 263c0 49 21 85 68 106c-33 22 -49 55 -49 94c0 82 64 131 179 131c116 0 180 -49 180 -131c0 -40 -16 -72 -49 -94c47 -21 68 -57 68 -106c0 -86 -75 -143 -199 -143s-198 57 -198 143zM480 487
c-31 0 -47 -12 -47 -36c0 -26 16 -38 47 -38c29 0 45 12 45 38c0 24 -16 36 -45 36zM479 234c35 0 52 14 52 42c0 29 -17 44 -52 44s-52 -15 -52 -44c0 -28 17 -42 52 -42z" />
    <glyph glyph-name="nine.ss10" horiz-adv-x="958" 
d="M25 800h908v-888h-908v888zM785 45v622h-612v-622h612zM446 277c-108 0 -161 73 -161 153c0 100 81 163 188 163c49 0 91 -14 123 -37c54 -39 77 -107 77 -198c0 -165 -72 -239 -201 -239c-101 0 -165 46 -180 137h137c5 -18 20 -29 49 -29c31 0 52 12 58 74
c-23 -15 -54 -24 -90 -24zM474 477c-31 0 -49 -20 -49 -46s18 -46 49 -46s50 20 50 46s-19 46 -50 46z" />
    <glyph glyph-name="zero.zero" horiz-adv-x="717" 
d="M359 728c223 0 333 -136 333 -372s-109 -372 -333 -372s-333 136 -333 372s109 372 333 372zM359 548c-61 0 -98 -46 -98 -192c0 -25 1 -47 3 -66l160 228c-17 21 -38 30 -65 30zM359 164c62 0 98 46 98 192c0 23 -1 44 -3 63l-158 -227c16 -20 37 -28 63 -28z" />
    <glyph glyph-name="zero.subs" unicode="&#x2080;" horiz-adv-x="413" 
d="M206 -205c-125 0 -186 72 -186 215c0 145 61 216 186 216s187 -71 187 -216c0 -143 -62 -215 -187 -215zM207 -93c29 0 46 12 46 103c0 93 -17 104 -46 104s-47 -11 -47 -104c0 -91 18 -103 47 -103z" />
    <glyph glyph-name="one.subs" unicode="&#x2081;" horiz-adv-x="259" 
d="M234 217v-413h-134v242h-85v92c63 0 97 24 114 79h105z" />
    <glyph glyph-name="two.subs" unicode="&#x2082;" horiz-adv-x="374" 
d="M220 -57c-16 -8 -30 -15 -40 -27h177v-112h-342v26c0 86 39 158 129 199l33 15c39 18 48 28 48 44c0 14 -8 26 -31 26c-26 0 -36 -14 -38 -44h-130c6 103 68 156 168 156c106 0 166 -47 166 -126c0 -75 -36 -108 -121 -148z" />
    <glyph glyph-name="three.subs" unicode="&#x2083;" horiz-adv-x="381" 
d="M311 23c42 -18 62 -53 62 -96c0 -77 -64 -132 -179 -132c-114 0 -172 54 -178 159h129c2 -36 15 -47 46 -47c29 0 43 11 43 31s-13 31 -42 31h-34v96h33c30 0 42 9 42 28c0 18 -14 27 -39 27c-27 0 -37 -14 -40 -38h-129c4 85 48 144 170 144c109 0 168 -48 168 -115
c0 -40 -21 -70 -52 -88z" />
    <glyph glyph-name="four.subs" unicode="&#x2084;" horiz-adv-x="395" 
d="M380 -15v-108h-46v-73h-134v73h-173v128l171 212h136v-232h46zM203 82l-78 -97h78v97z" />
    <glyph glyph-name="five.subs" unicode="&#x2085;" horiz-adv-x="363" 
d="M209 82c101 0 146 -67 146 -138c0 -93 -74 -149 -174 -149c-89 0 -165 46 -169 138h126c4 -24 24 -33 43 -33c27 0 47 18 47 45s-20 45 -47 45c-18 0 -33 -8 -40 -21h-123l39 248h278v-112h-174l-6 -31c15 5 33 8 54 8z" />
    <glyph glyph-name="six.subs" unicode="&#x2086;" horiz-adv-x="374" 
d="M220 82c98 0 146 -66 146 -139c0 -91 -74 -148 -171 -148c-44 0 -83 12 -112 33c-49 35 -70 98 -70 180c0 150 66 218 183 218c92 0 150 -42 164 -125h-125c-5 16 -18 26 -44 26c-28 0 -47 -11 -53 -67c21 14 49 22 82 22zM194 -100c28 0 45 18 45 42s-17 42 -45 42
s-45 -18 -45 -42s17 -42 45 -42z" />
    <glyph glyph-name="seven.subs" unicode="&#x2087;" horiz-adv-x="338" 
d="M15 217h307v-107c-65 -72 -101 -142 -101 -306h-145c0 132 57 235 113 301h-174v112z" />
    <glyph glyph-name="eight.subs" unicode="&#x2088;" horiz-adv-x="389" 
d="M313 22c43 -20 62 -52 62 -97c0 -78 -68 -130 -181 -130c-112 0 -180 52 -180 130c0 45 19 78 62 97c-30 20 -44 49 -44 85c0 75 58 119 162 119c106 0 164 -44 164 -119c0 -36 -15 -66 -45 -85zM195 129c-28 0 -42 -11 -42 -33c0 -23 14 -34 42 -34c27 0 41 11 41 34
c0 22 -14 33 -41 33zM194 -101c32 0 48 13 48 38c0 27 -16 40 -48 40c-31 0 -47 -13 -47 -40c0 -25 16 -38 47 -38z" />
    <glyph glyph-name="nine.subs" unicode="&#x2089;" horiz-adv-x="374" 
d="M291 193c49 -35 70 -98 70 -180c0 -150 -66 -218 -183 -218c-92 0 -150 42 -164 125h125c5 -16 18 -26 44 -26c28 0 47 11 53 67c-21 -14 -49 -22 -82 -22c-98 0 -146 66 -146 139c0 91 74 148 171 148c44 0 83 -12 112 -33zM180 37c28 0 45 18 45 42s-17 42 -45 42
s-45 -18 -45 -42s17 -42 45 -42z" />
    <glyph glyph-name="zero.sups" unicode="&#x2070;" horiz-adv-x="413" 
d="M206 519c-125 0 -186 72 -186 215c0 145 61 216 186 216s187 -71 187 -216c0 -143 -62 -215 -187 -215zM207 631c29 0 46 12 46 103c0 93 -17 104 -46 104s-47 -11 -47 -104c0 -91 18 -103 47 -103z" />
    <glyph glyph-name="one.sups" unicode="&#xb9;" horiz-adv-x="259" 
d="M234 941v-413h-134v242h-85v92c63 0 97 24 114 79h105z" />
    <glyph glyph-name="two.sups" unicode="&#xb2;" horiz-adv-x="374" 
d="M220 667c-16 -8 -30 -15 -40 -27h177v-112h-342v26c0 86 39 158 129 199l33 15c39 18 48 28 48 44c0 14 -8 26 -31 26c-26 0 -36 -14 -38 -44h-130c6 103 68 156 168 156c106 0 166 -47 166 -126c0 -75 -36 -108 -121 -148z" />
    <glyph glyph-name="three.sups" unicode="&#xb3;" horiz-adv-x="381" 
d="M311 747c42 -18 62 -53 62 -96c0 -77 -64 -132 -179 -132c-114 0 -172 54 -178 159h129c2 -36 15 -47 46 -47c29 0 43 11 43 31s-13 31 -42 31h-34v96h33c30 0 42 9 42 28c0 18 -14 27 -39 27c-27 0 -37 -14 -40 -38h-129c4 85 48 144 170 144c109 0 168 -48 168 -115
c0 -40 -21 -70 -52 -88z" />
    <glyph glyph-name="four.sups" unicode="&#x2074;" horiz-adv-x="395" 
d="M380 709v-108h-46v-73h-134v73h-173v128l171 212h136v-232h46zM203 806l-78 -97h78v97z" />
    <glyph glyph-name="five.sups" unicode="&#x2075;" horiz-adv-x="363" 
d="M209 806c101 0 146 -67 146 -138c0 -93 -74 -149 -174 -149c-89 0 -165 46 -169 138h126c4 -24 24 -33 43 -33c27 0 47 18 47 45s-20 45 -47 45c-18 0 -33 -8 -40 -21h-123l39 248h278v-112h-174l-6 -31c15 5 33 8 54 8z" />
    <glyph glyph-name="six.sups" unicode="&#x2076;" horiz-adv-x="374" 
d="M220 806c98 0 146 -66 146 -139c0 -91 -74 -148 -171 -148c-44 0 -83 12 -112 33c-49 35 -70 98 -70 180c0 150 66 218 183 218c92 0 150 -42 164 -125h-125c-5 16 -18 26 -44 26c-28 0 -47 -11 -53 -67c21 14 49 22 82 22zM194 624c28 0 45 18 45 42s-17 42 -45 42
s-45 -18 -45 -42s17 -42 45 -42z" />
    <glyph glyph-name="seven.sups" unicode="&#x2077;" horiz-adv-x="338" 
d="M15 941h307v-107c-65 -72 -101 -142 -101 -306h-145c0 132 57 235 113 301h-174v112z" />
    <glyph glyph-name="eight.sups" unicode="&#x2078;" horiz-adv-x="389" 
d="M313 746c43 -20 62 -52 62 -97c0 -78 -68 -130 -181 -130c-112 0 -180 52 -180 130c0 45 19 78 62 97c-30 20 -44 49 -44 85c0 75 58 119 162 119c106 0 164 -44 164 -119c0 -36 -15 -66 -45 -85zM195 853c-28 0 -42 -11 -42 -33c0 -23 14 -34 42 -34c27 0 41 11 41 34
c0 22 -14 33 -41 33zM194 623c32 0 48 13 48 38c0 27 -16 40 -48 40c-31 0 -47 -13 -47 -40c0 -25 16 -38 47 -38z" />
    <glyph glyph-name="nine.sups" unicode="&#x2079;" horiz-adv-x="374" 
d="M291 917c49 -35 70 -98 70 -180c0 -150 -66 -218 -183 -218c-92 0 -150 42 -164 125h125c5 -16 18 -26 44 -26c28 0 47 11 53 67c-21 -14 -49 -22 -82 -22c-98 0 -146 66 -146 139c0 91 74 148 171 148c44 0 83 -12 112 -33zM180 761c28 0 45 18 45 42s-17 42 -45 42
s-45 -18 -45 -42s17 -42 45 -42z" />
    <glyph glyph-name="zero.dnom" horiz-adv-x="413" 
d="M206 -9c-125 0 -186 72 -186 215c0 145 61 216 186 216s187 -71 187 -216c0 -143 -62 -215 -187 -215zM207 103c29 0 46 12 46 103c0 93 -17 104 -46 104s-47 -11 -47 -104c0 -91 18 -103 47 -103z" />
    <glyph glyph-name="one.dnom" horiz-adv-x="259" 
d="M234 413v-413h-134v242h-85v92c63 0 97 24 114 79h105z" />
    <glyph glyph-name="two.dnom" horiz-adv-x="374" 
d="M220 139c-16 -8 -30 -15 -40 -27h177v-112h-342v26c0 86 39 158 129 199l33 15c39 18 48 28 48 44c0 14 -8 26 -31 26c-26 0 -36 -14 -38 -44h-130c6 103 68 156 168 156c106 0 166 -47 166 -126c0 -75 -36 -108 -121 -148z" />
    <glyph glyph-name="three.dnom" horiz-adv-x="381" 
d="M311 219c42 -18 62 -53 62 -96c0 -77 -64 -132 -179 -132c-114 0 -172 54 -178 159h129c2 -36 15 -47 46 -47c29 0 43 11 43 31s-13 31 -42 31h-34v96h33c30 0 42 9 42 28c0 18 -14 27 -39 27c-27 0 -37 -14 -40 -38h-129c4 85 48 144 170 144c109 0 168 -48 168 -115
c0 -40 -21 -70 -52 -88z" />
    <glyph glyph-name="four.dnom" horiz-adv-x="395" 
d="M380 181v-108h-46v-73h-134v73h-173v128l171 212h136v-232h46zM203 278l-78 -97h78v97z" />
    <glyph glyph-name="five.dnom" horiz-adv-x="364" 
d="M210 278c101 0 146 -67 146 -138c0 -93 -74 -149 -174 -149c-89 0 -165 46 -169 138h126c4 -24 24 -33 43 -33c27 0 47 18 47 45s-20 45 -47 45c-18 0 -33 -8 -40 -21h-123l39 248h278v-112h-174l-6 -31c15 5 33 8 54 8z" />
    <glyph glyph-name="six.dnom" horiz-adv-x="374" 
d="M220 278c98 0 146 -66 146 -139c0 -91 -74 -148 -171 -148c-44 0 -83 12 -112 33c-49 35 -70 98 -70 180c0 150 66 218 183 218c92 0 150 -42 164 -125h-125c-5 16 -18 26 -44 26c-28 0 -47 -11 -53 -67c21 14 49 22 82 22zM194 96c28 0 45 18 45 42s-17 42 -45 42
s-45 -18 -45 -42s17 -42 45 -42z" />
    <glyph glyph-name="seven.dnom" horiz-adv-x="338" 
d="M15 413h307v-107c-65 -72 -101 -142 -101 -306h-145c0 132 57 235 113 301h-174v112z" />
    <glyph glyph-name="eight.dnom" horiz-adv-x="389" 
d="M313 218c43 -20 62 -52 62 -97c0 -78 -68 -130 -181 -130c-112 0 -180 52 -180 130c0 45 19 78 62 97c-30 20 -44 49 -44 85c0 75 58 119 162 119c106 0 164 -44 164 -119c0 -36 -15 -66 -45 -85zM195 325c-28 0 -42 -11 -42 -33c0 -23 14 -34 42 -34c27 0 41 11 41 34
c0 22 -14 33 -41 33zM194 95c32 0 48 13 48 38c0 27 -16 40 -48 40c-31 0 -47 -13 -47 -40c0 -25 16 -38 47 -38z" />
    <glyph glyph-name="nine.dnom" horiz-adv-x="374" 
d="M291 389c49 -35 70 -98 70 -180c0 -150 -66 -218 -183 -218c-92 0 -150 42 -164 125h125c5 -16 18 -26 44 -26c28 0 47 11 53 67c-21 -14 -49 -22 -82 -22c-98 0 -146 66 -146 139c0 91 74 148 171 148c44 0 83 -12 112 -33zM180 233c28 0 45 18 45 42s-17 42 -45 42
s-45 -18 -45 -42s17 -42 45 -42z" />
    <glyph glyph-name="zero.numr" horiz-adv-x="413" 
d="M206 290c-125 0 -186 72 -186 215c0 145 61 216 186 216s187 -71 187 -216c0 -143 -62 -215 -187 -215zM207 402c29 0 46 12 46 103c0 93 -17 104 -46 104s-47 -11 -47 -104c0 -91 18 -103 47 -103z" />
    <glyph glyph-name="one.numr" horiz-adv-x="259" 
d="M234 712v-413h-134v242h-85v92c63 0 97 24 114 79h105z" />
    <glyph glyph-name="two.numr" horiz-adv-x="374" 
d="M220 438c-16 -8 -30 -15 -40 -27h177v-112h-342v26c0 86 39 158 129 199l33 15c39 18 48 28 48 44c0 14 -8 26 -31 26c-26 0 -36 -14 -38 -44h-130c6 103 68 156 168 156c106 0 166 -47 166 -126c0 -75 -36 -108 -121 -148z" />
    <glyph glyph-name="three.numr" horiz-adv-x="381" 
d="M311 518c42 -18 62 -53 62 -96c0 -77 -64 -132 -179 -132c-114 0 -172 54 -178 159h129c2 -36 15 -47 46 -47c29 0 43 11 43 31s-13 31 -42 31h-34v96h33c30 0 42 9 42 28c0 18 -14 27 -39 27c-27 0 -37 -14 -40 -38h-129c4 85 48 144 170 144c109 0 168 -48 168 -115
c0 -40 -21 -70 -52 -88z" />
    <glyph glyph-name="four.numr" horiz-adv-x="395" 
d="M380 480v-108h-46v-73h-134v73h-173v128l171 212h136v-232h46zM203 577l-78 -97h78v97z" />
    <glyph glyph-name="five.numr" horiz-adv-x="363" 
d="M209 577c101 0 146 -67 146 -138c0 -93 -74 -149 -174 -149c-89 0 -165 46 -169 138h126c4 -24 24 -33 43 -33c27 0 47 18 47 45s-20 45 -47 45c-18 0 -33 -8 -40 -21h-123l39 248h278v-112h-174l-6 -31c15 5 33 8 54 8z" />
    <glyph glyph-name="six.numr" horiz-adv-x="374" 
d="M220 577c98 0 146 -66 146 -139c0 -91 -74 -148 -171 -148c-44 0 -83 12 -112 33c-49 35 -70 98 -70 180c0 150 66 218 183 218c92 0 150 -42 164 -125h-125c-5 16 -18 26 -44 26c-28 0 -47 -11 -53 -67c21 14 49 22 82 22zM194 395c28 0 45 18 45 42s-17 42 -45 42
s-45 -18 -45 -42s17 -42 45 -42z" />
    <glyph glyph-name="seven.numr" horiz-adv-x="338" 
d="M15 712h307v-107c-65 -72 -101 -142 -101 -306h-145c0 132 57 235 113 301h-174v112z" />
    <glyph glyph-name="eight.numr" horiz-adv-x="389" 
d="M313 517c43 -20 62 -52 62 -97c0 -78 -68 -130 -181 -130c-112 0 -180 52 -180 130c0 45 19 78 62 97c-30 20 -44 49 -44 85c0 75 58 119 162 119c106 0 164 -44 164 -119c0 -36 -15 -66 -45 -85zM195 624c-28 0 -42 -11 -42 -33c0 -23 14 -34 42 -34c27 0 41 11 41 34
c0 22 -14 33 -41 33zM194 394c32 0 48 13 48 38c0 27 -16 40 -48 40c-31 0 -47 -13 -47 -40c0 -25 16 -38 47 -38z" />
    <glyph glyph-name="nine.numr" horiz-adv-x="374" 
d="M291 688c49 -35 70 -98 70 -180c0 -150 -66 -218 -183 -218c-92 0 -150 42 -164 125h125c5 -16 18 -26 44 -26c28 0 47 11 53 67c-21 -14 -49 -22 -82 -22c-98 0 -146 66 -146 139c0 91 74 148 171 148c44 0 83 -12 112 -33zM180 532c28 0 45 18 45 42s-17 42 -45 42
s-45 -18 -45 -42s17 -42 45 -42z" />
    <glyph glyph-name="fraction" unicode="&#x2044;" horiz-adv-x="346" 
d="M-74 0l380 712h114l-380 -712h-114z" />
    <glyph glyph-name="onehalf" unicode="&#xbd;" horiz-adv-x="785" 
d="M234 299h-134v242h-85v92c63 0 97 24 114 79h105v-413zM494 712h114l-380 -712h-114zM631 139c-16 -8 -30 -15 -40 -27h177v-112h-342v26c0 86 39 158 129 199l33 15c39 18 48 28 48 44c0 14 -8 26 -31 26c-26 0 -36 -14 -38 -44h-130c6 103 68 156 168 156
c106 0 166 -47 166 -126c0 -75 -36 -108 -121 -148z" />
    <glyph glyph-name="uni2153" unicode="&#x2153;" horiz-adv-x="801" 
d="M234 299h-134v242h-85v92c63 0 97 24 114 79h105v-413zM496 712h114l-380 -712h-114zM731 219c42 -18 62 -53 62 -96c0 -77 -64 -132 -179 -132c-114 0 -172 54 -178 159h129c2 -36 15 -47 46 -47c29 0 43 11 43 31s-13 31 -42 31h-34v96h33c30 0 42 9 42 28
c0 18 -14 27 -39 27c-27 0 -37 -14 -40 -38h-129c4 85 48 144 170 144c109 0 168 -48 168 -115c0 -40 -21 -70 -52 -88z" />
    <glyph glyph-name="uni2154" unicode="&#x2154;" horiz-adv-x="925" 
d="M357 411v-112h-342v26c0 86 39 158 129 199l33 15c39 18 48 28 48 44c0 14 -8 26 -31 26c-26 0 -36 -14 -38 -44h-130c6 103 68 156 168 156c106 0 166 -47 166 -126c0 -75 -36 -108 -121 -148l-19 -9c-16 -8 -30 -15 -40 -27h177zM622 712h114l-380 -712h-114zM855 219
c42 -18 62 -53 62 -96c0 -77 -64 -132 -179 -132c-114 0 -172 54 -178 159h129c2 -36 15 -47 46 -47c29 0 43 11 43 31s-13 31 -42 31h-34v96h33c30 0 42 9 42 28c0 18 -14 27 -39 27c-27 0 -37 -14 -40 -38h-129c4 85 48 144 170 144c109 0 168 -48 168 -115
c0 -40 -21 -70 -52 -88z" />
    <glyph glyph-name="onequarter" unicode="&#xbc;" horiz-adv-x="755" 
d="M234 299h-134v242h-85v92c63 0 97 24 114 79h105v-413zM496 712h114l-380 -712h-114zM740 181v-108h-46v-73h-134v73h-173v128l171 212h136v-232h46zM563 278l-78 -97h78v97z" />
    <glyph glyph-name="threequarters" unicode="&#xbe;" horiz-adv-x="859" 
d="M373 422c0 -77 -64 -132 -179 -132c-114 0 -172 54 -178 159h129c2 -36 15 -47 46 -47c29 0 43 11 43 31s-13 31 -42 31h-34v96h33c30 0 42 9 42 28c0 18 -14 27 -39 27c-27 0 -37 -14 -40 -38h-129c4 85 48 144 170 144c109 0 168 -48 168 -115c0 -40 -21 -70 -52 -88
c42 -18 62 -53 62 -96zM599 712h114l-380 -712h-114zM844 181v-108h-46v-73h-134v73h-173v128l171 212h136v-232h46zM667 278l-78 -97h78v97z" />
    <glyph glyph-name="uni2155" unicode="&#x2155;" horiz-adv-x="818" 
d="M234 299h-134v242h-85v92c63 0 97 24 114 79h105v-413zM506 712h114l-380 -712h-114zM664 278c101 0 146 -67 146 -138c0 -93 -74 -149 -174 -149c-89 0 -165 46 -169 138h126c4 -24 24 -33 43 -33c27 0 47 18 47 45s-20 45 -47 45c-18 0 -33 -8 -40 -21h-123l39 248h278
v-112h-174l-6 -31c15 5 33 8 54 8z" />
    <glyph glyph-name="uni2156" unicode="&#x2156;" horiz-adv-x="948" 
d="M357 411v-112h-342v26c0 86 39 158 129 199l33 15c39 18 48 28 48 44c0 14 -8 26 -31 26c-26 0 -36 -14 -38 -44h-130c6 103 68 156 168 156c106 0 166 -47 166 -126c0 -75 -36 -108 -121 -148l-19 -9c-16 -8 -30 -15 -40 -27h177zM632 712h114l-380 -712h-114zM788 278
c101 0 146 -67 146 -138c0 -93 -74 -149 -174 -149c-89 0 -165 46 -169 138h126c4 -24 24 -33 43 -33c27 0 47 18 47 45s-20 45 -47 45c-18 0 -33 -8 -40 -21h-123l39 248h278v-112h-174l-6 -31c15 5 33 8 54 8z" />
    <glyph glyph-name="uni2157" unicode="&#x2157;" horiz-adv-x="916" 
d="M373 422c0 -77 -64 -132 -179 -132c-114 0 -172 54 -178 159h129c2 -36 15 -47 46 -47c29 0 43 11 43 31s-13 31 -42 31h-34v96h33c30 0 42 9 42 28c0 18 -14 27 -39 27c-27 0 -37 -14 -40 -38h-129c4 85 48 144 170 144c109 0 168 -48 168 -115c0 -40 -21 -70 -52 -88
c42 -18 62 -53 62 -96zM605 712h114l-380 -712h-114zM762 278c101 0 146 -67 146 -138c0 -93 -74 -149 -174 -149c-89 0 -165 46 -169 138h126c4 -24 24 -33 43 -33c27 0 47 18 47 45s-20 45 -47 45c-18 0 -33 -8 -40 -21h-123l39 248h278v-112h-174l-6 -31c15 5 33 8 54 8z
" />
    <glyph glyph-name="uni2158" unicode="&#x2158;" horiz-adv-x="943" 
d="M334 299h-134v73h-173v128l171 212h136v-232h46v-108h-46v-73zM625 712h114l-380 -712h-114zM203 577l-78 -97h78v97zM782 278c101 0 146 -67 146 -138c0 -93 -74 -149 -174 -149c-89 0 -165 46 -169 138h126c4 -24 24 -33 43 -33c27 0 47 18 47 45s-20 45 -47 45
c-18 0 -33 -8 -40 -21h-123l39 248h278v-112h-174l-6 -31c15 5 33 8 54 8z" />
    <glyph glyph-name="uni2159" unicode="&#x2159;" horiz-adv-x="805" 
d="M234 299h-134v242h-85v92c63 0 97 24 114 79h105v-413zM496 712h114l-380 -712h-114zM634 278c98 0 146 -66 146 -139c0 -91 -74 -148 -171 -148c-44 0 -83 12 -112 33c-49 35 -70 98 -70 180c0 150 66 218 183 218c92 0 150 -42 164 -125h-125c-5 16 -18 26 -44 26
c-28 0 -47 -11 -53 -67c21 14 49 22 82 22zM608 96c28 0 45 18 45 42s-17 42 -45 42s-45 -18 -45 -42s17 -42 45 -42z" />
    <glyph glyph-name="uni215A" unicode="&#x215a;" horiz-adv-x="872" 
d="M355 439c0 -93 -74 -149 -174 -149c-89 0 -165 46 -169 138h126c4 -24 24 -33 43 -33c27 0 47 18 47 45s-20 45 -47 45c-18 0 -33 -8 -40 -21h-123l39 248h278v-112h-174l-6 -31c15 5 33 8 54 8c101 0 146 -67 146 -138zM576 712h114l-380 -712h-114zM718 278
c98 0 146 -66 146 -139c0 -91 -74 -148 -171 -148c-44 0 -83 12 -112 33c-49 35 -70 98 -70 180c0 150 66 218 183 218c92 0 150 -42 164 -125h-125c-5 16 -18 26 -44 26c-28 0 -47 -11 -53 -67c21 14 49 22 82 22zM692 96c28 0 45 18 45 42s-17 42 -45 42s-45 -18 -45 -42
s17 -42 45 -42z" />
    <glyph glyph-name="oneeighth" unicode="&#x215b;" horiz-adv-x="808" 
d="M234 299h-134v242h-85v92c63 0 97 24 114 79h105v-413zM496 712h114l-380 -712h-114zM732 218c43 -20 62 -52 62 -97c0 -78 -68 -130 -181 -130c-112 0 -180 52 -180 130c0 45 19 78 62 97c-30 20 -44 49 -44 85c0 75 58 119 162 119c106 0 164 -44 164 -119
c0 -36 -15 -66 -45 -85zM614 325c-28 0 -42 -11 -42 -33c0 -23 14 -34 42 -34c27 0 41 11 41 34c0 22 -14 33 -41 33zM613 95c32 0 48 13 48 38c0 27 -16 40 -48 40c-31 0 -47 -13 -47 -40c0 -25 16 -38 47 -38z" />
    <glyph glyph-name="threeeighths" unicode="&#x215c;" horiz-adv-x="911" 
d="M373 422c0 -77 -64 -132 -179 -132c-114 0 -172 54 -178 159h129c2 -36 15 -47 46 -47c29 0 43 11 43 31s-13 31 -42 31h-34v96h33c30 0 42 9 42 28c0 18 -14 27 -39 27c-27 0 -37 -14 -40 -38h-129c4 85 48 144 170 144c109 0 168 -48 168 -115c0 -40 -21 -70 -52 -88
c42 -18 62 -53 62 -96zM594 712h114l-380 -712h-114zM835 218c43 -20 62 -52 62 -97c0 -78 -68 -130 -181 -130c-112 0 -180 52 -180 130c0 45 19 78 62 97c-30 20 -44 49 -44 85c0 75 58 119 162 119c106 0 164 -44 164 -119c0 -36 -15 -66 -45 -85zM717 325
c-28 0 -42 -11 -42 -33c0 -23 14 -34 42 -34c27 0 41 11 41 34c0 22 -14 33 -41 33zM716 95c32 0 48 13 48 38c0 27 -16 40 -48 40c-31 0 -47 -13 -47 -40c0 -25 16 -38 47 -38z" />
    <glyph glyph-name="fiveeighths" unicode="&#x215d;" horiz-adv-x="894" 
d="M355 439c0 -93 -74 -149 -174 -149c-89 0 -165 46 -169 138h126c4 -24 24 -33 43 -33c27 0 47 18 47 45s-20 45 -47 45c-18 0 -33 -8 -40 -21h-123l39 248h278v-112h-174l-6 -31c15 5 33 8 54 8c101 0 146 -67 146 -138zM577 712h114l-380 -712h-114zM818 218
c43 -20 62 -52 62 -97c0 -78 -68 -130 -181 -130c-112 0 -180 52 -180 130c0 45 19 78 62 97c-30 20 -44 49 -44 85c0 75 58 119 162 119c106 0 164 -44 164 -119c0 -36 -15 -66 -45 -85zM700 325c-28 0 -42 -11 -42 -33c0 -23 14 -34 42 -34c27 0 41 11 41 34
c0 22 -14 33 -41 33zM699 95c32 0 48 13 48 38c0 27 -16 40 -48 40c-31 0 -47 -13 -47 -40c0 -25 16 -38 47 -38z" />
    <glyph glyph-name="seveneighths" unicode="&#x215e;" horiz-adv-x="813" 
d="M221 299h-145c0 132 57 235 113 301h-174v112h307v-107c-65 -72 -101 -142 -101 -306zM491 712h114l-380 -712h-114zM737 218c43 -20 62 -52 62 -97c0 -78 -68 -130 -181 -130c-112 0 -180 52 -180 130c0 45 19 78 62 97c-30 20 -44 49 -44 85c0 75 58 119 162 119
c106 0 164 -44 164 -119c0 -36 -15 -66 -45 -85zM619 325c-28 0 -42 -11 -42 -33c0 -23 14 -34 42 -34c27 0 41 11 41 34c0 22 -14 33 -41 33zM618 95c32 0 48 13 48 38c0 27 -16 40 -48 40c-31 0 -47 -13 -47 -40c0 -25 16 -38 47 -38z" />
    <glyph glyph-name="zero.tf" horiz-adv-x="696" 
d="M348 -16c-224 0 -333 136 -333 372s109 372 333 372c223 0 333 -136 333 -372s-109 -372 -333 -372zM348 164c63 0 99 46 99 192s-37 192 -99 192s-99 -46 -99 -192s37 -192 99 -192z" />
    <glyph glyph-name="one.tf" horiz-adv-x="696" 
d="M495 179h132v-179h-531v179h173v209h-168v148h24c94 0 166 42 194 176h176v-533z" />
    <glyph glyph-name="two.tf" horiz-adv-x="696" 
d="M297 183h367v-183h-624v77c0 148 70 220 222 277l74 28c71 27 93 48 93 87c0 46 -33 69 -90 69c-60 0 -86 -27 -90 -88h-211c10 179 122 278 320 278c205 0 302 -106 302 -240c0 -129 -91 -194 -196 -233l-102 -38c-25 -9 -49 -19 -65 -34z" />
    <glyph glyph-name="three.tf" horiz-adv-x="696" 
d="M527 382c91 -24 142 -86 142 -171c0 -128 -118 -227 -318 -227c-203 0 -314 99 -323 280h222c4 -70 32 -101 95 -101c52 0 81 22 81 63s-30 63 -80 63h-50v150h50c56 0 86 17 86 57c0 38 -29 56 -77 56c-55 0 -79 -24 -82 -71h-221c9 164 113 247 307 247
c185 0 289 -77 289 -195c0 -72 -46 -126 -121 -151z" />
    <glyph glyph-name="four.tf" horiz-adv-x="696" 
d="M667 304v-179h-78v-125h-221v125h-337v207l334 380h224v-408h78zM375 492l-166 -188h166v188z" />
    <glyph glyph-name="five.tf" horiz-adv-x="696" 
d="M398 475c180 0 250 -121 250 -231c0 -170 -137 -260 -301 -260c-154 0 -282 80 -299 230h211c10 -36 40 -61 88 -61c62 0 93 39 93 91c0 51 -31 90 -93 90c-42 0 -71 -23 -83 -46h-209l76 424h489v-184h-319l-19 -82c32 17 70 29 116 29z" />
    <glyph glyph-name="six.tf" horiz-adv-x="696" 
d="M413 480c146 0 243 -99 243 -241c0 -161 -122 -255 -300 -255c-101 0 -178 31 -231 89c-57 63 -85 158 -85 279c0 244 113 376 321 376c162 0 260 -80 276 -218h-191c-11 43 -40 63 -85 63c-72 0 -107 -50 -116 -160c38 43 95 67 168 67zM356 135c57 0 91 36 91 97
s-34 97 -91 97s-90 -36 -90 -97s33 -97 90 -97z" />
    <glyph glyph-name="seven.tf" horiz-adv-x="696" 
d="M56 712h584v-183c-148 -116 -225 -233 -225 -529h-232c0 217 107 423 239 528h-366v184z" />
    <glyph glyph-name="eight.tf" horiz-adv-x="696" 
d="M554 372c75 -30 109 -85 109 -170c0 -130 -120 -218 -312 -218s-317 88 -317 218c0 85 35 140 112 170c-55 33 -82 85 -82 156c0 125 110 200 287 200s282 -75 282 -200c0 -71 -26 -123 -79 -156zM349 576c-55 0 -87 -26 -87 -70s32 -69 87 -69s87 25 87 69
s-32 70 -87 70zM349 151c61 0 95 26 95 75c0 48 -33 74 -95 74s-95 -26 -95 -74c0 -49 34 -75 95 -75z" />
    <glyph glyph-name="nine.tf" horiz-adv-x="696" 
d="M571 639c57 -63 85 -158 85 -279c0 -244 -113 -376 -321 -376c-162 0 -260 80 -276 218h191c11 -43 40 -63 85 -63c72 0 107 50 116 160c-38 -43 -95 -67 -168 -67c-146 0 -243 99 -243 241c0 161 122 255 300 255c101 0 178 -31 231 -89zM340 383c57 0 90 36 90 97
s-33 97 -90 97s-91 -36 -91 -97s34 -97 91 -97z" />
    <glyph glyph-name="zero.tf.zero" horiz-adv-x="696" 
d="M348 728c223 0 333 -136 333 -372s-109 -372 -333 -372s-333 136 -333 372s109 372 333 372zM348 548c-61 0 -98 -46 -98 -192c0 -25 1 -47 3 -66l160 228c-17 21 -38 30 -65 30zM348 164c62 0 98 46 98 192c0 23 -1 44 -3 63l-158 -227c16 -20 37 -28 63 -28z" />
    <glyph glyph-name="ellipsis" unicode="&#x2026;" horiz-adv-x="897" 
d="M36 0v220h227v-220h-227zM335 0v220h227v-220h-227zM634 0v220h227v-220h-227z" />
    <glyph glyph-name="exclamdown" unicode="&#xa1;" horiz-adv-x="299" 
d="M36 586h227v-220h-227v220zM103 329h95l65 -255v-200h-226v200z" />
    <glyph glyph-name="questiondown" unicode="&#xbf;" horiz-adv-x="574" 
d="M183 366v220h227v-220h-227zM281 -142c-160 0 -269 70 -269 190c0 64 29 125 103 170c28 17 56 34 66 43c16 14 16 28 16 55h199c0 -78 -6 -97 -28 -128c-17 -24 -44 -39 -69 -51c-33 -16 -62 -31 -62 -62s14 -49 54 -49c59 0 65 26 65 73h206
c-1 -160 -90 -241 -281 -241z" />
    <glyph glyph-name="periodcentered" unicode="&#xb7;" horiz-adv-x="299" 
d="M36 257v220h227v-220h-227z" />
    <glyph glyph-name="bullet" unicode="&#x2022;" horiz-adv-x="475" 
d="M40 92v383h395v-383h-395z" />
    <glyph glyph-name="uni203D" unicode="&#x203d;" horiz-adv-x="581" 
d="M293 728c178 0 276 -72 276 -189c0 -68 -33 -123 -109 -170c-31 -19 -60 -38 -73 -51c-16 -16 -17 -32 -17 -48h-180c0 40 1 63 8 82l49 188h75l13 -64c9 11 15 25 15 42c0 29 -16 53 -67 53c-55 0 -67 -27 -70 -81h-201c6 162 95 238 281 238zM166 0v220h227v-220h-227z
" />
    <glyph glyph-name="uni2E18" unicode="&#x2e18;" horiz-adv-x="581" 
d="M415 586v-220h-227v220h227zM368 96h201c-6 -162 -95 -238 -281 -238c-178 0 -276 72 -276 189c0 68 33 123 109 170c31 19 60 38 73 51c16 16 17 32 17 48h180c0 -40 -1 -63 -8 -82l-49 -188h-75l-13 64c-9 -11 -15 -25 -15 -42c0 -29 16 -53 67 -53c55 0 67 27 70 81z
" />
    <glyph glyph-name="period.ss01" horiz-adv-x="324" 
d="M163 -13c-69 0 -127 54 -127 124c0 68 58 123 127 123s125 -55 125 -123c0 -70 -56 -124 -125 -124z" />
    <glyph glyph-name="comma.ss01" horiz-adv-x="326" 
d="M153 232c96 0 142 -74 142 -172c0 -144 -61 -248 -224 -258l-18 -1v106l21 1c53 2 77 28 84 82h-3c-69 0 -124 45 -124 119s55 123 122 123z" />
    <glyph glyph-name="colon.ss01" horiz-adv-x="324" 
d="M163 290c-69 0 -127 54 -127 124c0 68 58 123 127 123s125 -55 125 -123c0 -70 -56 -124 -125 -124zM163 -13c-69 0 -127 54 -127 124c0 68 58 123 127 123s125 -55 125 -123c0 -70 -56 -124 -125 -124z" />
    <glyph glyph-name="semicolon.ss01" horiz-adv-x="336" 
d="M168 290c-69 0 -127 54 -127 124c0 68 58 123 127 123s125 -55 125 -123c0 -70 -56 -124 -125 -124zM158 232c96 0 142 -74 142 -172c0 -144 -61 -248 -224 -258l-18 -1v106l21 1c53 2 77 28 84 82h-3c-69 0 -124 45 -124 119s55 123 122 123z" />
    <glyph glyph-name="ellipsis.ss01" horiz-adv-x="972" 
d="M163 -13c-69 0 -127 54 -127 124c0 68 58 123 127 123s125 -55 125 -123c0 -70 -56 -124 -125 -124zM487 -13c-69 0 -127 54 -127 124c0 68 58 123 127 123s125 -55 125 -123c0 -70 -56 -124 -125 -124zM811 -13c-69 0 -127 54 -127 124c0 68 58 123 127 123
s125 -55 125 -123c0 -70 -56 -124 -125 -124z" />
    <glyph glyph-name="exclam.ss01" horiz-adv-x="324" 
d="M110 271l-61 281v160h226v-160l-59 -281h-106zM163 -13c-69 0 -127 54 -127 124c0 68 58 123 127 123s125 -55 125 -123c0 -70 -56 -124 -125 -124z" />
    <glyph glyph-name="exclamdown.ss01" horiz-adv-x="324" 
d="M163 352c-69 0 -127 55 -127 123c0 70 58 124 127 124s125 -54 125 -124c0 -68 -56 -123 -125 -123zM49 -126v160l61 281h106l59 -281v-160h-226z" />
    <glyph glyph-name="question.ss01" horiz-adv-x="574" 
d="M178 270c0 78 6 97 28 128c17 24 44 39 69 51c33 16 62 31 62 62s-14 49 -54 49c-59 0 -65 -26 -65 -73h-206c1 160 90 241 281 241c160 0 269 -70 269 -190c0 -64 -29 -125 -103 -170c-28 -17 -56 -34 -66 -43c-16 -14 -16 -28 -16 -55h-199zM279 -13
c-69 0 -127 54 -127 124c0 68 58 123 127 123s125 -55 125 -123c0 -70 -56 -124 -125 -124z" />
    <glyph glyph-name="questiondown.ss01" horiz-adv-x="622" 
d="M319 352c-69 0 -125 55 -125 123c0 70 56 124 125 124s127 -54 127 -124c0 -68 -58 -123 -127 -123zM305 -142c-160 0 -269 70 -269 190c0 64 29 125 103 170c28 17 56 34 66 43c16 14 16 28 16 55h199c0 -78 -6 -97 -28 -128c-17 -24 -44 -39 -69 -51
c-33 -16 -62 -31 -62 -62s14 -49 54 -49c59 0 65 26 65 73h206c-1 -160 -90 -241 -281 -241z" />
    <glyph glyph-name="periodcentered.ss01" horiz-adv-x="324" 
d="M163 247c-69 0 -127 54 -127 124c0 68 58 123 127 123s125 -55 125 -123c0 -70 -56 -124 -125 -124z" />
    <glyph glyph-name="bullet.ss01" horiz-adv-x="475" 
d="M245 68c-131 0 -220 88 -220 216c0 126 89 212 220 212c128 0 216 -86 216 -212c0 -128 -88 -216 -216 -216z" />
    <glyph glyph-name="uni203D.ss01" horiz-adv-x="581" 
d="M293 728c178 0 276 -72 276 -189c0 -68 -33 -123 -109 -170c-31 -19 -60 -38 -73 -51c-16 -16 -17 -32 -17 -48h-180c0 39 1 62 8 81l49 189h75l13 -64c9 11 15 25 15 42c0 29 -16 53 -67 53c-55 0 -67 -27 -70 -81h-201c6 162 95 238 281 238zM281 234
c69 0 125 -55 125 -123c0 -70 -56 -124 -125 -124s-127 54 -127 124c0 68 58 123 127 123z" />
    <glyph glyph-name="uni2E18.ss01" horiz-adv-x="581" 
d="M300 352c-69 0 -125 55 -125 123c0 70 56 124 125 124s127 -54 127 -124c0 -68 -58 -123 -127 -123zM368 96h201c-6 -162 -95 -238 -281 -238c-178 0 -276 72 -276 189c0 68 33 123 109 170c31 19 60 38 73 51c16 16 17 32 17 48h180c0 -39 -1 -62 -8 -81l-49 -189h-75
l-13 64c-9 -11 -15 -25 -15 -42c0 -29 16 -53 67 -53c55 0 67 27 70 81z" />
    <glyph glyph-name="period.tf.ss01" horiz-adv-x="696" 
d="M349 -13c-69 0 -127 54 -127 124c0 68 58 123 127 123s125 -55 125 -123c0 -70 -56 -124 -125 -124z" />
    <glyph glyph-name="comma.tf.ss01" horiz-adv-x="696" 
d="M338 232c96 0 142 -74 142 -172c0 -144 -61 -248 -224 -258l-18 -1v106l21 1c53 2 77 28 84 82h-3c-69 0 -124 45 -124 119s55 123 122 123z" />
    <glyph glyph-name="colon.tf.ss01" horiz-adv-x="696" 
d="M349 290c-69 0 -127 54 -127 124c0 68 58 123 127 123s125 -55 125 -123c0 -70 -56 -124 -125 -124zM349 -13c-69 0 -127 54 -127 124c0 68 58 123 127 123s125 -55 125 -123c0 -70 -56 -124 -125 -124z" />
    <glyph glyph-name="semicolon.tf.ss01" horiz-adv-x="696" 
d="M348 290c-69 0 -127 54 -127 124c0 68 58 123 127 123s125 -55 125 -123c0 -70 -56 -124 -125 -124zM338 232c96 0 142 -74 142 -172c0 -144 -61 -248 -224 -258l-18 -1v106l21 1c53 2 77 28 84 82h-3c-69 0 -124 45 -124 119s55 123 122 123z" />
    <glyph glyph-name="period.tf" horiz-adv-x="696" 
d="M235 0v220h227v-220h-227z" />
    <glyph glyph-name="comma.tf" horiz-adv-x="696" 
d="M235 220h227v-225c0 -127 -71 -185 -196 -185h-31v106h32c42 0 65 20 65 73v11h-97v220z" />
    <glyph glyph-name="colon.tf" horiz-adv-x="696" 
d="M235 308v220h227v-220h-227zM235 0v220h227v-220h-227z" />
    <glyph glyph-name="semicolon.tf" horiz-adv-x="696" 
d="M235 528h227v-220h-227v220zM235 0v220h227v-225c0 -127 -71 -185 -196 -185h-31v106h32c42 0 65 20 65 73v11h-97z" />
    <glyph glyph-name="uni208D" unicode="&#x208d;" horiz-adv-x="203" 
d="M78 -276c-41 97 -60 168 -60 284c0 119 19 194 60 288h125c-31 -83 -55 -175 -55 -288c0 -98 23 -191 55 -284h-125z" />
    <glyph glyph-name="uni208E" unicode="&#x208e;" horiz-adv-x="203" 
d="M0 -276c32 93 55 186 55 284c0 113 -24 205 -55 288h125c41 -94 60 -169 60 -288c0 -116 -19 -187 -60 -284h-125z" />
    <glyph glyph-name="parenleft.sups" unicode="&#x207d;" horiz-adv-x="203" 
d="M78 450c-41 97 -60 168 -60 284c0 119 19 194 60 288h125c-31 -83 -55 -175 -55 -288c0 -98 23 -191 55 -284h-125z" />
    <glyph glyph-name="parenright.sups" unicode="&#x207e;" horiz-adv-x="203" 
d="M0 450c32 93 55 186 55 284c0 113 -24 205 -55 288h125c41 -94 60 -169 60 -288c0 -116 -19 -187 -60 -284h-125z" />
    <glyph glyph-name="parenleft.case" horiz-adv-x="328" 
d="M134 -77c-69 145 -103 290 -103 434c0 145 35 290 103 432h189c-55 -124 -82 -274 -82 -425c0 -154 28 -310 82 -441h-189z" />
    <glyph glyph-name="parenright.case" horiz-adv-x="328" 
d="M5 -77c54 131 82 287 82 441c0 151 -27 301 -82 425h189c68 -142 103 -287 103 -432c0 -144 -34 -289 -103 -434h-189z" />
    <glyph glyph-name="braceleft.case" horiz-adv-x="404" 
d="M315 -77c-145 0 -212 58 -212 200v86c0 36 -18 60 -82 60v174c64 0 82 24 82 60v86c0 142 67 200 212 200h74v-168h-34c-49 0 -64 -13 -64 -64v-83c0 -73 -32 -114 -126 -117v-2c94 -3 126 -44 126 -117v-83c0 -51 15 -64 64 -64h34v-168h-74z" />
    <glyph glyph-name="braceright.case" horiz-adv-x="404" 
d="M15 -77v168h34c49 0 64 13 64 64v83c0 73 32 114 126 117v2c-94 3 -126 44 -126 117v83c0 51 -15 64 -64 64h-34v168h74c145 0 212 -58 212 -200v-86c0 -36 18 -60 82 -60v-174c-64 0 -82 -24 -82 -60v-86c0 -142 -67 -200 -212 -200h-74z" />
    <glyph glyph-name="bracketleft.case" horiz-adv-x="401" 
d="M40 -77v866h346v-171h-151v-524h151v-171h-346z" />
    <glyph glyph-name="bracketright.case" horiz-adv-x="401" 
d="M15 -77v171h151v524h-151v171h346v-866h-346z" />
    <glyph glyph-name="uni00AD" unicode="&#xad;" horiz-adv-x="355" 
d="M21 193v172h313v-172h-313z" />
    <glyph glyph-name="endash" unicode="&#x2013;" horiz-adv-x="528" 
d="M21 193v172h486v-172h-486z" />
    <glyph glyph-name="emdash" unicode="&#x2014;" horiz-adv-x="997" 
d="M21 193v172h955v-172h-955z" />
    <glyph glyph-name="uni2011" unicode="&#x2011;" horiz-adv-x="355" 
d="M21 193v172h313v-172h-313z" />
    <glyph glyph-name="hyphen.case" horiz-adv-x="355" 
d="M21 276v172h313v-172h-313z" />
    <glyph glyph-name="endash.case" horiz-adv-x="528" 
d="M21 276v172h486v-172h-486z" />
    <glyph glyph-name="emdash.case" horiz-adv-x="997" 
d="M21 276v172h955v-172h-955z" />
    <glyph glyph-name="hyphen.tf" horiz-adv-x="696" 
d="M192 193v172h313v-172h-313z" />
    <glyph glyph-name="quotesinglbase" unicode="&#x201a;" horiz-adv-x="299" 
d="M36 220h227v-225c0 -127 -71 -185 -196 -185h-31v106h32c42 0 65 20 65 73v11h-97v220z" />
    <glyph glyph-name="quotedblbase" unicode="&#x201e;" horiz-adv-x="565" 
d="M36 0v220h227v-225c0 -127 -71 -185 -196 -185h-31v106h32c42 0 65 20 65 73v11h-97zM302 220h227v-225c0 -127 -71 -185 -196 -185h-31v106h32c42 0 65 20 65 73v11h-97v220z" />
    <glyph glyph-name="quotedblleft" unicode="&#x201c;" horiz-adv-x="565" 
d="M36 527c0 127 71 185 196 185h31v-106h-32c-42 0 -65 -20 -65 -73v-11h97v-220h-227v225zM497 606c-42 0 -65 -20 -65 -73v-11h97v-220h-227v225c0 127 71 185 196 185h31v-106h-32z" />
    <glyph glyph-name="quotedblright" unicode="&#x201d;" horiz-adv-x="565" 
d="M36 492v220h227v-225c0 -127 -71 -185 -196 -185h-31v106h32c42 0 65 20 65 73v11h-97zM302 712h227v-225c0 -127 -71 -185 -196 -185h-31v106h32c42 0 65 20 65 73v11h-97v220z" />
    <glyph glyph-name="quoteleft" unicode="&#x2018;" horiz-adv-x="299" 
d="M231 606c-42 0 -65 -20 -65 -73v-11h97v-220h-227v225c0 127 71 185 196 185h31v-106h-32z" />
    <glyph glyph-name="quoteright" unicode="&#x2019;" horiz-adv-x="299" 
d="M36 712h227v-225c0 -127 -71 -185 -196 -185h-31v106h32c42 0 65 20 65 73v11h-97v220z" />
    <glyph glyph-name="guillemotleft" unicode="&#xab;" horiz-adv-x="460" 
d="M40 168v198l170 139v-182l-68 -56l68 -55v-183zM420 505v-182l-68 -56l68 -55v-183l-170 139v198z" />
    <glyph glyph-name="guillemotright" unicode="&#xbb;" horiz-adv-x="460" 
d="M40 323v182l170 -139v-198l-170 -139v183l68 55zM250 505l170 -139v-198l-170 -139v183l68 55l-68 56v182z" />
    <glyph glyph-name="guilsinglleft" unicode="&#x2039;" horiz-adv-x="250" 
d="M210 505v-182l-68 -56l68 -55v-183l-170 139v198z" />
    <glyph glyph-name="guilsinglright" unicode="&#x203a;" horiz-adv-x="250" 
d="M40 505l170 -139v-198l-170 -139v183l68 55l-68 56v182z" />
    <glyph glyph-name="guillemotleft.case" horiz-adv-x="460" 
d="M40 266v198l170 139v-182l-68 -56l68 -55v-183zM420 603v-182l-68 -56l68 -55v-183l-170 139v198z" />
    <glyph glyph-name="guillemotright.case" horiz-adv-x="460" 
d="M40 421v182l170 -139v-198l-170 -139v183l68 55zM250 603l170 -139v-198l-170 -139v183l68 55l-68 56v182z" />
    <glyph glyph-name="guilsinglleft.case" horiz-adv-x="250" 
d="M210 603v-182l-68 -56l68 -55v-183l-170 139v198z" />
    <glyph glyph-name="guilsinglright.case" horiz-adv-x="250" 
d="M40 603l170 -139v-198l-170 -139v183l68 55l-68 56v182z" />
    <glyph glyph-name="quotesinglbase.ss01" horiz-adv-x="326" 
d="M153 232c96 0 142 -74 142 -172c0 -144 -61 -248 -224 -258l-18 -1v106l21 1c53 2 77 28 84 82h-3c-69 0 -124 45 -124 119s55 123 122 123z" />
    <glyph glyph-name="quotedblbase.ss01" horiz-adv-x="633" 
d="M153 232c96 0 142 -74 142 -172c0 -144 -61 -248 -224 -258l-18 -1v106l21 1c53 2 77 28 84 82h-3c-69 0 -124 45 -124 119s55 123 122 123zM460 232c96 0 142 -74 142 -172c0 -144 -61 -248 -224 -258l-18 -1v106l21 1c53 2 77 28 84 82h-3c-69 0 -124 45 -124 119
s55 123 122 123z" />
    <glyph glyph-name="quotedblleft.ss01" horiz-adv-x="633" 
d="M171 523c69 0 124 -45 124 -119s-55 -123 -122 -123c-96 0 -142 74 -142 172c0 144 61 248 224 258l18 1v-106l-21 -1c-53 -2 -77 -28 -84 -82h3zM478 523c69 0 124 -45 124 -119s-55 -123 -122 -123c-96 0 -142 74 -142 172c0 144 61 248 224 258l18 1v-106l-21 -1
c-53 -2 -77 -28 -84 -82h3z" />
    <glyph glyph-name="quotedblright.ss01" horiz-adv-x="633" 
d="M153 733c96 0 142 -74 142 -172c0 -144 -61 -248 -224 -258l-18 -1v106l21 1c53 2 77 28 84 82h-3c-69 0 -124 45 -124 119s55 123 122 123zM460 733c96 0 142 -74 142 -172c0 -144 -61 -248 -224 -258l-18 -1v106l21 1c53 2 77 28 84 82h-3c-69 0 -124 45 -124 119
s55 123 122 123z" />
    <glyph glyph-name="quoteleft.ss01" horiz-adv-x="326" 
d="M171 523c69 0 124 -45 124 -119s-55 -123 -122 -123c-96 0 -142 74 -142 172c0 144 61 248 224 258l18 1v-106l-21 -1c-53 -2 -77 -28 -84 -82h3z" />
    <glyph glyph-name="quoteright.ss01" horiz-adv-x="326" 
d="M153 733c96 0 142 -74 142 -172c0 -144 -61 -248 -224 -258l-18 -1v106l21 1c53 2 77 28 84 82h-3c-69 0 -124 45 -124 119s55 123 122 123z" />
    <glyph glyph-name="hyphen.dnom" horiz-adv-x="217" 
d="M14 144v102h189v-102h-189z" />
    <glyph glyph-name="parenleft.dnom" horiz-adv-x="203" 
d="M78 -80c-41 97 -60 168 -60 284c0 119 19 194 60 288h125c-31 -83 -55 -175 -55 -288c0 -98 23 -191 55 -284h-125z" />
    <glyph glyph-name="parenright.dnom" horiz-adv-x="203" 
d="M0 -78c32 93 55 186 55 284c0 113 -24 205 -55 288h125c41 -94 60 -169 60 -288c0 -116 -19 -187 -60 -284h-125z" />
    <glyph glyph-name="braceleft.dnom" horiz-adv-x="240" 
d="M215 -80c-108 0 -147 35 -147 131v50c0 31 -11 40 -48 40v131c37 0 48 9 48 40v49c0 96 39 131 147 131h20v-124h-5c-21 0 -27 -7 -27 -30v-50c0 -57 -22 -78 -83 -80v-3c61 -2 83 -23 83 -80v-51c0 -23 6 -30 27 -30h5v-124h-20z" />
    <glyph glyph-name="braceright.dnom" horiz-adv-x="240" 
d="M5 -80v124h5c21 0 27 7 27 30v51c0 57 22 78 83 80v3c-61 2 -83 23 -83 80v50c0 23 -6 30 -27 30h-5v124h20c108 0 147 -35 147 -131v-49c0 -31 11 -40 48 -40v-131c-37 0 -48 -9 -48 -40v-50c0 -96 -39 -131 -147 -131h-20z" />
    <glyph glyph-name="bracketleft.dnom" horiz-adv-x="259" 
d="M19 -80v572h235v-124h-100v-324h100v-124h-235z" />
    <glyph glyph-name="bracketright.dnom" horiz-adv-x="259" 
d="M5 -80v124h100v324h-100v124h235v-572h-235z" />
    <glyph glyph-name="period.dnom" horiz-adv-x="160" 
d="M13 0v130h134v-130h-134z" />
    <glyph glyph-name="comma.dnom" horiz-adv-x="159" 
d="M13 130h133v-137c0 -69 -41 -102 -109 -102h-24v64h21c24 0 35 9 35 36v9h-56v130z" />
    <glyph glyph-name="hyphen.numr" horiz-adv-x="217" 
d="M14 444v102h189v-102h-189z" />
    <glyph glyph-name="parenleft.numr" horiz-adv-x="203" 
d="M78 219c-41 97 -60 168 -60 284c0 119 19 194 60 288h125c-31 -83 -55 -175 -55 -288c0 -98 23 -191 55 -284h-125z" />
    <glyph glyph-name="parenright.numr" horiz-adv-x="203" 
d="M0 221c32 93 55 186 55 284c0 113 -24 205 -55 288h125c41 -94 60 -169 60 -288c0 -116 -19 -187 -60 -284h-125z" />
    <glyph glyph-name="braceleft.numr" horiz-adv-x="240" 
d="M215 219c-108 0 -147 35 -147 131v50c0 31 -11 40 -48 40v131c37 0 48 9 48 40v49c0 96 39 131 147 131h20v-124h-5c-21 0 -27 -7 -27 -30v-50c0 -57 -22 -78 -83 -80v-3c61 -2 83 -23 83 -80v-51c0 -23 6 -30 27 -30h5v-124h-20z" />
    <glyph glyph-name="braceright.numr" horiz-adv-x="240" 
d="M25 219h-20v124h5c21 0 27 7 27 30v51c0 57 22 78 83 80v3c-61 2 -83 23 -83 80v50c0 23 -6 30 -27 30h-5v124h20c108 0 147 -35 147 -131v-49c0 -31 11 -40 48 -40v-131c-37 0 -48 -9 -48 -40v-50c0 -96 -39 -131 -147 -131z" />
    <glyph glyph-name="bracketleft.numr" horiz-adv-x="259" 
d="M19 219v572h235v-124h-100v-324h100v-124h-235z" />
    <glyph glyph-name="bracketright.numr" horiz-adv-x="259" 
d="M240 219h-235v124h100v324h-100v124h235v-572z" />
    <glyph glyph-name="period.numr" horiz-adv-x="160" 
d="M13 299v130h134v-130h-134z" />
    <glyph glyph-name="comma.numr" horiz-adv-x="159" 
d="M13 429h133v-137c0 -69 -41 -102 -109 -102h-24v64h21c24 0 35 9 35 36v9h-56v130z" />
    <glyph glyph-name="period.dnom.ss01" horiz-adv-x="175" 
d="M88 -7c-45 0 -75 30 -75 73c0 42 30 71 75 71c44 0 74 -29 74 -71c0 -43 -30 -73 -74 -73z" />
    <glyph glyph-name="comma.dnom.ss01" horiz-adv-x="183" 
d="M88 137c51 0 82 -39 82 -105v-2c0 -93 -59 -139 -140 -139h-10v65h9c36 0 55 11 58 39c-41 0 -74 27 -74 70c0 42 30 72 75 72z" />
    <glyph glyph-name="period.numr.ss01" horiz-adv-x="175" 
d="M88 292c-45 0 -75 30 -75 73c0 42 30 71 75 71c44 0 74 -29 74 -71c0 -43 -30 -73 -74 -73z" />
    <glyph glyph-name="comma.numr.ss01" horiz-adv-x="183" 
d="M88 436c51 0 82 -39 82 -105v-2c0 -93 -59 -139 -140 -139h-10v65h9c36 0 55 11 58 39c-41 0 -74 27 -74 70c0 42 30 72 75 72z" />
    <glyph glyph-name="period.subs.ss01" horiz-adv-x="175" 
d="M88 -203c-45 0 -75 30 -75 73c0 42 30 71 75 71c44 0 74 -29 74 -71c0 -43 -30 -73 -74 -73z" />
    <glyph glyph-name="comma.subs.ss01" horiz-adv-x="183" 
d="M88 -59c51 0 82 -39 82 -105v-2c0 -93 -59 -139 -140 -139h-10v65h9c36 0 55 11 58 39c-41 0 -74 27 -74 70c0 42 30 72 75 72z" />
    <glyph glyph-name="period.sups.ss01" horiz-adv-x="175" 
d="M88 521c-45 0 -75 30 -75 73c0 42 30 71 75 71c44 0 74 -29 74 -71c0 -43 -30 -73 -74 -73z" />
    <glyph glyph-name="comma.sups.ss01" horiz-adv-x="183" 
d="M88 665c51 0 82 -39 82 -105v-2c0 -93 -59 -139 -140 -139h-10v65h9c36 0 55 11 58 39c-41 0 -74 27 -74 70c0 42 30 72 75 72z" />
    <glyph glyph-name="hyphen.subs" horiz-adv-x="217" 
d="M14 -42v102h189v-102h-189z" />
    <glyph glyph-name="braceleft.subs" horiz-adv-x="240" 
d="M215 -276c-108 0 -147 35 -147 131v50c0 31 -11 40 -48 40v131c37 0 48 9 48 40v49c0 96 39 131 147 131h20v-124h-5c-21 0 -27 -7 -27 -30v-50c0 -57 -22 -78 -83 -80v-3c61 -2 83 -23 83 -80v-51c0 -23 6 -30 27 -30h5v-124h-20z" />
    <glyph glyph-name="braceright.subs" horiz-adv-x="240" 
d="M5 -276v124h5c21 0 27 7 27 30v51c0 57 22 78 83 80v3c-61 2 -83 23 -83 80v50c0 23 -6 30 -27 30h-5v124h20c108 0 147 -35 147 -131v-49c0 -31 11 -40 48 -40v-131c-37 0 -48 -9 -48 -40v-50c0 -96 -39 -131 -147 -131h-20z" />
    <glyph glyph-name="bracketleft.subs" horiz-adv-x="259" 
d="M19 -276v572h235v-124h-100v-324h100v-124h-235z" />
    <glyph glyph-name="bracketright.subs" horiz-adv-x="259" 
d="M5 -275v124h100v324h-100v124h235v-572h-235z" />
    <glyph glyph-name="period.subs" horiz-adv-x="160" 
d="M13 -196v130h134v-130h-134z" />
    <glyph glyph-name="comma.subs" horiz-adv-x="159" 
d="M13 -66h133v-137c0 -69 -41 -102 -109 -102h-24v64h21c24 0 35 9 35 36v9h-56v130z" />
    <glyph glyph-name="hyphen.sups" horiz-adv-x="217" 
d="M14 672v102h189v-102h-189z" />
    <glyph glyph-name="braceleft.sups" horiz-adv-x="240" 
d="M215 444c-108 0 -147 35 -147 131v50c0 31 -11 40 -48 40v131c37 0 48 9 48 40v49c0 96 39 131 147 131h20v-124h-5c-21 0 -27 -7 -27 -30v-50c0 -57 -22 -78 -83 -80v-3c61 -2 83 -23 83 -80v-51c0 -23 6 -30 27 -30h5v-124h-20z" />
    <glyph glyph-name="braceright.sups" horiz-adv-x="240" 
d="M5 444v124h5c21 0 27 7 27 30v51c0 57 22 78 83 80v3c-61 2 -83 23 -83 80v50c0 23 -6 30 -27 30h-5v124h20c108 0 147 -35 147 -131v-49c0 -31 11 -40 48 -40v-131c-37 0 -48 -9 -48 -40v-50c0 -96 -39 -131 -147 -131h-20z" />
    <glyph glyph-name="bracketleft.sups" horiz-adv-x="259" 
d="M19 444v572h235v-124h-100v-324h100v-124h-235z" />
    <glyph glyph-name="bracketright.sups" horiz-adv-x="259" 
d="M5 444v124h100v324h-100v124h235v-572h-235z" />
    <glyph glyph-name="period.sups" horiz-adv-x="160" 
d="M13 528v130h134v-130h-134z" />
    <glyph glyph-name="comma.sups" horiz-adv-x="159" 
d="M13 658h133v-137c0 -69 -41 -102 -109 -102h-24v64h21c24 0 35 9 35 36v9h-56v130z" />
    <glyph glyph-name="uni00A0" unicode="&#xa0;" horiz-adv-x="225" 
 />
    <glyph glyph-name="thinspace" unicode="&#x2009;" horiz-adv-x="280" 
 />
    <glyph glyph-name="uniFEFF" unicode="&#xfeff;" 
 />
    <glyph glyph-name="uni20BF" unicode="&#x20bf;" horiz-adv-x="709" 
d="M695 210c0 -112 -64 -191 -211 -207v-119h-94v116h-90v-116h-94v116h-166v712h166v116h94v-116h90v116h94v-120c135 -19 182 -97 182 -177c0 -70 -36 -123 -93 -149c76 -27 122 -101 122 -172zM433 488c0 32 -19 50 -56 50h-111v-100h111c37 0 56 18 56 50zM405 174
c37 0 56 18 56 50s-19 50 -56 50h-139v-100h139z" />
    <glyph glyph-name="cent" unicode="&#xa2;" horiz-adv-x="598" 
d="M345 157c18 10 30 29 36 60h205c-12 -122 -97 -212 -241 -227v-106h-80v106c-156 14 -248 117 -248 268c0 150 92 253 248 268v102h80v-102c149 -13 233 -103 241 -218h-207c-7 25 -18 41 -34 50v-201zM225 258c0 -59 11 -91 40 -103v205c-28 -14 -40 -46 -40 -102z" />
    <glyph glyph-name="currency" unicode="&#xa4;" horiz-adv-x="589" 
d="M554 356c0 -58 -20 -112 -54 -155l72 -71l-56 -57l-75 75c-41 -27 -90 -42 -144 -42c-55 0 -105 16 -147 44l-77 -77l-56 57l76 75c-33 42 -52 94 -52 151s19 109 52 151l-76 75l56 57l77 -77c42 28 92 44 147 44c54 0 103 -15 144 -42l75 75l56 -57l-72 -71
c34 -43 54 -97 54 -155zM297 250c60 0 108 44 108 106s-48 106 -108 106c-59 0 -107 -44 -107 -106s48 -106 107 -106z" />
    <glyph glyph-name="Euro" unicode="&#x20ac;" horiz-adv-x="786" 
d="M549 262h222c-23 -133 -110 -282 -334 -282c-180 0 -303 96 -344 253h-93v84h80c-1 12 -1 24 -1 37c0 12 0 23 1 34h-80v84h93c39 159 160 256 337 256c222 0 316 -151 340 -285h-219c-16 59 -52 97 -122 97c-56 0 -89 -24 -106 -68h124v-84h-140c-1 -10 -1 -20 -1 -31
c0 -14 0 -27 1 -40h140v-84h-122c18 -42 50 -66 104 -66c68 0 104 37 120 95z" />
    <glyph glyph-name="florin" unicode="&#x192;" horiz-adv-x="594" 
d="M526 559c-52 0 -68 -20 -76 -71l-8 -50h113v-145h-135l-44 -286c-25 -161 -109 -215 -257 -215c-31 0 -63 2 -99 6v160c20 -3 37 -4 50 -4c53 0 67 19 75 71l41 268h-102v145h124l12 77c23 149 103 205 258 205c29 0 61 -2 96 -6v-159c-19 3 -36 4 -48 4z" />
    <glyph glyph-name="uni20BA" unicode="&#x20ba;" horiz-adv-x="702" 
d="M455 372h232c0 -227 -148 -372 -379 -372h-227v281l-81 -33v95l81 33v62l-81 -33v95l81 33v179h227v-85l143 59v-95l-143 -59v-62l143 59v-95l-143 -59v-180c92 0 147 64 147 177z" />
    <glyph glyph-name="uni20BC" unicode="&#x20bc;" horiz-adv-x="835" 
d="M545 543c163 0 260 -98 260 -264v-279h-219v274c0 52 -15 72 -58 78v-301h-221v301c-43 -6 -58 -26 -58 -78v-274h-219v279c0 166 97 264 260 264h17v169h221v-169h17z" />
    <glyph glyph-name="uni20B9" unicode="&#x20b9;" horiz-adv-x="621" 
d="M604 712v-84h-142c31 -26 51 -62 59 -107h83v-84h-83c-18 -106 -102 -172 -212 -191l227 -246h-274l-222 247v115h139c59 0 99 27 113 75h-252v84h252c-14 48 -54 75 -113 75h-139v116h564z" />
    <glyph glyph-name="sterling" unicode="&#xa3;" horiz-adv-x="588" 
d="M341 274c0 -30 -7 -54 -23 -73h257v-201h-548v172c68 13 95 40 95 88c0 15 -3 31 -7 48h-110v84h72c-20 40 -34 79 -34 125c0 128 107 211 275 211s248 -81 258 -240h-206c-3 47 -17 66 -50 66c-29 0 -47 -15 -47 -50c0 -29 13 -62 30 -95c3 -6 6 -11 8 -17h172v-84h-145
c2 -12 3 -24 3 -34z" />
    <glyph glyph-name="uni20B8" unicode="&#x20b8;" horiz-adv-x="650" 
d="M15 712h620v-195h-620v195zM635 417v-195h-197v-222h-226v222h-197v195h620z" />
    <glyph glyph-name="yen" unicode="&#xa5;" horiz-adv-x="695" 
d="M704 712l-215 -396h110v-84h-134v-71h134v-84h-134v-77h-226v77h-138v84h138v71h-138v84h113l-223 396h244l46 -90c28 -54 52 -103 74 -153c20 50 41 99 66 153l42 90h241z" />
    <glyph glyph-name="uni2219" unicode="&#x2219;" horiz-adv-x="523" 
d="M125 224v265h273v-265h-273z" />
    <glyph glyph-name="uni2215" unicode="&#x2215;" horiz-adv-x="525" 
d="M20 0l286 712h199l-287 -712h-198z" />
    <glyph glyph-name="minus" unicode="&#x2212;" horiz-adv-x="528" 
d="M21 271v172h486v-172h-486z" />
    <glyph glyph-name="multiply" unicode="&#xd7;" horiz-adv-x="526" 
d="M504 477l-120 -119l120 -120l-120 -120l-121 120l-121 -120l-120 120l120 120l-120 119l120 120l121 -120l121 120z" />
    <glyph glyph-name="divide" unicode="&#xf7;" horiz-adv-x="528" 
d="M171 483v147h186v-147h-186zM21 271v172h486v-172h-486zM171 83v147h186v-147h-186z" />
    <glyph glyph-name="notequal" unicode="&#x2260;" horiz-adv-x="527" 
d="M507 394h-171l-25 -76h196v-150h-247l-38 -114l-105 37l26 77h-122v150h172l26 76h-198v150h249l38 114l104 -38l-26 -76h121v-150z" />
    <glyph glyph-name="greaterequal" unicode="&#x2265;" horiz-adv-x="522" 
d="M16 629l486 -149v-178l-486 -149v158l24 7c89 26 169 49 254 73c-85 24 -165 47 -254 73l-24 7v158zM16 0v148h486v-148h-486z" />
    <glyph glyph-name="lessequal" unicode="&#x2264;" horiz-adv-x="523" 
d="M507 471l-24 -7c-89 -26 -169 -49 -254 -73c85 -24 165 -47 254 -73l24 -7v-158l-486 149v178l486 149v-158zM21 0v148h486v-148h-486z" />
    <glyph glyph-name="plusminus" unicode="&#xb1;" horiz-adv-x="528" 
d="M358 491h149v-169h-149v-107h-188v107h-149v169h149v103h188v-103zM21 0v172h486v-172h-486z" />
    <glyph glyph-name="approxequal" unicode="&#x2248;" horiz-adv-x="528" 
d="M20 373c0 126 50 209 157 209c42 0 78 -15 110 -30c23 -11 41 -19 56 -19c27 0 39 10 43 48h122c0 -125 -48 -209 -155 -209c-44 0 -80 15 -112 31c-23 11 -42 18 -56 18c-26 0 -38 -9 -43 -48h-122zM20 132c0 126 50 209 157 209c42 0 78 -15 110 -30
c23 -11 41 -19 56 -19c27 0 39 10 43 48h122c0 -125 -48 -209 -155 -209c-44 0 -80 16 -112 31c-23 11 -42 18 -56 18c-26 0 -38 -9 -43 -48h-122z" />
    <glyph glyph-name="logicalnot" unicode="&#xac;" horiz-adv-x="528" 
d="M21 473h486v-324h-188v152h-298v172z" />
    <glyph glyph-name="infinity" unicode="&#x221e;" horiz-adv-x="863" 
d="M635 570c125 0 207 -92 207 -214s-82 -214 -207 -214c-72 0 -145 34 -203 106c-58 -72 -131 -106 -204 -106c-124 0 -207 92 -207 214s83 214 207 214c73 0 146 -34 204 -106c58 72 131 106 203 106zM240 285c34 0 71 25 104 71c-32 45 -69 71 -104 71
c-38 0 -63 -31 -63 -71s25 -71 63 -71zM623 285c38 0 63 31 63 71s-25 71 -63 71c-35 0 -71 -26 -104 -71c33 -46 70 -71 104 -71z" />
    <glyph glyph-name="integral" unicode="&#x222b;" horiz-adv-x="441" 
d="M110 -204c-28 0 -58 3 -89 8v151c12 -2 25 -4 37 -4c32 0 59 11 59 43v537c0 134 91 188 217 188c27 0 56 -2 86 -7v-151c-12 2 -24 3 -35 3c-33 0 -61 -10 -61 -43v-536c0 -135 -89 -189 -214 -189z" />
    <glyph glyph-name="uni2126" unicode="&#x2126;" horiz-adv-x="785" 
d="M5 0v194h124v4c-78 59 -118 127 -118 228c0 176 135 304 376 304c246 0 387 -128 387 -304c0 -101 -41 -169 -118 -228v-4h124v-194h-353v173c75 30 118 104 118 197c0 113 -62 164 -151 164c-91 0 -152 -51 -152 -164c0 -93 43 -167 118 -197v-173h-355z" />
    <glyph glyph-name="uni2206" unicode="&#x2206;" horiz-adv-x="713" 
d="M489 712l200 -526v-186h-665v186l192 526h273zM351 498c-7 -25 -15 -50 -22 -72l-77 -228h200l-79 228c-7 22 -15 47 -22 72z" />
    <glyph glyph-name="product" unicode="&#x220f;" horiz-adv-x="742" 
d="M40 712h662v-908h-226v709h-210v-709h-226v908z" />
    <glyph glyph-name="summation" unicode="&#x2211;" horiz-adv-x="662" 
d="M454 1h183v-199h-612v169l274 287l-274 287v169h602v-199h-173c-49 0 -91 0 -137 2c48 -48 76 -76 122 -124l65 -69v-132l-65 -69c-35 -37 -74 -77 -122 -124c46 2 88 2 137 2z" />
    <glyph glyph-name="radical" unicode="&#x221a;" horiz-adv-x="757" 
d="M540 712h226l-265 -908h-278l-118 354h-95v199h251l13 -48c27 -102 57 -213 85 -320c26 106 52 213 76 309z" />
    <glyph glyph-name="uni00B5" unicode="&#xb5;" horiz-adv-x="612" 
d="M368 516h208v-516h-204v59c-39 -45 -81 -68 -133 -70v-185h-203v712h208v-293c0 -37 15 -59 57 -59c34 0 67 18 67 66v286z" />
    <glyph glyph-name="partialdiff" unicode="&#x2202;" horiz-adv-x="675" 
d="M400 728c152 0 249 -82 249 -244c0 -179 -58 -347 -175 -435c-54 -41 -122 -65 -200 -65c-137 0 -254 80 -254 225c0 144 108 267 268 267c70 0 125 -23 158 -65c3 22 4 44 4 63c0 68 -24 98 -74 98c-40 0 -68 -17 -84 -54h-202c45 135 162 210 310 210zM294 153
c55 0 98 49 98 104c0 37 -21 65 -62 65c-55 0 -98 -50 -98 -105c0 -37 21 -64 62 -64z" />
    <glyph glyph-name="perthousand" unicode="&#x2030;" horiz-adv-x="1357" 
d="M206 290c-125 0 -186 72 -186 215c0 145 61 216 186 216s187 -71 187 -216c0 -143 -62 -215 -187 -215zM223 0l380 712h119l-380 -712h-119zM207 402c29 0 46 12 46 103c0 93 -17 104 -46 104s-47 -11 -47 -104c0 -91 18 -103 47 -103zM737 -9c-125 0 -186 72 -186 215
c0 145 61 216 186 216s187 -71 187 -216c0 -143 -62 -215 -187 -215zM1150 -9c-125 0 -186 72 -186 215c0 145 61 216 186 216s187 -71 187 -216c0 -143 -62 -215 -187 -215zM738 103c29 0 46 12 46 103c0 93 -17 104 -46 104s-47 -11 -47 -104c0 -91 18 -103 47 -103z
M1151 103c29 0 46 12 46 103c0 93 -17 104 -46 104s-47 -11 -47 -104c0 -91 18 -103 47 -103z" />
    <glyph glyph-name="equal.subs" unicode="&#x208c;" horiz-adv-x="335" 
d="M15 29v107h305v-107h-305zM15 -114v106h305v-106h-305z" />
    <glyph glyph-name="equal.sups" horiz-adv-x="335" 
d="M15 753v107h305v-107h-305zM15 610v106h305v-106h-305z" />
    <glyph glyph-name="minus.subs" unicode="&#x208b;" horiz-adv-x="335" 
d="M15 -43v106h305v-106h-305z" />
    <glyph glyph-name="minus.sups" unicode="&#x207b;" horiz-adv-x="335" 
d="M15 681v106h305v-106h-305z" />
    <glyph glyph-name="plus.subs" unicode="&#x208a;" horiz-adv-x="335" 
d="M320 63v-106h-93v-95h-119v95h-93v106h93v95h119v-95h93z" />
    <glyph glyph-name="plus.sups" unicode="&#x207a;" horiz-adv-x="335" 
d="M320 787v-106h-93v-95h-119v95h-93v106h93v95h119v-95h93z" />
    <glyph glyph-name="uni2219.ss01" horiz-adv-x="532" 
d="M268 210c-84 0 -153 65 -153 149c0 82 69 147 153 147c81 0 149 -65 149 -147c0 -84 -68 -149 -149 -149z" />
    <glyph glyph-name="divide.ss01" horiz-adv-x="527" 
d="M263 472c-53 0 -95 43 -95 96s42 95 95 95c54 0 96 -42 96 -95s-42 -96 -96 -96zM21 271v172h486v-172h-486zM263 58c-53 0 -95 42 -95 95s42 96 95 96c54 0 96 -43 96 -96s-42 -95 -96 -95z" />
    <glyph glyph-name="plus.tf" horiz-adv-x="696" 
d="M591 443v-172h-149v-152h-188v152h-149v172h149v151h188v-151h149z" />
    <glyph glyph-name="minus.tf" horiz-adv-x="696" 
d="M105 271v172h486v-172h-486z" />
    <glyph glyph-name="arrowup" unicode="&#x2191;" horiz-adv-x="956" 
d="M478 728l356 -269v-223l-165 124c-36 27 -67 51 -97 76v-436h-190v434c-29 -24 -60 -48 -95 -74l-165 -124v223z" />
    <glyph glyph-name="uni2197" unicode="&#x2197;" horiz-adv-x="956" 
d="M294 678h513v-504l-180 -164v237c0 43 0 86 1 128l-348 -337l-124 134l346 335c-43 -1 -87 -1 -130 -1h-244z" />
    <glyph glyph-name="arrowright" unicode="&#x2192;" horiz-adv-x="956" 
d="M573 712l269 -356l-269 -356h-233l123 165c29 39 55 72 82 105h-431v172h432c-28 32 -54 66 -83 105l-123 165h233z" />
    <glyph glyph-name="uni2198" unicode="&#x2198;" horiz-adv-x="956" 
d="M627 708l180 -164v-504h-513l-166 172h244c43 0 87 0 130 -1l-346 335l124 134l348 -337c-1 42 -1 85 -1 128v237z" />
    <glyph glyph-name="arrowdown" unicode="&#x2193;" horiz-adv-x="956" 
d="M669 352l165 124v-223l-356 -269l-356 269v223l165 -124c35 -26 66 -50 95 -74v434h190v-436c30 25 61 49 97 76z" />
    <glyph glyph-name="uni2199" unicode="&#x2199;" horiz-adv-x="956" 
d="M584 216h244l-166 -172h-513v504l180 164v-237c0 -43 0 -86 -1 -128l348 337l124 -134l-346 -335c43 1 87 1 130 1z" />
    <glyph glyph-name="arrowleft" unicode="&#x2190;" horiz-adv-x="956" 
d="M842 442v-172h-431c27 -33 53 -66 82 -105l123 -165h-233l-269 356l269 356h233l-123 -165c-29 -39 -55 -73 -83 -105h432z" />
    <glyph glyph-name="uni2196" unicode="&#x2196;" horiz-adv-x="956" 
d="M584 506c-43 0 -87 0 -130 1l346 -335l-124 -134l-348 337c1 -42 1 -85 1 -128v-237l-180 164v504h513l166 -172h-244z" />
    <glyph glyph-name="arrowboth" unicode="&#x2194;" horiz-adv-x="956" 
d="M736 712l220 -356l-220 -356h-201l100 161c23 37 45 74 70 111h-454c25 -37 47 -74 69 -111l97 -161h-196l-221 356l220 356h199l-100 -164c-21 -35 -43 -71 -66 -106h450c-24 34 -45 68 -66 103l-101 167h200z" />
    <glyph glyph-name="arrowupdn" unicode="&#x2195;" horiz-adv-x="956" 
d="M572 134c30 25 61 49 97 76l165 124v-223l-356 -269l-356 269v223l165 -124c35 -26 66 -50 95 -74v440c-29 -24 -60 -48 -95 -74l-165 -124v223l356 269l356 -269v-223l-165 124c-36 27 -67 51 -97 76v-444z" />
    <glyph glyph-name="uni25CF" unicode="&#x25cf;" horiz-adv-x="956" 
d="M478 -107c-268 0 -478 205 -478 463s210 463 478 463s478 -205 478 -463s-210 -463 -478 -463z" />
    <glyph glyph-name="circle" unicode="&#x25cb;" horiz-adv-x="956" 
d="M478 -107c-268 0 -478 205 -478 463s210 463 478 463s478 -205 478 -463s-210 -463 -478 -463zM479 30c187 0 330 141 330 326s-143 326 -330 326s-330 -141 -330 -326s143 -326 330 -326z" />
    <glyph glyph-name="lozenge" unicode="&#x25ca;" horiz-adv-x="645" 
d="M439 712l193 -356l-193 -356h-235l-192 356l192 356h235zM323 176l94 180l-94 180l-95 -180z" />
    <glyph glyph-name="filledbox" unicode="&#x25a0;" horiz-adv-x="958" 
d="M25 -88v888h908v-888h-908z" />
    <glyph glyph-name="uni25A1" unicode="&#x25a1;" horiz-adv-x="958" 
d="M25 -88v888h908v-888h-908zM173 45h612v622h-612v-622z" />
    <glyph glyph-name="uniF8FF" unicode="&#xf8ff;" horiz-adv-x="873" 
d="M314 610v-127h-92v316h92v-120c15 28 41 39 71 39c47 0 78 -27 78 -93v-142h-92v127c0 18 -8 30 -26 30c-16 0 -31 -8 -31 -30zM827 799v-316h-92v316h92zM598 479c-76 0 -127 45 -127 119c0 72 49 121 129 121c75 0 127 -43 127 -118c0 -6 0 -14 -1 -25h-168
c1 -21 18 -36 44 -36c15 0 26 4 33 13h86c-15 -48 -65 -74 -123 -74zM599 657c-23 0 -36 -11 -40 -33h80c-3 22 -17 33 -40 33zM831 364c0 -6 0 -14 -1 -25h-168c1 -21 18 -36 44 -36c15 0 26 4 33 13h86c-15 -48 -65 -74 -123 -74c-76 0 -127 45 -127 119
c0 72 49 121 129 121c75 0 127 -43 127 -118zM514 243h-108l-86 229h98l20 -65c10 -32 17 -57 25 -90c8 33 14 58 23 90l18 65h95zM703 420c-23 0 -36 -11 -40 -33h80c-3 22 -17 33 -40 33zM223 248v69h92v-69h-92zM166 299v-71h48v-63h-48v-77c0 -19 10 -21 26 -21h17v-68
c-12 -1 -25 -2 -39 -2c-69 0 -96 21 -96 72v96h-34v63h34v71h92zM451 162c-25 0 -35 -15 -35 -48c0 -36 9 -49 34 -49c20 0 31 8 35 30h91c-6 -59 -50 -101 -125 -101c-80 0 -128 47 -128 120c0 72 48 120 129 120c77 0 120 -42 125 -98h-93c-4 19 -15 26 -33 26zM833 0h-89
c-3 8 -6 18 -7 24c-12 -18 -36 -31 -72 -31c-49 0 -85 22 -85 70c0 40 25 66 87 71l41 3c19 1 28 6 28 17c0 12 -9 17 -25 17c-18 0 -27 -5 -28 -22h-90c2 55 37 84 119 84c78 0 113 -27 113 -73v-123c0 -13 2 -24 8 -37zM223 0v229h92v-229h-92zM700 51c23 0 36 11 36 37
v14c-4 -6 -10 -8 -19 -9l-22 -3c-14 -2 -21 -8 -21 -20c0 -14 9 -19 26 -19z" />
    <glyph glyph-name="paragraph" unicode="&#xb6;" horiz-adv-x="636" 
d="M236 0v363c-129 0 -219 60 -219 172c0 121 85 177 236 177h343v-712h-149v576h-61v-576h-150z" />
    <glyph glyph-name="section" unicode="&#xa7;" horiz-adv-x="634" 
d="M622 236c0 -63 -39 -112 -110 -144c38 -34 53 -69 53 -115c0 -116 -98 -181 -255 -181c-147 0 -234 68 -244 183h184c4 -37 25 -54 59 -54c31 0 53 15 53 41c0 16 -9 30 -29 41l-197 114c-86 50 -124 101 -124 167c0 63 39 112 110 144c-38 34 -53 69 -53 115
c0 116 98 181 255 181c147 0 234 -68 244 -183h-184c-4 37 -25 54 -59 54c-31 0 -53 -15 -53 -41c0 -16 9 -30 29 -41l197 -114c86 -50 124 -101 124 -167zM263 244l115 -66c30 10 40 27 40 46c0 22 -13 37 -47 56l-115 66c-30 -10 -40 -27 -40 -46c0 -22 13 -37 47 -56z
" />
    <glyph glyph-name="copyright" unicode="&#xa9;" horiz-adv-x="803" 
d="M401 -16c-218 0 -382 165 -382 372c0 208 164 372 382 372c219 0 383 -164 383 -372c0 -207 -164 -372 -383 -372zM402 105c148 0 253 108 253 251s-105 251 -253 251s-253 -108 -253 -251s105 -251 253 -251zM404 163c-117 0 -193 75 -193 193s76 193 193 193
c108 0 179 -62 184 -158h-132c-2 32 -20 49 -52 49c-40 0 -58 -26 -58 -84s18 -84 58 -84c36 0 55 19 56 56h130c-2 -99 -75 -165 -186 -165z" />
    <glyph glyph-name="registered" unicode="&#xae;" horiz-adv-x="558" 
d="M279 728c151 0 269 -115 269 -261c0 -145 -118 -260 -269 -260s-269 115 -269 260c0 146 118 261 269 261zM279 268c115 0 203 85 203 199c0 115 -88 200 -203 200s-203 -85 -203 -200c0 -114 88 -199 203 -199zM394 369c1 -15 5 -25 10 -29h-81c-5 9 -6 18 -7 29l-2 28
c-2 23 -9 29 -30 29h-33v-86h-78v258h127c61 0 97 -29 97 -78c0 -26 -13 -46 -34 -58c24 -13 28 -35 29 -59zM251 485h38c18 0 27 9 27 25s-9 25 -27 25h-38v-50z" />
    <glyph glyph-name="uni2117" unicode="&#x2117;" horiz-adv-x="785" 
d="M392 728c219 0 383 -164 383 -372c0 -207 -164 -372 -383 -372c-218 0 -382 165 -382 372c0 208 164 372 382 372zM393 105c148 0 253 108 253 251s-105 251 -253 251s-253 -108 -253 -251s105 -251 253 -251zM422 538c93 0 153 -60 153 -140s-61 -141 -153 -141h-44v-84
h-117v365h161zM415 360c32 0 43 19 43 38c0 18 -11 37 -43 37h-37v-75h37z" />
    <glyph glyph-name="trademark" unicode="&#x2122;" horiz-adv-x="587" 
d="M242 712v-71h-73v-187h-78v187h-74v71h225zM456 712h114v-258h-74v75c0 30 0 56 1 84l-6 -24l-37 -135h-63l-37 135c-2 7 -4 14 -5 20c1 -26 1 -52 1 -80v-75h-75v258h114l25 -98l9 -35c2 12 5 24 8 35z" />
    <glyph glyph-name="uni2105" unicode="&#x2105;" horiz-adv-x="1053" 
d="M237 298c-124 0 -217 78 -217 215c0 138 89 216 217 216c95 0 190 -44 208 -161h-136c-13 36 -42 45 -72 45c-48 0 -78 -31 -78 -100c0 -68 30 -99 78 -99c24 0 60 9 71 46h136c-16 -113 -107 -162 -207 -162zM269 0l380 712h119l-380 -712h-119zM810 -9
c-131 0 -223 82 -223 215c0 134 92 216 223 216s223 -82 223 -216c0 -133 -92 -215 -223 -215zM810 108c48 0 84 31 84 98s-35 99 -84 99s-84 -32 -84 -99s36 -98 84 -98z" />
    <glyph glyph-name="degree" unicode="&#xb0;" horiz-adv-x="377" 
d="M189 383c-104 0 -179 72 -179 170c0 97 75 169 179 169s178 -72 178 -169c0 -98 -74 -170 -178 -170zM189 493c35 0 59 24 59 60c0 34 -24 58 -59 58c-36 0 -60 -24 -60 -58c0 -36 24 -60 60 -60z" />
    <glyph glyph-name="brokenbar" unicode="&#xa6;" horiz-adv-x="249" 
d="M40 398v399h169v-399h-169zM40 -204v399h169v-399h-169z" />
    <glyph glyph-name="uni2113" unicode="&#x2113;" horiz-adv-x="545" 
d="M463 184l62 -101c-56 -51 -131 -90 -224 -90c-130 0 -193 77 -193 195v8c-26 -3 -53 -5 -82 -6l-16 100c34 2 67 4 98 9v208c0 141 70 221 217 221c130 0 189 -64 189 -187c0 -132 -68 -232 -199 -291v-29c0 -57 25 -74 57 -74s65 17 91 37zM315 504v-138
c51 36 80 86 80 154c0 40 -11 56 -39 56s-41 -17 -41 -72z" />
    <glyph glyph-name="dagger" unicode="&#x2020;" horiz-adv-x="630" 
d="M615 516v-143h-196v-519h-208v519h-196v143h196v196h208v-196h196z" />
    <glyph glyph-name="daggerdbl" unicode="&#x2021;" horiz-adv-x="630" 
d="M615 373h-196v-180h196v-143h-196v-196h-208v196h-196v143h196v180h-196v143h196v196h208v-196h196v-143z" />
    <glyph glyph-name="uni2116" unicode="&#x2116;" horiz-adv-x="1342" 
d="M1040 723c174 0 292 -108 292 -270c0 -163 -118 -269 -292 -269c-175 0 -293 106 -293 269c0 162 118 270 293 270zM483 596v116h215v-712h-230l-150 253c-25 42 -47 80 -67 119c3 -84 4 -165 4 -256v-116h-215v712h230l147 -253c22 -38 46 -86 69 -134
c-3 89 -3 174 -3 271zM1040 344c47 0 85 27 85 108s-38 111 -85 111c-49 0 -85 -30 -85 -111c0 -80 36 -108 85 -108z" />
    <glyph glyph-name="estimated" unicode="&#x212e;" horiz-adv-x="911" 
d="M456 728c256 0 404 -177 404 -382h-646c-8 0 -14 -6 -14 -13v-176c0 -22 3 -35 16 -47c61 -60 141 -96 240 -96c103 0 197 48 252 115h73c-47 -66 -153 -142 -325 -142c-246 0 -406 155 -406 369c0 209 153 372 406 372zM456 700c-99 0 -179 -37 -240 -98
c-13 -12 -16 -24 -16 -44v-176c0 -8 6 -13 14 -13h481c8 0 14 5 14 13v176c0 20 -3 32 -16 44c-72 71 -156 98 -237 98z" />
    <glyph glyph-name="cent.dnom" horiz-adv-x="352" 
d="M199 144c12 5 19 14 22 31h109c-8 -77 -58 -117 -131 -123v-61h-40v61c-83 7 -138 66 -138 156c0 88 53 148 138 155v59h40v-59c76 -7 124 -49 132 -122h-110c-3 16 -10 25 -22 29v-126zM132 208c0 -35 9 -56 27 -63v125c-18 -8 -27 -28 -27 -62z" />
    <glyph glyph-name="dollar.dnom" horiz-adv-x="381" 
d="M373 128c0 -91 -67 -131 -160 -136v-59h-40v58c-108 6 -161 58 -165 156h116c2 -39 12 -57 49 -62v73h-3c-106 16 -153 58 -153 134c0 78 50 127 156 130v58h40v-59c95 -9 147 -58 152 -141h-114c-2 28 -13 42 -38 47v-68l13 -2c106 -20 147 -56 147 -129zM136 300
c0 -17 8 -25 37 -33v61c-29 -2 -37 -13 -37 -28zM213 85c24 2 39 11 39 32c0 20 -10 28 -39 34v-66z" />
    <glyph glyph-name="Euro.dnom" horiz-adv-x="424" 
d="M302 147h117c-14 -85 -70 -157 -186 -157c-99 0 -168 58 -188 155h-40v44h34v18c0 7 0 14 1 21h-35v44h41c20 94 87 151 185 151c123 0 170 -75 187 -146h-120c-10 29 -31 47 -67 47s-56 -18 -65 -52h93v-44h-100v-20v-19h100v-44h-93c9 -36 30 -55 69 -55
c36 0 59 17 67 57z" />
    <glyph glyph-name="plus.dnom" horiz-adv-x="335" 
d="M320 259v-106h-93v-95h-119v95h-93v106h93v95h119v-95h93z" />
    <glyph glyph-name="minus.dnom" horiz-adv-x="335" 
d="M15 153v106h305v-106h-305z" />
    <glyph glyph-name="equal.dnom" horiz-adv-x="335" 
d="M15 224v107h305v-107h-305zM15 81v106h305v-106h-305z" />
    <glyph glyph-name="cent.numr" horiz-adv-x="352" 
d="M199 441c12 5 19 14 22 31h109c-8 -77 -58 -117 -131 -123v-61h-40v61c-83 7 -138 66 -138 156c0 88 53 148 138 155v59h40v-59c76 -7 124 -49 132 -122h-110c-3 16 -10 25 -22 29v-126zM132 505c0 -35 9 -56 27 -63v125c-18 -8 -27 -28 -27 -62z" />
    <glyph glyph-name="dollar.numr" horiz-adv-x="381" 
d="M373 427c0 -91 -67 -131 -160 -136v-59h-40v58c-108 6 -161 58 -165 156h116c2 -39 12 -57 49 -62v73h-3c-106 16 -153 58 -153 134c0 78 50 127 156 130v58h40v-59c95 -9 147 -58 152 -141h-114c-2 28 -13 42 -38 47v-68l13 -2c106 -20 147 -56 147 -129zM136 599
c0 -17 8 -25 37 -33v61c-29 -2 -37 -13 -37 -28zM213 384c24 2 39 11 39 32c0 20 -10 28 -39 34v-66z" />
    <glyph glyph-name="Euro.numr" horiz-adv-x="424" 
d="M302 446h117c-14 -85 -70 -157 -186 -157c-99 0 -168 58 -188 155h-40v44h34v18c0 7 0 14 1 21h-35v44h41c20 94 87 151 185 151c123 0 170 -75 187 -146h-120c-10 29 -31 47 -67 47s-56 -18 -65 -52h93v-44h-100v-20v-19h100v-44h-93c9 -36 30 -55 69 -55
c36 0 59 17 67 57z" />
    <glyph glyph-name="plus.numr" horiz-adv-x="335" 
d="M320 558v-106h-93v-95h-119v95h-93v106h93v95h119v-95h93z" />
    <glyph glyph-name="minus.numr" horiz-adv-x="335" 
d="M15 452v106h305v-106h-305z" />
    <glyph glyph-name="equal.numr" horiz-adv-x="335" 
d="M15 524v107h305v-107h-305zM15 381v106h305v-106h-305z" />
    <glyph glyph-name="cent.subs" horiz-adv-x="352" 
d="M199 -54c12 5 19 14 22 31h109c-8 -77 -58 -117 -131 -123v-61h-40v61c-83 7 -138 66 -138 156c0 88 53 148 138 155v59h40v-59c76 -7 124 -49 132 -122h-110c-3 16 -10 25 -22 29v-126zM132 10c0 -35 9 -56 27 -63v125c-18 -8 -27 -28 -27 -62z" />
    <glyph glyph-name="dollar.subs" horiz-adv-x="381" 
d="M373 -71c0 -91 -67 -131 -160 -136v-59h-40v58c-108 6 -161 58 -165 156h116c2 -39 12 -57 49 -62v73h-3c-106 16 -153 58 -153 134c0 78 50 127 156 130v58h40v-59c95 -9 147 -58 152 -141h-114c-2 28 -13 42 -38 47v-68l13 -2c106 -20 147 -56 147 -129zM136 101
c0 -17 8 -25 37 -33v61c-29 -2 -37 -13 -37 -28zM213 -114c24 2 39 11 39 32c0 20 -10 28 -39 34v-66z" />
    </font>
</defs>
</svg>
